<svg width="76" height="47" fill="none" xmlns="http://www.w3.org/2000/svg"><path d="M29.832 14.484h-6.164L22.496 18h-3.738L25.109.937h3.258L34.754 18h-3.738l-1.184-3.516zm-5.215-2.847h4.266L26.738 5.25l-2.12 6.387zm15.246.351V18h-3.515V.937h6.656c1.281 0 2.406.235 3.375.704.977.468 1.727 1.136 2.25 2.004.523.859.785 1.84.785 2.94 0 1.673-.574 2.993-1.723 3.962-1.14.96-2.722 1.441-4.746 1.441h-3.082zm0-2.847h3.14c.93 0 1.638-.22 2.122-.657.492-.437.738-1.062.738-1.875 0-.836-.246-1.511-.738-2.027-.492-.516-1.172-.781-2.04-.797h-3.222v5.356zM55.578 18h-3.516V.937h3.516V18zM3.887 43.176h7.465V46H.372V28.937h3.515v14.239zM20.504 46c-.156-.305-.27-.684-.34-1.137-.82.914-1.887 1.371-3.2 1.371-1.241 0-2.273-.359-3.093-1.078-.812-.718-1.219-1.625-1.219-2.718 0-1.344.496-2.376 1.489-3.094 1-.719 2.441-1.082 4.324-1.09h1.558v-.727c0-.586-.152-1.054-.457-1.406-.296-.352-.77-.527-1.418-.527-.57 0-1.02.136-1.347.41-.32.273-.48.648-.48 1.125h-3.387c0-.734.226-1.414.68-2.04.452-.624 1.093-1.112 1.921-1.464.828-.36 1.758-.54 2.79-.54 1.562 0 2.8.395 3.714 1.184.922.782 1.383 1.883 1.383 3.305v5.496c.008 1.203.176 2.114.504 2.73v.2h-3.422zm-2.8-2.355c.5 0 .96-.11 1.382-.329.422-.226.734-.527.937-.902v-2.18h-1.265c-1.695 0-2.598.586-2.707 1.758l-.012.2c0 .421.148.769.445 1.042.297.274.703.41 1.22.41zm15.444-7.149a9.201 9.201 0 00-1.218-.094c-1.282 0-2.121.434-2.52 1.301V46h-3.387V33.32h3.2l.093 1.512c.68-1.164 1.622-1.746 2.825-1.746.375 0 .726.05 1.054.152l-.047 3.258zM41.785 46c-.156-.305-.27-.684-.34-1.137-.82.914-1.886 1.371-3.199 1.371-1.242 0-2.273-.359-3.094-1.078-.812-.718-1.218-1.625-1.218-2.718 0-1.344.496-2.376 1.488-3.094 1-.719 2.441-1.082 4.324-1.09h1.559v-.727c0-.586-.153-1.054-.457-1.406-.297-.352-.77-.527-1.418-.527-.57 0-1.02.136-1.348.41-.32.273-.48.648-.48 1.125h-3.387c0-.734.226-1.414.68-2.04.453-.624 1.093-1.112 1.921-1.464.828-.36 1.758-.54 2.79-.54 1.562 0 2.8.395 3.714 1.184.922.782 1.383 1.883 1.383 3.305v5.496c.008 1.203.176 2.114.504 2.73v.2h-3.422zm-2.8-2.355c.5 0 .96-.11 1.382-.329.422-.226.735-.527.938-.902v-2.18h-1.266c-1.695 0-2.598.586-2.707 1.758l-.012.2c0 .421.149.769.446 1.042.297.274.703.41 1.218.41zm12.878-1.782l2.356-8.543h3.539L53.48 46h-3.234L45.97 33.32h3.539l2.355 8.543zm13.067 4.371c-1.86 0-3.375-.57-4.547-1.71-1.164-1.141-1.746-2.66-1.746-4.56v-.327c0-1.274.246-2.41.738-3.41.492-1.008 1.188-1.782 2.086-2.32.906-.548 1.937-.821 3.094-.821 1.734 0 3.097.547 4.09 1.64 1 1.094 1.5 2.645 1.5 4.653v1.383H62.07c.11.828.438 1.492.985 1.992.554.5 1.254.75 2.097.75 1.305 0 2.325-.473 3.059-1.418l1.664 1.863c-.508.719-1.195 1.282-2.063 1.688-.867.398-1.828.597-2.882.597zm-.387-10.406c-.672 0-1.219.227-1.64.68-.415.453-.68 1.101-.797 1.945h4.71v-.27c-.015-.75-.218-1.328-.609-1.734-.39-.414-.945-.62-1.664-.62zM75.653 46h-3.4V28h3.4v18z" fill="#D3D3D3"/></svg>