<svg width="37" height="36" fill="none" xmlns="http://www.w3.org/2000/svg"><path d="M19.17 24.293c.47-.612.99-1.194 1.547-1.737l4.496-4.376c.37-.36.786-.673 1.25-.924 1.756-.92 3.638-2.737 3.71-2.807 2.082-2.024 1.968-5.363 1.952-5.502 0-.016-.006-.04-.005-.056-.162-.772.666-1.684.738-1.755l.352-.342.072.07c.15.147.42.13.593-.037l2.981-2.902c.171-.166.197-.422.038-.577l-1.668-1.624L33.558.1c-.152-.147-.422-.13-.593.036L29.981 3.04c-.172.167-.197.423-.038.578l.08.077-.351.342c-.064.06-1.002.866-1.803.718-.017 0-.042-.005-.058-.004-.152-.007-3.573-.127-5.654 1.9-.081.078-1.939 1.9-2.885 3.61-.25.45-.569.861-.947 1.217l-4.496 4.376a16.364 16.364 0 01-1.786 1.506c-1.976 1.443-6.912 5.197-10.126 9.084-.398.402-2.145 2.226-1.892 3.386l.029.08.173.344c.11.23.18.473.171.727 0 .388.187.918 1.065 1.3.23.101.42.286.516.503.116.288.292.566.506.79a2.9 2.9 0 00.803.502.982.982 0 01.534.501c.4.846.946 1.027 1.334 1.036.27 0 .52.067.758.175l.344.16c.025.006.058.022.082.029 1.191.246 3.067-1.455 3.48-1.842 4.01-3.13 7.874-7.926 9.348-9.841h.002zM33.205.985l1.389 1.352 1.392 1.354-2.352 2.288-.073-.07-1.334-1.298-.047-.047-1.247-1.213-.08-.078L33.205.985zM22.715 7.19c1.693-1.647 4.629-1.63 4.933-1.633 1.253.22 2.517-.918 2.56-.962l.01-.01.362-.35.97.943.045.046 1.056 1.028-.36.352-.008.009c-.054.052-1.214 1.274-.989 2.492.006.304.025 3.146-1.678 4.803-.018.017-1.845 1.781-3.48 2.646a6.465 6.465 0 00-1.454 1.059l-.587-.573c-.058-1.089-1.423-2.542-1.731-2.86-.311-.286-1.82-1.632-2.94-1.685l-.516-.503a6.345 6.345 0 001.088-1.415c.87-1.59 2.699-3.369 2.718-3.387h.001zm-2.5 14.771l-.516-.502a.35.35 0 00-.366-.093c-.016.001-1.131.127-2.77-1.539-1.704-1.588-1.51-2.627-1.51-2.627a.33.33 0 00-.087-.366l-.508-.493 3.838-3.736.628.61a.377.377 0 00.304.105c.57-.06 1.805.826 2.514 1.481.672.69 1.59 1.9 1.529 2.47a.367.367 0 00.107.298l.691.673-3.837 3.735-.017-.015zM9.343 33.549l-.036.034c-.755.721-2.058 1.68-2.637 1.608l-.303-.136a2.574 2.574 0 00-1.081-.247c-.253 0-.483-.225-.677-.623a1.697 1.697 0 00-.908-.85 1.961 1.961 0 01-.569-.343 1.955 1.955 0 01-.362-.56 1.663 1.663 0 00-.872-.868c-.42-.18-.648-.42-.648-.667a2.409 2.409 0 00-.254-1.036l-.14-.296c-.075-.563.91-1.83 1.65-2.566l.036-.034c3.142-3.801 8.008-7.517 9.958-8.935.451-.33.888-.678 1.3-1.049l.405.395c-.021.47.136 1.552 1.597 2.974l.136.133.206.2c1.46 1.422 2.574 1.577 3.058 1.556l.405.394c-.381.404-.741.826-1.078 1.265-1.462 1.856-5.273 6.585-9.186 9.65v.002z" fill="#FB9B45"/></svg>