<svg width="37" height="37" fill="none" xmlns="http://www.w3.org/2000/svg"><path d="M31.654 10.771c-.688-1.532.478-2.918.984-3.424a.97.97 0 001.038-.195l3.026-3.025c.422-.422.392-1.144-.066-1.603l-1.018-1.018-.029-.028L34.47.36c-.458-.459-1.172-.48-1.594-.058l-3.033 3.035a.97.97 0 00-.195 1.038c-.498.499-1.884 1.682-3.425.986-2.599-1.182-4.421.732-5.744 2.129-.17.187-.338.356-.498.516L.691 27.288c-.912.914-.784 1.684-.399 2.07l3.744 3.741.055.055 3.55 3.55c.614.615 1.502.167 2.069-.398L28.99 17.03c.16-.161.338-.32.524-.506 1.399-1.324 3.32-3.136 2.14-5.752zm2.225-9.82l1.119 1.12.029.027 1.026 1.026c.101.1.117.27.015.37L33.156 6.41l-1.221-1.22-.028-.028-1.302-1.302L33.52.946c.1-.1.26-.095.36.006V.951zm-7.948 5.195c2.222 1.008 4.049-.782 4.512-1.282l.879.88.029.03.798.796c-.509.454-2.282 2.28-1.275 4.503.92 2.052-.62 3.502-1.975 4.783-.196.176-.374.353-.542.522l-.998.997-3.862-3.862-3.87-3.87.996-.996c.168-.17.328-.347.514-.533 1.282-1.355 2.74-2.887 4.793-1.968zm-6.906 4.096l3.873 3.872 3.863 3.862L12.54 32.191 8.798 28.45l-.057-.055-3.935-3.935 14.22-14.218zM8.224 36.122l-3.55-3.55-.056-.055-3.742-3.743c-.073-.072.12-.504.448-.834l2.884-2.88 3.935 3.935.053.054 3.744 3.742-2.882 2.882c-.328.329-.76.522-.834.447v.002z" fill="#FB9B45"/></svg>