<svg width="37" height="37" fill="none" xmlns="http://www.w3.org/2000/svg"><path d="M24.922 24.987c2.14-2.33 4.699-5.897 4.753-9.626.024-1.667-.464-2.787-.735-3.29l1.962-1.961a.485.485 0 00.128-.224l.027-.025 5.8-5.8a.522.522 0 00.142-.299.35.35 0 00-.11-.284l-1.769-1.75-1.6-1.619A.417.417 0 0033.236 0a.44.44 0 00-.299.142l-5.802 5.799-.026.025a.486.486 0 00-.223.128l-1.962 1.962c-.5-.27-1.622-.759-3.288-.735-3.739.047-7.298 2.612-9.628 4.752-.351.32-8.555 7.797-10.332 11.53-.008.01-.008.01-.01.025l-1.461 3.45c-.362.834-.237 1.734.312 2.352l.016.016 3.407 3.425.016.015.016.017 3.583 3.565.015.014c.62.55 1.52.675 2.355.313l3.45-1.46s.008-.01.025-.01c3.725-1.785 11.204-9.988 11.522-10.338zM34.48 2.319l.025.024.015.016 1.476 1.459-5.068 5.067-2.816-2.815L33.18 1l1.3 1.318.001.001zM13.107 34.575l-3.433 1.46c-.536.22-1.115.152-1.511-.192l-3.591-3.572-3.413-3.45c-.346-.397-.43-.975-.192-1.51l1.46-3.433c1.71-3.57 10.02-11.155 10.106-11.226 3.146-2.892 6.251-4.45 8.973-4.507 2.034-.046 3.18.766 3.187.773.152.117.387.088.545-.07l2.07-2.068.215-.013.05-.002 2.675 2.674-.003.05-.011.217-2.076 2.076a.43.43 0 00-.073.544c.031.049 3.247 4.55-3.743 12.152-.078.078-7.662 8.388-11.235 10.097zm6.939-17.632c-2.162-2.16-5.876-1.95-8.28.451-2.403 2.403-2.605 6.124-.452 8.278 2.162 2.162 5.876 1.95 8.28-.453 2.402-2.402 2.613-6.114.452-8.276zm-8.115 8.112c-1.854-1.852-1.68-5.04.389-7.11 2.067-2.067 5.256-2.24 7.11-.386 1.853 1.853 1.678 5.04-.39 7.11-2.067 2.067-5.256 2.24-7.11.386h.001z" fill="#FB9B45"/></svg>