<svg width="38" height="38" fill="none" xmlns="http://www.w3.org/2000/svg"><path d="M30.821 20.56c1.386-1.35 4.26-4.157 1.76-7.449-1.762-2.314.569-4.319.664-4.397l4.432-4.434a1.058 1.058 0 00.004-1.494L36.583 1.69 35.488.594a1.054 1.054 0 00-1.486-.005l-4.405 4.406-.028.026c-.087.104-2.083 2.427-4.405.672-3.284-2.49-6.09.384-7.45 1.762-.103.101-.197.196-.293.292L1.834 23.334c-.112.112-1.11 1.076-1.165 2.364-.028.747.271 1.442.87 2.058A256.96 256.96 0 003.665 29.9c1.123 1.122 2.202 2.184 2.485 2.467.222.222 1.098 1.112 2.219 2.236.65.65 1.386 1.386 2.142 2.123.616.601 1.311.9 2.058.872 1.288-.037 2.26-1.044 2.365-1.165L30.52 20.845c.102-.087.197-.18.301-.285zm4.064-19.364l1.097 1.098 1.097 1.095c.076.078.085.206.007.284l-4.21 4.208-1.146-1.147-.017-.017-1.32-1.319 4.21-4.21c.078-.077.207-.068.283.008h-.001zm-4.656 18.756l-.292.293L14.35 35.832l-.017.018c-.008.008-.8.852-1.771.88-.506.01-.987-.196-1.44-.632a235.877 235.877 0 01-4.292-4.293l-.06-.059-.052-.052a267.292 267.292 0 01-4.549-4.549c-.436-.453-.65-.924-.64-1.432.029-.97.881-1.771.888-1.78L18.021 8.33l.293-.292c1.36-1.395 3.633-3.718 6.332-1.673 2.066 1.566 4.07.608 5.144-.364l1.312 1.31.017.018 1.138 1.14c-.972 1.074-1.938 3.086-.364 5.143 2.054 2.708-.277 4.99-1.664 6.341zm-.957-4.969l-2.897-2.896-.017-.017-3.066-3.067a1.404 1.404 0 00-1.975.005l-15.51 15.51a1.218 1.218 0 00-.005 1.717l3.213 3.213 3.007 3.007a1.22 1.22 0 001.733-.004L29.26 16.949a1.38 1.38 0 00.013-1.966zM13.157 31.87a.378.378 0 01-.533 0l-2.946-2.947-3.273-3.271a.38.38 0 01.001-.534L21.916 9.61a.546.546 0 01.773-.003l3.067 3.066.017.018 2.896 2.896a.545.545 0 01-.003.772l-15.509 15.51z" fill="#FB9B45"/></svg>