<svg width="35" height="35" fill="none" xmlns="http://www.w3.org/2000/svg"><path d="M21.92 20.05c3.03-2.759 3.15-5.122 3.153-5.348.046-.654.812-1.687 1.114-2.034l6.641-7.647c.451-.022.905-.475 1.346-1.347a.853.853 0 00.676-.409c.529-.87-.485-2.007-.804-2.343-.319-.318-1.443-1.301-2.305-.765a.872.872 0 00-.408.676c-.872.44-1.326.896-1.347 1.345l-7.657 6.634c-.32.274-1.38 1.066-2.035 1.113-.225.002-2.578.114-5.35 3.151L.932 27.028c-.572.617-1.343 1.805-.668 2.48l2.575 2.574 2.657 2.656c.675.676 1.871-.105 2.47-.66l13.957-14.027h-.002zM9.31 31.682l-3.005-3.006-.007-.007-2.984-2.983 10.99-10.943 2.944 2.946.023.023 2.983 2.981L9.31 31.682zM30.77 2.107c.038-.068.256-.287.85-.583l.928.926.936.935c-.299.594-.517.813-.583.85a.967.967 0 00-.646.335l-2.103 2.428-1.076-1.076-1.068-1.068 2.429-2.104a.934.934 0 00.332-.645v.002zm-2.305 4.427l1.112 1.113-1.48 1.704-1.224-1.224-1.224-1.223 1.702-1.48 1.114 1.112v-.002zm4.96-4.99l.036-.036-.035.036c.445.445.796 1.058.767 1.326L33.16 1.838 32.13.808c.25-.03.849.306 1.296.736zm-13.26 9.178h.015c1.073-.048 2.445-1.213 2.6-1.337l2.203-1.906 1.27 1.267 1.267 1.269-1.906 2.204c-.133.146-1.29 1.526-1.338 2.597v.017s-.004.538-.361 1.37c-.329.774-1.023 1.986-2.48 3.31l-.008.009-.56.559-2.983-2.983-.023-.022-2.945-2.944.551-.552.017-.017c2.532-2.786 4.665-2.84 4.68-2.841zM6.099 34.136l-2.635-2.634-2.597-2.598c-.26-.26.293-1.035.584-1.355l1.252-1.252 2.974 2.976.009.007 3.005 3.006-1.252 1.25c-.2.2-1.059.882-1.34.599v.001z" fill="#FB9B45"/></svg>