<svg width="38" height="37" fill="none" xmlns="http://www.w3.org/2000/svg"><path d="M12.304 34.98c.126-.15.213-.328.256-.517l.029-.111c0-.017.008-.026.019-.034l14.006-13.643c.16-.156.349-.305.552-.42.087-.053.168-.114.24-.185l1.6-1.558a.8.8 0 00.187-.915c-.677-1.477-.588-3.097-.503-3.78a.86.86 0 00.474-.324.822.822 0 00.157-.543c2.252-1.323 3.315-3.144 4.079-4.472.136-.233.262-.456.39-.646.526-.847 1.01-.985 1.141-1.013a.867.867 0 00.541-.327l1.035-1.29c.01-.01.027-.026.044-.026l.22-.083.994-1.016a.816.816 0 00.17-.898c-.302-.659-1.253-1.602-1.38-1.727-.13-.125-1.14-1.094-1.816-1.385a.866.866 0 00-.922.164l-1.063.968-.083.215c0 .017-.018.034-.026.042l-1.317 1A.844.844 0 0031 2.99c-.03.128-.17.6-1.04 1.112-.195.124-.425.249-.665.38-1.37.753-3.24 1.79-4.592 3.973-.525-.007-.802.298-.888.615-.728.074-2.392.16-3.9-.49a.882.882 0 00-.94.182l-1.6 1.558c-.072.07-.136.15-.19.234a2.58 2.58 0 01-.43.537L2.74 24.743c-.008.008-.017.017-.035.017l-.106.02a1.282 1.282 0 00-.53.248c-.524.412-1.755 1.477-2.03 2.412a.958.958 0 00.25.957l4.3 4.187 4.24 4.13.009.008c.247.242.631.335.982.243.969-.276 2.063-1.474 2.485-1.986zm7.254-25.617c1.75.747 3.643.623 4.38.54a.84.84 0 00.43-.2.806.806 0 00.247-.394h.035a.845.845 0 00.434-.098.818.818 0 00.319-.303c1.233-2.002 2.997-2.984 4.28-3.684.248-.142.478-.265.691-.389 1.108-.662 1.385-1.35 1.463-1.709l1.327-1.008a.907.907 0 00.315-.44l.008-.009.886-.828c.466.213 1.316.987 1.556 1.222.239.233.991 1.017 1.21 1.472l-.817.861-.007.009a1.1 1.1 0 00-.462.316l-1.036 1.291c-.358.067-1.064.337-1.754 1.425-.127.207-.262.44-.4.673-.734 1.25-1.726 2.968-3.8 4.168a.84.84 0 00-.305.313.813.813 0 00-.103.42c-.002.017.007.026-.002.034a.832.832 0 00-.413.243.797.797 0 00-.205.426c-.087.717-.214 2.561.546 4.258l-1.583 1.541c-.019.017-.036.034-.063.043a3.7 3.7 0 00-.586.422l-4.334-4.221-4.325-4.213c.16-.173.306-.363.432-.57.019-.018.027-.043.045-.062l1.59-1.548v-.001zm-7.112 23.96l-4.334-4.22-.009-.009-4.316-4.204 13.086-12.745 4.325 4.212 4.334 4.221-13.086 12.746zm-2.819 2.828c-.053.019-.114-.005-.156-.048l-4.248-4.137-.009-.009L.931 27.79c-.042-.043-.058-.094-.04-.145.17-.565 1.01-1.383 1.732-1.97a.323.323 0 01.141-.07l.105-.02a.951.951 0 00.257-.099l4.334 4.221.009.009 4.367 4.253a.893.893 0 00-.102.249l-.019.104a.357.357 0 01-.083.146c-.583.701-1.423 1.52-2.005 1.686v-.002z" fill="#FB9B45"/></svg>