<svg width="36" height="35" fill="none" xmlns="http://www.w3.org/2000/svg"><path d="M28.881 16.948c-.66-2.605-.599-4.09-.248-4.364.729-.589.797-1.272.728-1.753-.01-.042.014-.084.057-.11.848-.359 2.326-1.864 2.11-2.788-.047-.197.093-.641.639-1.29.026-.026.078-.025.104 0l.098.095.583.566a1.232 1.232 0 001.18.299l1.332-.384a.665.665 0 00.359-.235.633.633 0 00.134-.4.753.753 0 00-.209-.502l-.866-.841c2.168-2.382.52-4.648.495-4.673l-.009.007c-.062-.042-2.322-1.557-4.749.508L29.753.24c-.29-.266-.743-.275-1.007 0a.551.551 0 00-.16.277l-.396 1.294a1.127 1.127 0 00.306 1.146l.583.567.098.094c.026.027.028.077-.007.11-.661.521-1.119.659-1.31.621-.97-.21-2.502 1.227-2.888 2.05-.026.042-.068.065-.112.056a2.003 2.003 0 00-1.805.707c-.29.333-1.81.402-4.49-.242a1.189 1.189 0 00-.606.003 1.163 1.163 0 00-.52.3L.409 23.774l-.025.025c-.009.009-1.04 1.25.313 2.565l4.094 3.978 4.092 3.978c1.353 1.315 2.623.321 2.64.305l.018-.017 17.037-16.559c.147-.14.253-.316.306-.51a1.091 1.091 0 00-.003-.59zm.806-14.013l-.583-.567a.29.29 0 01-.075-.306l.32-1.067 1.292 1.254.299-.29c1.77-1.722 3.382-1.037 3.83-.785.276.47.965 2.052-.78 3.748l-.3.29 1.291 1.255-1.108.321a.32.32 0 01-.305-.081l-.584-.567-.097-.095-1.6-1.555-.061-.06-1.442-1.4-.097-.095zM10.947 33.98c-.095.075-.721.478-1.465-.243L5.388 29.76l-4.092-3.977c-.724-.706-.352-1.29-.251-1.424L18.059 7.826a.327.327 0 01.33-.079c2.016.48 4.571.867 5.338-.016.298-.341.643-.489 1.062-.431a.945.945 0 00.99-.533c.344-.763 1.598-1.672 1.92-1.608.551.118 1.233-.15 2.031-.787l.068-.067.052-.049.76.738.063.06.954.929-.06.057-.06.06c-.648.782-.924 1.446-.801 1.98.066.314-.87 1.549-1.637 1.866a.935.935 0 00-.44.393.897.897 0 00-.109.57c.058.407-.092.742-.444 1.033-.91.745-.52 3.236-.015 5.187a.334.334 0 01-.09.328L10.956 33.99l-.009-.01zm13.1-14.483a3.116 3.116 0 01-.214-.291 3.214 3.214 0 01-.479-1.63c-.072-1.7-1.583-3.15-1.858-3.4-.265-.276-1.847-1.83-3.605-1.891a3.487 3.487 0 01-1.66-.45c-.106-.07-.203-.13-.3-.208a.823.823 0 00-1.076.05l-7.578 7.365a1.19 1.19 0 00-.149 1.52c.51.776 1.54 2.11 3.538 4.053 1.998 1.94 3.372 2.943 4.172 3.437a1.28 1.28 0 001.561-.143l7.579-7.365a.754.754 0 00.07-1.047zm-8.248 7.81c-.13.126-.338.139-.505.042-.622-.39-1.978-1.341-4.02-3.325-2.043-1.985-3.022-3.302-3.423-3.908a.386.386 0 01.043-.49l7.553-7.339c.115.077.238.164.37.243a4.41 4.41 0 002.088.582c1.444.056 2.877 1.517 2.992 1.627.123.104 1.538 1.411 1.595 2.816.014.72.22 1.426.6 2.045.073.12.152.23.25.342L15.78 27.29l.019.017z" fill="#FB9B45"/></svg>