<svg width="37" height="37" fill="none" xmlns="http://www.w3.org/2000/svg"><path d="M24.78 18.19c1.42-4.706 7.699-10.307 8.177-10.724l.46-.291a4.038 4.038 0 001.16-1.082c.276-.385.666-.713 1.072-1.058.362-.302.736-.628 1.045-.998.948-1.15-.59-2.76-.79-2.96-.18-.177-1.78-1.725-2.936-.767-.372.309-.69.69-.998 1.044-.345.407-.672.796-1.057 1.074-.433.311-.8.705-1.082 1.158l-.292.461c-.425.489-6.016 6.759-10.731 8.189C12.455 14.16 4.042 23.7.469 28.494c-.342.357-.778 1.21-.15 2.018l3.078 3.077 3.093 3.078.016.014c.807.628 1.66.192 2.017-.149 4.801-3.568 14.339-11.98 16.257-18.341zm2.212-10.454l1.12 1.12.008.007 1.15 1.15-.426.47a44.562 44.562 0 00-1.49 1.754l-1.288-1.29-1.296-1.295a36.32 36.32 0 002.224-1.916h-.002zM33.437.921c.398-.336 1.393.337 1.832.776.44.44 1.159 1.465.823 1.863-.255.301-.575.573-.911.863-.434.374-.894.754-1.244 1.246a2.841 2.841 0 01-.865.802l-.53.33-.028.026c-.053.054-1.178 1.024-2.616 2.526l-1.134-1.135-.008-.007-1.103-1.104a39.562 39.562 0 002.508-2.615l.028-.029.33-.53c.208-.337.48-.63.802-.862.49-.353.872-.813 1.244-1.247.29-.336.563-.655.872-.903zM9.113 19.851c3.805-3.667 7.207-6.035 9.835-6.828 1.704-.518 3.502-1.604 5.126-2.828l1.374 1.372 1.372 1.374c-1.417 1.88-2.365 3.6-2.828 5.128-.793 2.63-3.152 6.02-6.826 9.835-.27.286-.546.563-.825.842l-4.034-4.04-4.034-4.034c.277-.277.555-.554.84-.825v.003zM8.001 35.97a.697.697 0 01-.932.054L4.015 32.97.984 29.938a.687.687 0 01.053-.933l.053-.052c.156-.203.386-.51.67-.888l3.58 3.579.008.009 3.602 3.602c-.29.231-.585.455-.887.67l-.062.047zm1.645-1.274L5.967 31.02l-.007-.009-3.649-3.65a81.949 81.949 0 015.334-6.058l4.027 4.027 4.027 4.026A79.236 79.236 0 019.646 34.7v-.002z" fill="#FB9B45"/></svg>