<svg width="41" height="41" fill="none" xmlns="http://www.w3.org/2000/svg"><path d="M22.483 31.838c.924-1.827 4.658-4.952 7.643-7.468 1.284-1.076 2.5-2.1 3.341-2.89 2.965-2.773 2.174-5.16 1.02-7.587-.325-.665-.39-1.207-.223-1.6.119-.255.327-.457.586-.568.694-.07.807-.703.846-1.02.143-.266 1.087-1.104 1.972-1.815.45.28 1.304.675 1.864.115a.855.855 0 00.258-.674 1.133 1.133 0 00-.124-.449c.427-.133.81-.462 1.13-.991.439-.734.17-1.716-.815-2.938-.43-.54-.91-1.037-1.433-1.485-.036-.034-.662-.78-1.485-1.45C35.849.042 34.859-.236 34.125.2c-.529.32-.869.695-1 1.123a1.132 1.132 0 00-.45-.126.893.893 0 00-.691.258c-.57.57-.164 1.416.116 1.866-.711.884-1.55 1.827-1.815 1.97-.318.04-.951.153-1.021.848a1.06 1.06 0 01-.56.594c-.4.177-.944.092-1.608-.214-1.132-.538-2.33-1.058-3.593-1.047-1.408.018-2.705.69-3.995 2.065-.789.842-1.813 2.058-2.89 3.342-2.508 2.994-5.64 6.719-7.477 7.65C6.213 20.017 1.553 23.983.6 25.544c-.874 1.519-.796 2.986.263 4.047l5.16 5.16.06.06 5.334 5.334c1.06 1.06 2.53 1.136 4.047.226 1.57-.927 5.534-5.586 7.02-8.531zm9.766-22.987c-.017-.017-1.5-1.399-2.007-2.667.053-.017.13-.024.233-.04.137-.016.523-.072 2.098-1.993.498.786 1.168 1.506 1.585 1.923.157.157.312.312.408.391.086.086.235.252.392.409.415.415 1.128 1.077 1.923 1.585-1.922 1.575-1.978 1.96-1.992 2.098-.01.08-.026.16-.05.239-1.269-.522-2.573-1.928-2.59-1.945zM34.57.936c.785-.473 2.675 1.181 3.425 2.065l-.009.009c.885.748 2.563 2.648 2.091 3.432-.219.376-.473.596-.713.645a.55.55 0 01-.207-.003l.009-.026c-.793-.215-2.365-1.684-2.928-2.248l-.017-.017-.017-.018c-.574-.556-2.036-2.118-2.25-2.927l-.026.008a.829.829 0 01-.002-.206c.057-.248.278-.487.645-.714h-.001zm-1.96 1.145c.024-.026.024-.026.043-.026.18.012.517.298.674.506.51 1.003 1.666 2.209 2.092 2.634l.2.2.2.202c.426.424 1.632 1.58 2.634 2.09.225.191.495.53.497.683 0 .017 0 .017-.017.034-.127.129-.662-.102-1.026-.381l-.337-.15c-1.063-.604-2.132-1.707-2.393-1.984l-.035-.036-.034-.034c-.278-.261-1.39-1.339-1.993-2.4l.008-.01-.168-.319c-.217-.304-.49-.864-.345-1.009zm-17.594 37.57c-.682.405-1.963.94-2.997-.094l-5.343-5.34-.06-.061-5.16-5.16C.423 27.964.959 26.682 1.363 26c1.003-1.663 5.895-5.53 8.2-6.707 1.981-1.007 5.038-4.638 7.733-7.854 1.068-1.276 2.075-2.474 2.856-3.306 2.4-2.557 4.254-1.96 6.602-.834.907.43 1.68.508 2.321.232a1.92 1.92 0 00.647-.473c.509.916 1.282 1.74 1.657 2.114l.269.27.2.2c.372.373 1.197 1.146 2.122 1.646-.202.18-.364.4-.473.647-.277.64-.2 1.414.232 2.322 1.118 2.356 1.723 4.2-.843 6.61-.832.78-2.032 1.788-3.308 2.855-3.214 2.695-6.846 5.751-7.845 7.725-1.184 2.311-5.045 7.197-6.716 8.207v-.001z" fill="#FB9B45"/></svg>