<svg width="37" height="37" fill="none" xmlns="http://www.w3.org/2000/svg"><path d="M21.704 22.002c-.304-1.302.539-2.649.954-3.3l.18-.292c.271-.49 3.638-4.11 9.995-10.766.462-.479.799-.832.963-1.01a1.35 1.35 0 00.668-.402l2.248-2.312c.32-.334.376-.8.155-1.13l-1.32-1.357L34.254.176l-.04-.04c-.32-.23-.796-.163-1.13.154l-2.321 2.276a1.6 1.6 0 00-.401.669c-.338.313-.671.631-1 .953-6.657 6.36-10.277 9.727-10.766 9.996l-.291.18c-.65.4-2.006 1.252-3.298.955-2.726-.644-5.15.207-7.198 2.522-2.42 2.72-7.225 8.832-7.493 9.18-.311.358-1.305 2.06 3.142 6.509 4.455 4.456 6.182 3.467 6.54 3.157.348-.27 6.457-5.074 9.178-7.494 2.306-2.04 3.156-4.466 2.53-7.191h-.002zM31.17 3.355a.512.512 0 01.134-.228l2.33-2.268a.055.055 0 01.026-.01l1.262 1.225 1.234 1.27c.007.008-.002.017-.01.026l-2.27 2.33a.512.512 0 01-.226.134.73.73 0 00-.413.24c-.145.145-.498.514-.99 1.037-1.95 2.04-3.89 4.086-5.823 6.14l-1.338-1.337-.01-.008-1.321-1.324c2.054-1.933 4.1-3.874 6.14-5.824.513-.5.893-.847 1.036-.99a.731.731 0 00.239-.413zM18.668 28.613c-2.773 2.459-9.078 7.41-9.15 7.468l.002-.018-.028.026c-.157.08-1.647.579-5.409-3.184-3.865-3.866-3.218-5.3-3.17-5.396l.02-.018c.045-.063 5.006-6.378 7.464-9.151 1.827-2.049 3.899-2.782 6.31-2.217 1.64.373 3.268-.641 3.962-1.069a1.81 1.81 0 01.238-.142c.35-.193 1.668-1.354 4.19-3.719l1.339 1.338.007.008 1.361 1.361c-2.355 2.514-3.516 3.834-3.708 4.184-.042.082-.09.161-.143.237-.428.695-1.45 2.332-1.069 3.965.556 2.437-.17 4.5-2.216 6.326v.001zm-3.745-.994l-2.77-2.77-2.77-2.772c-.024-.024-.717-.718-1.642-.484-.66.173-1.222.75-1.676 1.71-.562 1.175-.624 2.543-.174 3.935.366 1.145.987 2.035 1.405 2.454l-.01.009c.417.417 1.323 1.053 2.468 1.42 1.39.45 2.761.388 3.937-.174.957-.454 1.535-1.016 1.707-1.677.242-.935-.443-1.619-.475-1.651zm-1.492 2.562c-2.21 1.047-4.706-.345-5.494-1.132l.01-.008c-.787-.788-2.164-3.269-1.118-5.481.226-.463.571-1.041 1.025-1.166.471-.125.906.29.913.298l2.756 2.755 2.785 2.787c.008.009.416.435.29.908-.124.471-.697.823-1.167 1.04z" fill="#FB9B45"/></svg>