<svg width="36" height="36" fill="none" xmlns="http://www.w3.org/2000/svg"><path d="M15.41 28.745c2.444-2.583 3.298-4.442 3.365-4.604 1.85-3.875 6.773-9.865 7.74-11.021a.946.946 0 01.132-.116l.078-.047c.207-.119.397-.266.563-.438l5.777-6.205a.678.678 0 00.202-.421l1.444-1.445a.38.38 0 01.24-.115l.168-.012.606-.606c.332-.329.372-.84.073-1.14L34.593 1.37l-.009-.009L33.424.2c-.288-.288-.8-.265-1.139.072L31.68.88l-.01.167a.404.404 0 01-.115.241L30.12 2.724a.865.865 0 00-.423.202l-6.202 5.782a2.647 2.647 0 00-.452.563l-.055.087a.46.46 0 01-.117.132c-1.154.967-7.15 5.885-11.015 7.744-.162.069-2.027.932-4.603 3.366-.505.476-.981.981-1.422 1.501L.464 28.346c-.172.2-.303.433-.385.684-.164.495-.072 1 .266 1.335l2.617 2.62 2.689 2.672c.329.329.84.43 1.334.265.248-.09.48-.215.684-.386l6.24-5.367c.53-.452 1.029-.934 1.502-1.423v-.001zM32.48 1.18l.337-.338 1.145 1.145.008.007 1.207 1.208-.34.339a1.387 1.387 0 00-.665.368l-1.783 1.783.058.163-1.192 1.27-1.182-1.183-1.184-1.183 1.26-1.184.163.057 1.783-1.784a1.3 1.3 0 00.385-.668zm-4.232 4.186l1.207 1.208 1.208 1.208-3.727 3.994-1.386-1.388-.016-.014-1.278-1.279 3.992-3.729zm-4.866 4.745c.115-.101.222-.224.306-.354l1.223 1.223.014.015 1.326 1.325c-.13.084-.245.183-.345.299a105.8 105.8 0 00-4.73 6.144l-1.984-1.982-.024-.025-1.911-1.912a109.35 109.35 0 006.125-4.733zm-6.86 5.247l2.03 2.03.024.025 2.1 2.1c-.856 1.249-1.673 2.52-2.27 3.652l-2.798-2.8-.03-.032-2.711-2.713c1.13-.597 2.4-1.396 3.656-2.262zm-3.107 14.21l-6.241 5.366a1.04 1.04 0 01-.364.206.506.506 0 01-.535-.107l-2.684-2.666-2.609-2.612a.491.491 0 01-.1-.527 1.04 1.04 0 01.208-.364l5.364-6.245c.424-.502.88-.974 1.35-1.428 2.15-2.042 3.8-2.924 4.213-3.135l2.916 2.917.03.031L17.959 24c-.221.439-1.1 2.072-3.131 4.214-.44.472-.91.928-1.414 1.352l.002.001z" fill="#FB9B45"/></svg>