<svg width="39" height="39" fill="none" xmlns="http://www.w3.org/2000/svg"><path d="M30.652 15.514a.618.618 0 01.07-.553c.445-.654.46-1.28.025-1.715-.114-.113-.117-.205-.115-.273.014-.255.29-.564.388-.645l2.611-2.61c.187-.186.389-.34.622-.461.443-.233.846-.54 1.194-.904l2.975-2.973c.826-.826.593-1.591.354-1.885l-1.61-1.626-1.62-1.621-.024-.024c-.292-.24-1.058-.472-1.884.353L30.645 3.57a5.16 5.16 0 00-.904 1.21 2.43 2.43 0 01-.452.614l-2.595 2.593-.017.017c-.072.072-.381.365-.635.377-.069.004-.161 0-.273-.112-.436-.436-1.061-.422-1.717.024a.568.568 0 01-.553.07c-1.393-.54-5.08-1.316-9.149 3.09-4.705 5.154-13.24 14.38-13.313 14.47A4.541 4.541 0 00.31 26.97c-.422.856-.41 1.65.024 2.279.827 1.234 3.358 4.244 4.268 5.172l.031.032.034.031c.926.91 3.857 3.36 5.091 4.187.648.431 1.433.436 2.282.023.604-.3 1.03-.71 1.04-.72.088-.086 9.326-8.613 14.482-13.316 4.414-4.057 3.64-7.744 3.091-9.145zm-3.613 8.554c-5.155 4.704-14.384 13.236-14.49 13.326-.053.053-1.293 1.229-2.275.567-1.219-.827-4.14-3.269-5.02-4.129-.86-.877-3.383-3.88-4.211-5.099-.653-.972.514-2.22.567-2.273.09-.089 8.618-9.322 13.323-14.477 3.684-3.99 6.954-3.313 8.182-2.833a1.44 1.44 0 001.334-.174c.446-.302.599-.148.663-.083a1.1 1.1 0 00.88.328c.627-.048 1.144-.578 1.242-.676l2.602-2.603a3.45 3.45 0 00.616-.84c.2-.36.449-.692.741-.983l2.985-2.983c.417-.418.674-.302.748-.265l1.594 1.594 1.596 1.595c.03.05.17.313-.265.749L34.857 7.8a4.277 4.277 0 01-.974.73 3.544 3.544 0 00-.85.625l-2.585 2.584c-.097.098-.63.614-.677 1.242a1.094 1.094 0 00.321.87c.063.065.225.226-.083.662a1.417 1.417 0 00-.176 1.335c.512 1.276 1.198 4.536-2.792 8.219h-.002zm-2.302-2.675l-.756-.595a35.524 35.524 0 01-6.04-6.074l-.389-.495-.033-.033c-.41-.41-.984-.61-1.62-.554a2.85 2.85 0 00-1.864.961l-6.166 6.872c-.902.999-.978 2.413-.183 3.226l.025.024a36.803 36.803 0 003.097 3.54 35.212 35.212 0 003.572 3.129c.84.82 2.28.715 3.29-.23l6.713-6.324c.532-.499.869-1.174.91-1.844.048-.643-.152-1.2-.555-1.603h-.001zm-7.604 9.165c-.665.633-1.606.703-2.137.172l-.033-.033a35.16 35.16 0 01-6.557-6.537l-.032-.049-.031-.033c-.517-.515-.455-1.43.136-2.1l6.166-6.873c.32-.364.765-.597 1.248-.652a1.264 1.264 0 01.999.323l.374.48a35.76 35.76 0 006.167 6.2l.717.558c.241.241.36.59.332.972-.044.473-.26.914-.609 1.237l-6.74 6.335z" fill="#FB9B45"/></svg>