<svg width="36" height="36" fill="none" xmlns="http://www.w3.org/2000/svg"><path d="M8.6 34.503l17.076-17.07c1.85-1.85 2.6-4.02 2.516-5.236-.095-1.28.52-1.94.546-1.966l5.294-5.292c.208-.056.396-.168.545-.323l.637-.637a.768.768 0 00.213-.388l.374-.495c.614-.819-.36-1.917-.679-2.235a4.318 4.318 0 00-.684-.543c-.612-.38-1.13-.423-1.546-.11l-.494.373a.712.712 0 00-.388.213l-.638.636a1.19 1.19 0 00-.307.544L25.78 7.255c-.026.027-.686.643-1.967.546-1.234-.082-3.397.676-5.248 2.525L1.488 27.394c-.158.144-1.343 1.24-1.477 2.469-.06.577.121 1.078.528 1.484l.097.095L2.59 33.38l1.967 1.983.095.097c.416.414.915.595 1.486.527 1.222-.14 2.327-1.335 2.462-1.485v.002zM32.464 1.372a.783.783 0 00.303-.14l.536-.402c.122-.092.705.153 1.2.65.488.488.764 1.099.672 1.221l-.402.535a.782.782 0 00-.14.302l-.575.575a.22.22 0 01-.135.062.483.483 0 00-.295.146L28.68 9.266l-1.021-1.02-.06-.058-.86-.858 4.95-4.947a.468.468 0 00.139-.301.22.22 0 01.06-.135l.576-.575zm-8.853 7.236c1.299.095 2.15-.417 2.504-.683l.873.873.059.06 1.021 1.02c-.265.354-.768 1.197-.683 2.502.1 1.409-1.041 3.35-2.228 4.534l-1.142 1.141-3.04-3.039-3.034-3.033 1.142-1.141c1.179-1.176 3.11-2.325 4.53-2.234h-.002zm-.216 10.066L11.56 30.505l-3.04-3.039-3.035-3.033 11.836-11.83 3.034 3.033 3.042 3.038h-.002zM6.188 35.168c-.383.043-.71-.105-.994-.427l-.014-.014-1.968-1.984-1.957-1.935-.014-.014c-.321-.286-.46-.62-.428-.992.098-.913 1.15-1.844 1.158-1.854l.026-.026 2.87-2.867L7.9 28.09l3.04 3.039-2.87 2.866-.025.027c-.009.009-.94 1.06-1.86 1.15l.002-.003z" fill="#FB9B45"/></svg>