<svg width="35" height="35" fill="none" xmlns="http://www.w3.org/2000/svg"><path d="M31.377 3.797a3.117 3.117 0 00-.214-.002h-2.7v-2.32C28.464.549 27.579 0 26.65 0h-2.487c-.928 0-1.603.548-1.603 1.476v2.32H12.44v-2.32C12.44.548 11.765 0 10.837 0H8.35c-.927 0-1.813.548-1.813 1.476v2.32h-2.7A3.12 3.12 0 00.632 7.041v24.374C.632 33.27 1.982 35 3.837 35h27.326c1.855 0 3.204-1.729 3.204-3.584V7.042a3.12 3.12 0 00-2.99-3.245zm-7.214-2.11h2.614v4.638h-2.614V1.687zm-15.814 0h2.404v4.638H8.35V1.687zm24.332 29.729c0 .927-.59 1.897-1.518 1.897H3.837c-.927 0-1.518-.97-1.518-1.897V13.494h30.362v17.922zm0-24.374v4.765H2.319V7.042a1.434 1.434 0 011.518-1.56h2.7v.928c0 .927.885 1.602 1.812 1.602h2.488A1.56 1.56 0 0012.44 6.41v-.928h10.12v.928a1.56 1.56 0 001.603 1.602h2.488c.927 0 1.813-.675 1.813-1.602v-.928h2.699a1.434 1.434 0 011.518 1.56z" fill="#C33E6B"/></svg>