<svg width="177" height="35" fill="none" xmlns="http://www.w3.org/2000/svg"><path stroke="#A1A1A1" stroke-width="2" d="M177 34H0"/><path d="M26.74 17.514c-.3.252-.678.432-1.134.54a6.23 6.23 0 01-1.44.162c-.636 0-1.224-.12-1.764-.36s-1.008-.618-1.404-1.134c-.384-.528-.684-1.206-.9-2.034-.216-.828-.324-1.824-.324-2.988 0-1.2.12-2.214.36-3.042.252-.828.582-1.5.99-2.016.408-.516.876-.888 1.404-1.116a4.22 4.22 0 011.656-.342c.576 0 1.05.042 1.422.126.384.084.714.186.99.306l-.324 1.224a3.183 3.183 0 00-.846-.306 5.176 5.176 0 00-1.116-.108c-.42 0-.816.096-1.188.288-.372.18-.702.48-.99.9-.288.408-.516.948-.684 1.62-.168.672-.252 1.494-.252 2.466 0 1.752.3 3.072.9 3.96.6.876 1.398 1.314 2.394 1.314.408 0 .774-.054 1.098-.162.324-.12.6-.258.828-.414l.324 1.116zm6.438-.126c-.288.264-.654.468-1.098.612a4.523 4.523 0 01-1.404.216c-.564 0-1.056-.108-1.476-.324a2.992 2.992 0 01-1.026-.954 4.803 4.803 0 01-.594-1.494 9.57 9.57 0 01-.18-1.944c0-1.536.282-2.706.846-3.51.564-.804 1.362-1.206 2.394-1.206.336 0 .666.042.99.126.336.084.636.252.9.504s.474.606.63 1.062c.168.456.252 1.05.252 1.782 0 .204-.012.426-.036.666-.012.228-.03.468-.054.72H28.75c0 .516.042.984.126 1.404.084.42.216.78.396 1.08.18.288.408.516.684.684.288.156.642.234 1.062.234.324 0 .642-.06.954-.18.324-.12.57-.264.738-.432l.468.954zm-1.008-4.824c.024-.9-.102-1.56-.378-1.98-.276-.42-.654-.63-1.134-.63-.552 0-.99.21-1.314.63-.324.42-.516 1.08-.576 1.98h3.402zm6.687-2.394h-1.962c-.036 1.02-.084 2.01-.144 2.97a17.49 17.49 0 01-.324 2.52c-.144.732-.354 1.32-.63 1.764-.276.432-.642.648-1.098.648-.204 0-.378-.012-.522-.036a1.392 1.392 0 01-.396-.126l.198-1.134c.252.072.474.06.666-.036.204-.108.378-.42.522-.936.144-.528.258-1.326.342-2.394.096-1.08.162-2.55.198-4.41h4.446v9h-1.296v-7.83zm8.806 7.218c-.288.264-.654.468-1.098.612a4.523 4.523 0 01-1.404.216c-.564 0-1.056-.108-1.476-.324a2.992 2.992 0 01-1.026-.954 4.803 4.803 0 01-.594-1.494 9.57 9.57 0 01-.18-1.944c0-1.536.282-2.706.846-3.51.564-.804 1.362-1.206 2.394-1.206.336 0 .666.042.99.126.336.084.636.252.9.504s.474.606.63 1.062c.168.456.252 1.05.252 1.782 0 .204-.012.426-.036.666-.012.228-.03.468-.054.72h-4.572c0 .516.042.984.126 1.404.084.42.216.78.396 1.08.18.288.408.516.684.684.288.156.642.234 1.062.234.324 0 .642-.06.954-.18.324-.12.57-.264.738-.432l.468.954zm-1.008-4.824c.024-.9-.102-1.56-.378-1.98-.276-.42-.654-.63-1.134-.63-.552 0-.99.21-1.314.63-.324.42-.516 1.08-.576 1.98h3.402zm5.023 1.386h-.666V18h-1.296V9h1.296v4.068l.612-.252L53.82 9h1.386l-2.142 3.618-.63.594.774.72L55.512 18h-1.548l-2.286-4.05zm9.68-3.78h-2.215V18h-1.296v-7.83h-2.214V9h5.724v1.17zM160.773 6l4.619 6.222h-9.237L160.773 6zm0 16l-4.618-6.222h9.237L160.773 22z" fill="#fff"/></svg>