<svg width="176" height="45" fill="none" xmlns="http://www.w3.org/2000/svg"><path fill="#fff" stroke="#BE2258" d="M.5.5h175v44H.5z"/><path d="M67.973 23.168h-.648V29h-1.35V16.4h1.35v5.868l.63-.252 3.276-5.616h1.548l-3.294 5.436-.63.576.738.72L73.247 29h-1.71l-3.564-5.832zm11.2 1.818h-3.115V29h-1.296v-9h1.296v3.816h3.114V20h1.296v9h-1.296v-4.014zm2.998-.486c0-1.62.276-2.808.828-3.564.564-.768 1.362-1.152 2.394-1.152 1.104 0 1.914.39 2.43 1.17.528.78.792 1.962.792 3.546 0 1.632-.282 2.826-.846 3.582-.564.756-1.356 1.134-2.376 1.134-1.104 0-1.92-.39-2.448-1.17-.516-.78-.774-1.962-.774-3.546zm1.35 0c0 .528.03 1.008.09 1.44.072.432.18.804.324 1.116.156.312.354.558.594.738.24.168.528.252.864.252.624 0 1.092-.276 1.404-.828.312-.564.468-1.47.468-2.718 0-.516-.036-.99-.108-1.422a3.616 3.616 0 00-.324-1.134 1.746 1.746 0 00-.576-.72c-.24-.18-.528-.27-.864-.27-.612 0-1.08.282-1.404.846-.312.564-.468 1.464-.468 2.7zm11.135-3.33h-3.024V29h-1.296v-9h5.616v9h-1.296v-7.83zm5.377 3.78h-.666V29H98.07v-9h1.296v4.068l.612-.252L102.175 20h1.386l-2.142 3.618-.63.594.774.72L103.867 29h-1.548l-2.286-4.05zm4.909-4.41a4.319 4.319 0 011.26-.504 6.818 6.818 0 011.584-.18c.504 0 .906.078 1.206.234.312.144.552.348.72.612.18.252.294.546.342.882.06.324.09.666.09 1.026 0 .72-.018 1.422-.054 2.106a55.565 55.565 0 00-.036 1.944c0 .456.012.882.036 1.278.036.384.096.75.18 1.098h-.99l-.306-1.062h-.072c-.18.312-.444.582-.792.81-.348.228-.816.342-1.404.342-.648 0-1.182-.222-1.602-.666-.408-.456-.612-1.08-.612-1.872 0-.516.084-.948.252-1.296.18-.348.426-.63.738-.846a3.08 3.08 0 011.134-.45 6.997 6.997 0 011.476-.144h.36c.12 0 .246.006.378.018.036-.372.054-.702.054-.99 0-.684-.102-1.164-.306-1.44-.204-.276-.576-.414-1.116-.414-.336 0-.702.054-1.098.162a3.63 3.63 0 00-.99.378l-.432-1.026zm3.906 4.356a3.616 3.616 0 00-.36-.018 3.616 3.616 0 00-.36-.018c-.288 0-.57.024-.846.072a2.33 2.33 0 00-.738.252 1.45 1.45 0 00-.522.486c-.12.204-.18.462-.18.774 0 .48.114.852.342 1.116.24.264.546.396.918.396.504 0 .894-.12 1.17-.36.276-.24.468-.504.576-.792v-1.908z" fill="#BE2258"/></svg>