<svg xmlns="http://www.w3.org/2000/svg" width="29.091" height="28.182"><path d="M27.14 7.194a14.432 14.432 0 00-5.293-5.257A14.3 14.3 0 0014.545 0a14.305 14.305 0 00-7.3 1.937 14.431 14.431 0 00-5.294 5.257A14.053 14.053 0 000 14.444a13.972 13.972 0 002.775 8.491 14.24 14.24 0 007.168 5.219.852.852 0 00.757-.131.733.733 0 00.246-.564l-.01-1.016q-.01-.96-.01-1.674l-.436.075a5.6 5.6 0 01-1.051.066 8.063 8.063 0 01-1.316-.132 2.951 2.951 0 01-1.269-.564 2.387 2.387 0 01-.833-1.156l-.189-.433a4.694 4.694 0 00-.6-.959 2.281 2.281 0 00-.824-.715l-.133-.094a1.387 1.387 0 01-.246-.226 1.031 1.031 0 01-.17-.263q-.057-.132.095-.217a1.236 1.236 0 01.549-.084l.379.056a2.773 2.773 0 01.938.451 3.044 3.044 0 01.918.978 3.323 3.323 0 001.051 1.176 2.24 2.24 0 001.24.4 5.422 5.422 0 001.08-.094 3.785 3.785 0 00.852-.282 3.039 3.039 0 01.928-1.937 13.051 13.051 0 01-1.941-.339 7.76 7.76 0 01-1.78-.734 5.09 5.09 0 01-1.525-1.26 6.04 6.04 0 01-.994-1.975 9.33 9.33 0 01-.388-2.821 5.464 5.464 0 011.5-3.874 5.023 5.023 0 01.133-3.832 2.671 2.671 0 011.629.254 11.424 11.424 0 011.581.724q.5.3.8.508a13.77 13.77 0 017.273 0l.72-.451a10.224 10.224 0 011.742-.828 2.5 2.5 0 011.535-.207 4.975 4.975 0 01.151 3.836 5.465 5.465 0 011.5 3.874 9.434 9.434 0 01-.388 2.83 5.805 5.805 0 01-1 1.975 5.287 5.287 0 01-1.537 1.252 7.774 7.774 0 01-1.78.734 13.037 13.037 0 01-1.941.339 3.337 3.337 0 01.985 2.67v3.968a.747.747 0 00.237.564.827.827 0 00.748.131 14.238 14.238 0 007.169-5.219 13.975 13.975 0 002.774-8.491 14.065 14.065 0 00-1.952-7.249z" fill="#E5E5E5"/></svg>