<svg xmlns="http://www.w3.org/2000/svg" width="29.091" height="29.091"><g fill="#E5E5E5"><path d="M14.545 17.458a2.907 2.907 0 10-2.911-2.913 2.917 2.917 0 002.911 2.913z"/><path data-name="Path" d="M20.899 10.979v-2.8h-.36l-2.44.009.009 2.8z"/><path d="M14.546 29.091a14.545 14.545 0 1114.545-14.545 14.562 14.562 0 01-14.545 14.545zM9.471 6.274a3.2 3.2 0 00-3.2 3.2v10.15a3.2 3.2 0 003.2 3.2h10.15a3.2 3.2 0 003.2-3.2V9.471a3.2 3.2 0 00-3.2-3.2z"/><path data-name="Path" d="M19.07 14.548a4.525 4.525 0 11-8.716-1.7h-2.47v6.773a1.585 1.585 0 001.585 1.584h10.15a1.586 1.586 0 001.585-1.584v-6.773h-2.47a4.463 4.463 0 01.336 1.7z"/></g></svg>