<svg width="156" height="137" fill="none" xmlns="http://www.w3.org/2000/svg"><path d="M35 105.573V81c0-31.48 25.52-57 57-57h40.259" stroke="#fff" stroke-opacity=".4" stroke-dasharray="2 5"/><rect x="93.5" y="82.5" width="42" height="44" rx="16.5" fill="#000" stroke="#717171"/><path d="M107.201 104.209c0 1.269-.217 2.213-.65 2.83-.434.617-1.112.925-2.033.925-.911 0-1.584-.3-2.022-.902-.437-.605-.664-1.508-.68-2.707v-1.447c0-1.254.217-2.186.651-2.795.433-.61 1.113-.914 2.039-.914.918 0 1.594.295 2.027.885.434.586.656 1.492.668 2.718v1.407zm-1.084-1.483c0-.918-.129-1.586-.387-2.004-.257-.422-.666-.633-1.224-.633-.555 0-.959.209-1.213.627-.254.418-.385 1.061-.393 1.928v1.735c0 .921.133 1.603.399 2.044.269.438.676.657 1.219.657.535 0 .931-.207 1.189-.621.262-.414.398-1.067.41-1.957v-1.776zm2.608 4.553c0-.188.054-.344.164-.469.113-.125.281-.187.504-.187.222 0 .39.062.503.187a.655.655 0 01.176.469.62.62 0 01-.176.451c-.113.121-.281.182-.503.182-.223 0-.391-.061-.504-.182a.644.644 0 01-.164-.451zm8.537-7.354l-3.533 7.922h-1.137l3.521-7.64h-4.617v-.891h5.766v.61zm1.728 3.645l.434-4.254h4.371v1.002h-3.451l-.258 2.326a2.755 2.755 0 011.424-.369c.777 0 1.394.258 1.851.773.457.512.686 1.206.686 2.081 0 .878-.238 1.572-.715 2.08-.473.504-1.135.755-1.986.755-.754 0-1.369-.209-1.846-.626-.477-.418-.748-.997-.814-1.735h1.025c.066.488.24.858.521 1.108.282.246.653.369 1.114.369.504 0 .898-.172 1.183-.516.289-.344.434-.818.434-1.424 0-.57-.156-1.027-.469-1.371-.308-.347-.721-.521-1.236-.521-.473 0-.844.103-1.113.31l-.288.235-.867-.223z" fill="#fff"/></svg>