<svg width="156" height="137" fill="none" xmlns="http://www.w3.org/2000/svg"><path d="M117.652 106V85c0-31.48-25.52-57-57-57H16" stroke="#fff" stroke-opacity=".4" stroke-dasharray="2 5"/><rect x="16.5" y="86.5" width="42.277" height="42" rx="16.5" fill="#000" stroke="#717171"/><path d="M33.59 112H32.5v-7.225l-2.186.803v-.984l3.106-1.166h.17V112zm3.31-.568c0-.188.055-.344.165-.469.113-.125.28-.188.503-.188.223 0 .391.063.504.188a.658.658 0 01.176.469.62.62 0 01-.176.451c-.113.121-.28.181-.504.181-.222 0-.39-.06-.503-.181a.649.649 0 01-.165-.451zm3.528-3.709l.433-4.254h4.372v1.002H41.78l-.258 2.326a2.754 2.754 0 011.424-.369c.778 0 1.395.258 1.852.773.457.512.685 1.205.685 2.08 0 .879-.238 1.573-.714 2.08-.473.504-1.135.756-1.987.756-.754 0-1.369-.209-1.846-.627-.476-.418-.747-.996-.814-1.734h1.026c.066.488.24.857.521 1.107.281.246.652.369 1.113.369.504 0 .899-.171 1.184-.515.289-.344.433-.819.433-1.424 0-.57-.156-1.027-.468-1.371-.309-.348-.721-.522-1.237-.522-.472 0-.843.104-1.113.311l-.287.234-.867-.222z" fill="#fff"/></svg>