<svg width="156" height="137" fill="none" xmlns="http://www.w3.org/2000/svg"><path d="M117 30v21c0 31.48-25.52 57-57 57H16" stroke="#fff" stroke-opacity=".4" stroke-dasharray="2 5"/><rect x="16.5" y="7.5" width="42" height="42" rx="16.5" fill="#000" stroke="#717171"/><path d="M28.295 33h-1.09v-7.225l-2.185.803v-.984l3.105-1.166h.17V33zm7.33-3.75c-.227.27-.498.486-.815.65a2.184 2.184 0 01-1.03.247c-.493 0-.923-.122-1.29-.364a2.372 2.372 0 01-.844-1.02 3.506 3.506 0 01-.298-1.458c0-.57.107-1.084.322-1.541.219-.457.527-.807.926-1.05.398-.241.863-.362 1.394-.362.844 0 1.508.316 1.992.949.489.629.733 1.488.733 2.578v.316c0 1.66-.328 2.873-.985 3.639-.656.762-1.646 1.152-2.97 1.172h-.211v-.914h.228c.895-.016 1.582-.248 2.063-.697.48-.454.742-1.168.785-2.145zm-1.67 0a1.66 1.66 0 001.002-.334c.309-.223.533-.498.674-.826v-.434c0-.71-.154-1.289-.463-1.734-.309-.445-.7-.668-1.172-.668-.477 0-.86.183-1.148.55-.29.364-.434.844-.434 1.442 0 .582.139 1.063.416 1.442.281.375.656.562 1.125.562zm9.428-2.555c0 .426-.114.805-.34 1.137a2.27 2.27 0 01-.908.78c.445.19.797.47 1.055.837.261.367.392.783.392 1.248 0 .739-.25 1.326-.75 1.764-.496.437-1.15.656-1.963.656-.82 0-1.478-.219-1.974-.656-.493-.441-.739-1.03-.739-1.764 0-.46.125-.877.375-1.248a2.372 2.372 0 011.05-.844 2.236 2.236 0 01-.897-.779 2.01 2.01 0 01-.328-1.13c0-.72.23-1.29.69-1.712.462-.422 1.07-.632 1.823-.632.75 0 1.356.21 1.816.632.465.422.698.993.698 1.711zm-.885 3.979c0-.477-.152-.865-.457-1.166-.3-.301-.695-.451-1.184-.451-.488 0-.88.148-1.177.445-.293.297-.44.688-.44 1.172s.143.865.428 1.142c.289.278.69.416 1.201.416.508 0 .906-.138 1.196-.416.288-.28.433-.662.433-1.142zm-1.629-5.432c-.426 0-.771.133-1.037.399-.262.261-.392.619-.392 1.072 0 .433.128.785.386 1.055.262.265.61.398 1.043.398.434 0 .78-.133 1.037-.398.262-.27.393-.622.393-1.055 0-.434-.135-.787-.404-1.06-.27-.274-.612-.41-1.026-.41zm9.586-.164L46.922 33h-1.137l3.522-7.64H44.69v-.891h5.765v.61z" fill="#fff"/></svg>