<svg width="156" height="137" fill="none" xmlns="http://www.w3.org/2000/svg"><path d="M35 30v21c0 31.48 25.52 57 57 57h44" stroke="#fff" stroke-opacity=".4" stroke-dasharray="2 5"/><rect x="93.5" y="7.5" width="42" height="42" rx="16.5" fill="#000" stroke="#717171"/><path d="M105.295 33h-1.09v-7.225l-2.185.803v-.984l3.105-1.166h.17V33zm7.33-3.75a2.65 2.65 0 01-.814.65 2.188 2.188 0 01-1.032.247c-.492 0-.922-.122-1.289-.364a2.38 2.38 0 01-.844-1.02 3.51 3.51 0 01-.298-1.458c0-.57.107-1.084.322-1.541.219-.457.527-.807.926-1.05.398-.241.863-.362 1.394-.362.844 0 1.508.316 1.992.949.489.629.733 1.488.733 2.578v.316c0 1.66-.328 2.873-.985 3.639-.656.762-1.646 1.152-2.97 1.172h-.211v-.914h.228c.895-.016 1.582-.248 2.063-.697.48-.454.742-1.168.785-2.145zm-1.67 0a1.66 1.66 0 001.002-.334 1.96 1.96 0 00.674-.826v-.434c0-.71-.154-1.289-.463-1.734-.309-.445-.699-.668-1.172-.668a1.39 1.39 0 00-1.148.55c-.289.364-.434.844-.434 1.442 0 .582.139 1.063.416 1.442.281.375.656.562 1.125.562zm9.428-2.555c0 .426-.113.805-.34 1.137a2.27 2.27 0 01-.908.78c.445.19.797.47 1.054.837.262.367.393.783.393 1.248 0 .739-.25 1.326-.75 1.764-.496.437-1.15.656-1.963.656-.82 0-1.478-.219-1.974-.656-.493-.441-.739-1.03-.739-1.764 0-.46.125-.877.375-1.248a2.374 2.374 0 011.049-.844 2.23 2.23 0 01-.896-.779 2.008 2.008 0 01-.329-1.13c0-.72.231-1.29.692-1.712.461-.422 1.068-.632 1.822-.632.75 0 1.356.21 1.817.632.464.422.697.993.697 1.711zm-.885 3.979c0-.477-.152-.865-.457-1.166-.301-.301-.695-.451-1.184-.451-.488 0-.88.148-1.177.445-.293.297-.44.688-.44 1.172s.143.865.428 1.142c.289.278.689.416 1.201.416.508 0 .906-.138 1.195-.416.29-.28.434-.662.434-1.142zm-1.629-5.432c-.426 0-.771.133-1.037.399-.262.261-.393.619-.393 1.072 0 .433.129.785.387 1.055.262.265.61.398 1.043.398.434 0 .779-.133 1.037-.398.262-.27.393-.622.393-1.055 0-.434-.135-.787-.404-1.06-.27-.274-.612-.41-1.026-.41zm8.332-.78v.92h-.199c-.844.016-1.516.266-2.016.75-.5.485-.789 1.167-.867 2.046.449-.516 1.063-.774 1.84-.774.742 0 1.334.262 1.775.785.446.524.668 1.2.668 2.028 0 .879-.24 1.582-.72 2.11-.477.526-1.118.79-1.922.79-.817 0-1.479-.312-1.987-.937-.507-.63-.761-1.438-.761-2.426v-.416c0-1.57.334-2.77 1.002-3.598.672-.832 1.67-1.258 2.994-1.277h.193zm-1.424 3.845c-.371 0-.713.111-1.025.334a1.736 1.736 0 00-.65.838v.398c0 .703.158 1.27.474 1.7.317.429.711.644 1.184.644.488 0 .871-.18 1.148-.54.281-.359.422-.83.422-1.412 0-.585-.142-1.058-.428-1.417a1.35 1.35 0 00-1.125-.545z" fill="#fff"/></svg>