<svg xmlns="http://www.w3.org/2000/svg" width="28.182" height="28.182"><path d="M14.091 28.182A14.09 14.09 0 014.127 4.127a14.09 14.09 0 1119.927 19.927 14 14 0 01-9.963 4.128zm2.992-14.039a1.636 1.636 0 011.217.457 3.435 3.435 0 01.6 2.413v4.842a.513.513 0 00.512.512h2.545a.513.513 0 00.512-.512v-4.848a9.8 9.8 0 00-.506-3.719 3.488 3.488 0 00-3.546-2.144 3.488 3.488 0 00-3.285 1.546v-.867a.513.513 0 00-.512-.513h-2.46a.513.513 0 00-.512.513v10.03a.513.513 0 00.512.512h2.462a.513.513 0 00.512-.512v-5.378c.066-.701.376-2.332 1.95-2.332zM7.15 11.31a.558.558 0 00-.557.557v9.94a.558.558 0 00.557.557h2.371a.557.557 0 00.556-.557v-9.94a.557.557 0 00-.556-.557zm1.185-5.442a2.253 2.253 0 102.253 2.253 2.255 2.255 0 00-2.253-2.253z" fill="#E5E5E5"/></svg>