<svg width="184" height="49" fill="none" xmlns="http://www.w3.org/2000/svg"><g clip-path="url(#clip0)"><path fill-rule="evenodd" clip-rule="evenodd" d="M38.198.676c5.201 1.69 9.228 6.083 10.403 11.546H38.198V.676zm-22.65-.732h14.597V8.11H18.12c-2.852 0-5.313 1.69-6.487 4.112H.503C1.957 5.238 8.165-.056 15.548-.056zM48.88 20.389v13.179C48.88 42.072 42.001 49 33.556 49H15.548C7.047 49 .168 42.072.168 33.568v-13.18h10.738v13.18c0 3.999 3.243 7.265 7.214 7.265h12.808c3.97 0 7.214-3.266 7.214-7.265v-13.18H48.88zm-27.852-4.112h7.047c1.119 0 2.07.901 2.07 2.084v12.222a2.072 2.072 0 01-2.07 2.084H21.03a2.072 2.072 0 01-2.07-2.084V18.36c0-1.127.951-2.084 2.07-2.084zm133.554.056v8.054c0 6.308 2.517 8.223 7.774 8.223h3.58v-3.942h-3.021c-2.964 0-3.579-.394-3.579-4.224v-8.11h-4.754zm-7.606 12.335c-2.461 0-3.299-.226-3.523-2.478v-.057h6.655v-3.83h-6.599c.279-1.915 1.174-2.084 3.467-2.084h4.81v-3.942h-5.369c-5.257 0-7.774 1.69-7.774 8.054 0 6.364 2.573 8.28 7.774 8.28h5.369v-3.943h-4.81zM120.97 32.61V16.277h7.327c5.257 0 7.773 1.69 7.773 8.054 0 6.364-2.572 8.28-7.773 8.28h-7.327zm6.823-3.942c2.964 0 3.58-.394 3.58-4.224 0-3.886-.672-4.168-3.58-4.168H125.5v8.392h2.293zM184 24.275c0-6.59-2.852-8.336-8.054-8.336-5.257 0-8.053 1.746-8.053 8.336 0 6.702 2.796 8.673 8.053 8.673 5.258 0 8.054-1.971 8.054-8.673zm-4.754 0c0 4.168-.335 4.562-3.3 4.562-3.02 0-3.355-.395-3.299-4.562 0-3.886.279-4.224 3.299-4.224 2.965 0 3.3.338 3.3 4.224zM93.118 26.19c.224 2.252 1.063 2.478 3.524 2.478h4.81v3.942h-5.37c-5.2 0-7.773-1.915-7.773-8.279s2.517-8.054 7.774-8.054h5.369v3.942h-4.81c-2.293 0-3.188.17-3.468 2.084h6.6v3.83h-6.656v.057zm-20.413 6.42c-5.201 0-7.774-1.915-7.774-8.279v-7.998h4.754v8.11c0 3.774.615 4.225 3.468 4.225V16.333h4.418v12.335c2.908 0 3.523-.45 3.523-4.224v-8.11h4.754v8.053c0 6.365-2.517 8.28-7.774 8.28-1.734-.057-3.523-.057-5.369-.057zm35.961-12.503h3.803c.392 0 .671.225.671 1.183 0 1.013-.279 1.126-.671 1.126h-3.803v-2.31zm0 8.674v-2.76h3.803c.56 0 .951.281.951 1.408 0 1.07-.336 1.352-.839 1.352h-3.915zm5.761-4.675c2.908-.226 3.523-1.52 3.523-3.83 0-2.76-.839-3.943-4.083-3.943h-9.619V32.61h9.619c2.629 0 4.363-1.014 4.363-4.336-.056-2.648-.727-4-3.803-4.168zm9.228 14.305c.783 0 1.566.113 2.013.282l-.391 1.352-.224-.034a8.886 8.886 0 00-1.454-.135c-.839 0-.951.169-.951.394 0 .338.112.394 1.119.507 1.342.169 1.957.732 1.957 1.859 0 1.577-.727 2.027-2.685 2.027-.783 0-1.51-.112-2.013-.281l.336-1.408c.06.008.126.018.197.03.386.058.913.139 1.48.139.839 0 .951-.113.951-.395 0-.281-.112-.394-1.23-.507-1.231-.169-1.79-.563-1.79-1.69 0-1.52.783-2.14 2.685-2.14zm8.501 1.578v4.562h-1.622v-4.563h-1.958v-1.464h5.537v1.465h-1.957zm10.234-1.408h-1.622v4.055c0 .338-.223.506-.95.506s-.951-.168-.951-.506V38.58h-1.622v4.45c0 1.352 1.007 1.69 2.573 1.69 1.51 0 2.572-.395 2.572-1.69v-4.45zm3.468 5.97v-5.97h2.684c1.902 0 2.852.619 2.852 2.928 0 2.366-.95 3.042-2.852 3.042h-2.684zm2.46-1.409c1.119 0 1.343-.168 1.343-1.577 0-1.464-.224-1.576-1.343-1.576h-.838v3.154h.838zm7.942 1.409v-5.97h-1.622v5.97h1.622zm9.676-3.098c0-2.422-1.063-3.042-2.965-3.042-1.957 0-2.964.62-2.964 3.042 0 2.478 1.063 3.21 2.964 3.21 1.958 0 2.965-.732 2.965-3.21zm-1.734 0c0 1.52-.112 1.69-1.231 1.69-1.118 0-1.23-.113-1.23-1.69 0-1.465.112-1.577 1.23-1.577 1.119 0 1.231.169 1.231 1.577z" fill="#fff"/></g><defs><clipPath id="clip0"><path fill="#fff" d="M0 0h184v49H0z"/></clipPath></defs></svg>