<svg width="36" height="36" fill="none" xmlns="http://www.w3.org/2000/svg"><path d="M15.422 26.102a1.055 1.055 0 100 2.11h7.475v1.055a1.055 1.055 0 002.11 0V12.2a1.055 1.055 0 00-2.11 0v1.055h-7.475a1.055 1.055 0 100 2.11h7.475v2.173h-3.21a1.055 1.055 0 100 2.11h3.21v2.172h-3.21a1.055 1.055 0 000 2.11h3.21v2.172h-7.475z" fill="#C33E6B"/><path d="M31.015 0a3.835 3.835 0 00-3.668 2.742H2.32a1.054 1.054 0 00-.767 1.778l5.433 5.763v20.38c0 2.943 2.386 5.337 5.32 5.337h11.671c2.933 0 5.32-2.394 5.32-5.337V3.838c0-.953.77-1.729 1.718-1.729.947 0 1.717.776 1.717 1.73V17.91a1.055 1.055 0 002.11 0V3.838A3.837 3.837 0 0031.015 0zm-3.827 30.663c0 1.78-1.44 3.228-3.21 3.228H12.304c-1.77 0-3.21-1.448-3.21-3.228V9.864c0-.269-.103-.528-.287-.724L4.764 4.852h22.424v25.811z" fill="#C33E6B"/></svg>