<svg xmlns="http://www.w3.org/2000/svg" width="16.974" height="16.963"><path d="M.008 13.387a.82.82 0 00.252.719l2.39 2.372a1.345 1.345 0 00.422.305 1.745 1.745 0 00.512.162q.018 0 .108.009t.234.009a8.284 8.284 0 001.105-.117 8.393 8.393 0 001.869-.575A15.686 15.686 0 009.406 14.9a18.689 18.689 0 002.983-2.516 19.69 19.69 0 002.085-2.375 16.9 16.9 0 001.33-2.093 11.275 11.275 0 00.754-1.744 9.247 9.247 0 00.341-1.347 4.451 4.451 0 00.075-.89q-.018-.323-.018-.359a1.747 1.747 0 00-.162-.512 1.347 1.347 0 00-.305-.422L14.096.252A.791.791 0 0013.521 0a.67.67 0 00-.413.135 1.249 1.249 0 00-.305.332L10.88 4.115a.874.874 0 00-.09.629 1.12 1.12 0 00.305.575l.879.881a.3.3 0 01.063.117.443.443 0 01.027.135 3.245 3.245 0 01-.323.863 7.918 7.918 0 01-.667 1.05 11.671 11.671 0 01-1.273 1.428 11.9 11.9 0 01-1.437 1.285 8.3 8.3 0 01-1.051.674 2.794 2.794 0 01-.647.26l-.225.045a.428.428 0 01-.117-.027.3.3 0 01-.117-.063l-1.024-1.042a1.1 1.1 0 00-.755-.287.939.939 0 00-.485.108h-.018L.457 12.794a.9.9 0 00-.449.593z" fill="#7f7f7f"/></svg>