<svg width="160" height="49" fill="none" xmlns="http://www.w3.org/2000/svg"><path d="M137.504 14.928h1.808V7.136l.144-.944-.544.768-1.344 1.088-.608-.72 2.912-2.72h.592v10.32h1.744V16h-4.704v-1.072zm6.627-1.52c0-.715.144-1.323.432-1.824.299-.501.736-.955 1.312-1.36a9.53 9.53 0 01-.608-.496 3.194 3.194 0 01-.816-1.36 3.693 3.693 0 01-.112-.96c0-.864.224-1.547.672-2.048.459-.501 1.083-.752 1.872-.752.736 0 1.317.23 1.744.688.437.448.656 1.067.656 1.856 0 .608-.117 1.147-.352 1.616-.235.47-.603.928-1.104 1.376.224.16.437.336.64.528s.379.41.528.656c.16.235.283.507.368.816.085.299.128.645.128 1.04 0 .907-.245 1.637-.736 2.192-.48.544-1.152.816-2.016.816-.416 0-.784-.07-1.104-.208a2.36 2.36 0 01-1.328-1.456 3.434 3.434 0 01-.176-1.12zm2.496-2.736c-.491.363-.848.768-1.072 1.216-.213.448-.32.896-.32 1.344 0 .544.133 1.003.4 1.376.267.363.656.544 1.168.544.416 0 .773-.15 1.072-.448.309-.31.464-.795.464-1.456 0-.33-.048-.624-.144-.88a2.302 2.302 0 00-.384-.672 3.267 3.267 0 00-.544-.544 7.184 7.184 0 00-.64-.48zm.432-.944c.363-.363.64-.725.832-1.088.192-.373.288-.784.288-1.232 0-.587-.133-1.024-.4-1.312-.256-.299-.56-.448-.912-.448a1.278 1.278 0 00-1.04.512c-.117.16-.208.347-.272.56a2.167 2.167 0 00-.096.656c0 .288.043.55.128.784.085.224.203.432.352.624.149.181.32.352.512.512.192.15.395.293.608.432zm3.907.304h2.208V7.536h1.088v2.496h2.208v1.072h-2.208V13.6h-1.088v-2.496h-2.208v-1.072z" fill="#fff"/><path d="M38.033 38.93V24.857c0-4.544 2.964-7.623 7.484-7.623S53 20.312 53 24.857v14c0 .587-.297.88-.89.88h-4.37c-.592 0-.889-.294-.889-.88V24.491c0-.953-.518-1.467-1.333-1.467s-1.334.587-1.334 1.467v14.44c0 .586-.297.879-.89.879h-4.37c-.594 0-.89-.367-.89-.88zm17.708-6.23v-8.063c.149-4.47 3.113-7.33 7.558-7.33 4.298-.073 7.631 2.859 7.631 7.33 0 4.178-3.037 6.963-7.483 6.963h-1.482v1.54c0 .952.445 1.466 1.26 1.466.593 0 1.038-.366 1.26-.953.148-.586.37-.806.963-.806h4.371c.593 0 .89.293.815.879-.37 4.032-3.26 6.67-7.483 6.67-4.446-.073-7.41-3.151-7.41-7.696zm7.706-6.45c.816 0 1.26-.513 1.26-1.467 0-1.245-.519-1.759-1.408-1.759-.89 0-1.407.587-1.407 1.467v1.758h1.556-.001z" fill="#FF6C4D"/><path d="M72.783 30.94c0-.586.297-.952.815-.952h4.742c.519 0 .815.293.889.88.075 2.345.741 3.371 1.927 3.371 1.037 0 1.556-.733 1.556-1.833 0-5.57-9.706-8.429-9.706-16.565 0-4.69 3.185-7.403 7.705-7.403 4.89 0 7.928 3.3 8.076 8.943 0 .586-.296.953-.815.953H83.23c-.518 0-.889-.293-.889-.953-.074-2.053-.593-2.933-1.482-2.933-.815 0-1.407.44-1.407 1.393 0 4.838 9.78 7.77 9.78 16.566 0 4.911-3.335 7.843-8.299 7.843-4.964.073-8.002-3.445-8.15-9.31zm19.042 7.99V9.904c0-.586.297-.88.89-.88h4.371c.593 0 .889.294.889.88v7.843c.741-.293 1.408-.44 2.074-.44 4.002 0 6.817 3.006 6.817 7.623v14c0 .587-.297.88-.889.88h-4.372c-.592 0-.888-.293-.888-.88V24.49c0-.952-.519-1.466-1.334-1.466-.815 0-1.334.587-1.334 1.467v14.44c0 .586-.297.88-.89.88h-4.371c-.666 0-.963-.367-.963-.88zm42.382-14.073V32.7c0 4.545-3.038 7.623-6.52 7.623-.815 0-1.705-.146-2.519-.586v7.99c0 .586-.297.878-.891.878h-4.371c-.593 0-.889-.292-.889-.879V24.857c0-4.544 3.038-7.623 7.632-7.623 4.52 0 7.558 3.078 7.558 7.623zm-6.15-.366c0-.953-.519-1.467-1.408-1.467-.889 0-1.408.587-1.408 1.467v8.649c0 .952.519 1.466 1.408 1.466.889 0 1.408-.587 1.408-1.466v-8.65z" fill="#333"/><path d="M24.81 9.086h-4.66c-.591 0-.887.294-.887.882v20.374c0 1.103-.444 1.765-1.258 1.84h-.443c-.814-.075-1.258-.737-1.258-1.913V9.968c0-.588-.295-.883-.888-.883H10.83c-.591 0-.887.295-.887.883V30.34c0 1.104-.444 1.765-1.258 1.913h-.444c-.813-.073-1.257-.81-1.257-1.912V9.968c0-.588-.296-.883-.887-.883H1.436c-.591 0-.887.295-.887.883V31.96c0 5.148 3.18 8.531 7.914 8.531 1.85 0 3.402-.587 4.587-1.544 1.257.956 2.81 1.545 4.733 1.545 4.734 0 7.915-3.384 7.915-8.532V9.968c0-.588-.296-.882-.887-.882zm8.21 10.885v-1.47a.656.656 0 00-.41-.613.667.667 0 00-.255-.05h-.961a.588.588 0 00-.549.363.58.58 0 00-.043.226v1.47h2.219v.074zm.815 4.56l-.518-.44c-.221-.148-.296-.369-.296-.662v-1.104h-2.293v1.25c0 .221-.148.515-.295.662l-.593.442c-.517.367-.813.956-.813 1.618v13.092c0 .368.296.588.591.588h4.439c.37 0 .592-.294.592-.588V26.297c.074-.589-.37-1.397-.814-1.765z" fill="#FF6C4D"/><path d="M113.944 19.971v-1.47a.669.669 0 00-.195-.47.652.652 0 00-.471-.192h-.962a.59.59 0 00-.421.17.578.578 0 00-.171.418v1.47h2.22v.074zm.813 4.56l-.517-.44c-.223-.148-.296-.369-.296-.662v-1.104h-2.293v1.25c0 .221-.148.515-.297.662l-.591.442c-.518.367-.813.956-.813 1.618v13.092a.58.58 0 00.591.588h4.438a.583.583 0 00.592-.588V26.297c0-.589-.369-1.397-.814-1.765z" fill="#333"/></svg>