<svg width="76" height="47" viewBox="0 0 76 47" fill="none" xmlns="http://www.w3.org/2000/svg">
<path d="M29.832 14.4844H23.668L22.4961 18H18.7578L25.1094 0.9375H28.3672L34.7539 18H31.0156L29.832 14.4844ZM24.6172 11.6367H28.8828L26.7383 5.25L24.6172 11.6367ZM39.8633 11.9883V18H36.3477V0.9375H43.0039C44.2852 0.9375 45.4102 1.17188 46.3789 1.64062C47.3555 2.10938 48.1055 2.77734 48.6289 3.64453C49.1523 4.50391 49.4141 5.48438 49.4141 6.58594C49.4141 8.25781 48.8398 9.57812 47.6914 10.5469C46.5508 11.5078 44.9688 11.9883 42.9453 11.9883H39.8633ZM39.8633 9.14062H43.0039C43.9336 9.14062 44.6406 8.92188 45.125 8.48438C45.6172 8.04688 45.8633 7.42188 45.8633 6.60938C45.8633 5.77344 45.6172 5.09766 45.125 4.58203C44.6328 4.06641 43.9531 3.80078 43.0859 3.78516H39.8633V9.14062ZM55.5781 18H52.0625V0.9375H55.5781V18ZM3.88672 43.1758H11.3516V46H0.371094V28.9375H3.88672V43.1758ZM20.5039 46C20.3477 45.6953 20.2344 45.3164 20.1641 44.8633C19.3438 45.7773 18.2773 46.2344 16.9648 46.2344C15.7227 46.2344 14.6914 45.875 13.8711 45.1562C13.0586 44.4375 12.6523 43.5312 12.6523 42.4375C12.6523 41.0938 13.1484 40.0625 14.1406 39.3438C15.1406 38.625 16.582 38.2617 18.4648 38.2539H20.0234V37.5273C20.0234 36.9414 19.8711 36.4727 19.5664 36.1211C19.2695 35.7695 18.7969 35.5938 18.1484 35.5938C17.5781 35.5938 17.1289 35.7305 16.8008 36.0039C16.4805 36.2773 16.3203 36.6523 16.3203 37.1289H12.9336C12.9336 36.3945 13.1602 35.7148 13.6133 35.0898C14.0664 34.4648 14.707 33.9766 15.5352 33.625C16.3633 33.2656 17.293 33.0859 18.3242 33.0859C19.8867 33.0859 21.125 33.4805 22.0391 34.2695C22.9609 35.0508 23.4219 36.1523 23.4219 37.5742V43.0703C23.4297 44.2734 23.5977 45.1836 23.9258 45.8008V46H20.5039ZM17.7031 43.6445C18.2031 43.6445 18.6641 43.5352 19.0859 43.3164C19.5078 43.0898 19.8203 42.7891 20.0234 42.4141V40.2344H18.7578C17.0625 40.2344 16.1602 40.8203 16.0508 41.9922L16.0391 42.1914C16.0391 42.6133 16.1875 42.9609 16.4844 43.2344C16.7812 43.5078 17.1875 43.6445 17.7031 43.6445ZM33.1484 36.4961C32.6875 36.4336 32.2812 36.4023 31.9297 36.4023C30.6484 36.4023 29.8086 36.8359 29.4102 37.7031V46H26.0234V33.3203H29.2227L29.3164 34.832C29.9961 33.668 30.9375 33.0859 32.1406 33.0859C32.5156 33.0859 32.8672 33.1367 33.1953 33.2383L33.1484 36.4961ZM41.7852 46C41.6289 45.6953 41.5156 45.3164 41.4453 44.8633C40.625 45.7773 39.5586 46.2344 38.2461 46.2344C37.0039 46.2344 35.9727 45.875 35.1523 45.1562C34.3398 44.4375 33.9336 43.5312 33.9336 42.4375C33.9336 41.0938 34.4297 40.0625 35.4219 39.3438C36.4219 38.625 37.8633 38.2617 39.7461 38.2539H41.3047V37.5273C41.3047 36.9414 41.1523 36.4727 40.8477 36.1211C40.5508 35.7695 40.0781 35.5938 39.4297 35.5938C38.8594 35.5938 38.4102 35.7305 38.082 36.0039C37.7617 36.2773 37.6016 36.6523 37.6016 37.1289H34.2148C34.2148 36.3945 34.4414 35.7148 34.8945 35.0898C35.3477 34.4648 35.9883 33.9766 36.8164 33.625C37.6445 33.2656 38.5742 33.0859 39.6055 33.0859C41.168 33.0859 42.4062 33.4805 43.3203 34.2695C44.2422 35.0508 44.7031 36.1523 44.7031 37.5742V43.0703C44.7109 44.2734 44.8789 45.1836 45.207 45.8008V46H41.7852ZM38.9844 43.6445C39.4844 43.6445 39.9453 43.5352 40.3672 43.3164C40.7891 43.0898 41.1016 42.7891 41.3047 42.4141V40.2344H40.0391C38.3438 40.2344 37.4414 40.8203 37.332 41.9922L37.3203 42.1914C37.3203 42.6133 37.4688 42.9609 37.7656 43.2344C38.0625 43.5078 38.4688 43.6445 38.9844 43.6445ZM51.8633 41.8633L54.2188 33.3203H57.7578L53.4805 46H50.2461L45.9688 33.3203H49.5078L51.8633 41.8633ZM64.9297 46.2344C63.0703 46.2344 61.5547 45.6641 60.3828 44.5234C59.2188 43.3828 58.6367 41.8633 58.6367 39.9648V39.6367C58.6367 38.3633 58.8828 37.2266 59.375 36.2266C59.8672 35.2188 60.5625 34.4453 61.4609 33.9062C62.3672 33.3594 63.3984 33.0859 64.5547 33.0859C66.2891 33.0859 67.6523 33.6328 68.6445 34.7266C69.6445 35.8203 70.1445 37.3711 70.1445 39.3789V40.7617H62.0703C62.1797 41.5898 62.5078 42.2539 63.0547 42.7539C63.6094 43.2539 64.3086 43.5039 65.1523 43.5039C66.457 43.5039 67.4766 43.0312 68.2109 42.0859L69.875 43.9492C69.3672 44.668 68.6797 45.2305 67.8125 45.6367C66.9453 46.0352 65.9844 46.2344 64.9297 46.2344ZM64.543 35.8281C63.8711 35.8281 63.3242 36.0547 62.9023 36.5078C62.4883 36.9609 62.2227 37.6094 62.1055 38.4531H66.8164V38.1836C66.8008 37.4336 66.5977 36.8555 66.207 36.4492C65.8164 36.0352 65.2617 35.8281 64.543 35.8281ZM75.6523 46H72.2539V28H75.6523V46Z" fill="#D3D3D3"/>
</svg>
