<svg width="36" height="35" viewBox="0 0 36 35" fill="none" xmlns="http://www.w3.org/2000/svg">
<path d="M28.8813 16.9483C28.2202 14.3433 28.2823 12.8578 28.633 12.5842C29.362 11.9951 29.4298 11.3119 29.3606 10.8308C29.3505 10.7887 29.375 10.7466 29.4183 10.7214C30.2656 10.3623 31.7438 8.85708 31.5287 7.93266C31.4811 7.73627 31.6211 7.29159 32.1667 6.64211C32.1927 6.61686 32.2447 6.61826 32.2706 6.64211L32.3688 6.7375L32.952 7.30422C33.1031 7.452 33.2922 7.55767 33.4996 7.61023C33.7071 7.66278 33.9252 7.66029 34.1313 7.60301L35.4636 7.21865C35.607 7.1817 35.7334 7.0992 35.8229 6.98429C35.9124 6.86938 35.9597 6.72868 35.9573 6.5846C35.953 6.39798 35.8785 6.21936 35.748 6.08241L34.8819 5.24074C37.05 2.85884 35.4016 0.593369 35.377 0.56812L35.3684 0.575134C35.3063 0.53305 33.0458 -0.981941 30.6193 1.08294L29.7532 0.241274C29.463 -0.0252518 29.0098 -0.0336684 28.7456 0.241274C28.6657 0.316298 28.61 0.412329 28.5854 0.51762L28.1899 1.81238C28.1292 2.01242 28.1256 2.22474 28.1795 2.42661C28.2334 2.62848 28.3428 2.81232 28.4959 2.95844L29.0791 3.52516L29.1772 3.61914C29.2032 3.6458 29.2047 3.6963 29.17 3.72856C28.5089 4.25039 28.0513 4.38786 27.8593 4.34999C26.8907 4.13957 25.3578 5.57741 24.9723 6.39943C24.9464 6.44152 24.9045 6.46536 24.8598 6.45554C24.3719 6.39943 23.6617 6.47097 23.0554 7.16254C22.7652 7.4964 21.2452 7.56513 18.5647 6.92126C18.3662 6.87007 18.1573 6.87115 17.9594 6.9244C17.7616 6.97765 17.5818 7.08115 17.4388 7.22426L0.409864 23.7741L0.383881 23.7994C0.37522 23.8078 -0.655434 25.0493 0.697119 26.3636L4.79086 30.3419L8.88317 34.3202C10.2357 35.6346 11.506 34.6414 11.5233 34.6246L11.5406 34.6077L28.5782 18.0494C28.7253 17.9089 28.831 17.7327 28.8843 17.539C28.9376 17.3454 28.9366 17.1414 28.8813 16.9483ZM29.6868 2.93459L29.1036 2.36787C29.0624 2.32918 29.0334 2.27983 29.0201 2.22564C29.0068 2.17144 29.0097 2.11469 29.0286 2.06207L29.349 0.994562L30.6409 2.24864L30.9397 1.95826C32.7095 0.237066 34.3218 0.921618 34.7693 1.17412C35.0465 1.64404 35.735 3.22637 33.9898 4.92232L33.6896 5.21269L34.9815 6.46677L33.8729 6.788C33.8193 6.80202 33.7628 6.80188 33.7092 6.78757C33.6557 6.77327 33.6071 6.74533 33.5683 6.70664L32.9837 6.13992L32.887 6.04453L31.2876 4.49026L31.2256 4.42994L29.7835 3.02998L29.6868 2.93459ZM10.9474 33.9807C10.8521 34.0564 10.2256 34.459 9.48222 33.738L5.38847 29.7598L1.29617 25.7829C0.571535 25.0773 0.943956 24.4924 1.045 24.3591L18.0595 7.82605C18.1016 7.78478 18.1546 7.75561 18.2126 7.74175C18.2707 7.72789 18.3316 7.72988 18.3886 7.74749C20.4051 8.22724 22.9601 8.61441 23.7266 7.73066C24.0254 7.38979 24.3704 7.2425 24.789 7.30001C25.2076 7.35752 25.6118 7.13589 25.7793 6.76696C26.1228 6.00385 27.3772 5.09486 27.6991 5.15938C28.2505 5.27722 28.9318 5.00929 29.7301 4.37243L29.7979 4.3051L29.8499 4.256L30.6106 4.99386L30.6727 5.05418L31.6268 5.98281L31.5662 6.04032L31.507 6.09924C30.8589 6.88199 30.5832 7.5455 30.7059 8.07995C30.7723 8.39417 29.8369 9.62861 29.069 9.94563C28.8827 10.0271 28.7286 10.165 28.6297 10.3388C28.5308 10.5125 28.4925 10.7127 28.5204 10.9093C28.5782 11.3161 28.4281 11.6514 28.0759 11.9418C27.1665 12.6866 27.5562 15.178 28.0614 17.1292C28.0768 17.1869 28.0766 17.2475 28.0606 17.305C28.0447 17.3626 28.0136 17.4151 27.9705 17.4575L10.956 33.9905L10.9474 33.9807ZM24.0471 19.4985C23.9702 19.4053 23.8988 19.3079 23.8334 19.2067C23.5296 18.7135 23.3643 18.1514 23.3542 17.5767C23.282 15.8779 21.7707 14.4261 21.4964 14.1764C21.2308 13.9014 19.6487 12.3472 17.8906 12.2855C17.3068 12.2764 16.7352 12.1218 16.2305 11.8366C16.1252 11.7664 16.0285 11.7061 15.9317 11.6276C15.7773 11.5057 15.5821 11.4436 15.3834 11.4529C15.1847 11.4622 14.9966 11.5424 14.8549 11.6781L7.27656 19.0426C7.07708 19.2413 6.95356 19.5004 6.92652 19.7767C6.89947 20.0531 6.97053 20.3301 7.12788 20.5618C7.63743 21.3389 8.66809 22.673 10.6659 24.6158C12.6637 26.5558 14.0379 27.5588 14.8376 28.0526C15.0757 28.2053 15.3604 28.2744 15.6444 28.2484C15.9285 28.2224 16.1949 28.1028 16.3994 27.9095L23.9778 20.545C24.1235 20.4115 24.2117 20.2292 24.2245 20.035C24.2374 19.8408 24.174 19.649 24.0471 19.4985ZM15.7989 27.3077C15.669 27.434 15.4612 27.4466 15.2937 27.3498C14.6716 26.9598 13.3161 26.0087 11.2736 24.0252C9.23105 22.0403 8.25236 20.7231 7.85107 20.1171C7.79981 20.0427 7.77617 19.9535 7.78405 19.8642C7.79192 19.775 7.83083 19.691 7.89438 19.6261L15.4467 12.2883C15.5622 12.3654 15.6849 12.4524 15.8163 12.5309C16.4572 12.9041 17.1833 13.092 17.905 13.1131C19.3485 13.1692 20.7819 14.6295 20.8974 14.7403C21.0201 14.8441 22.4347 16.1515 22.4924 17.5557C22.5058 18.2766 22.7128 18.9816 23.0929 19.6009C23.1651 19.7201 23.2445 19.8309 23.3412 19.9432L15.7802 27.2909L15.7989 27.3077Z" fill="#FB9B45"/>
</svg>
