<svg width="37" height="36" viewBox="0 0 37 36" fill="none" xmlns="http://www.w3.org/2000/svg">
<path d="M19.1697 24.293C19.6398 23.6806 20.1591 23.0991 20.7175 22.5557L25.2133 18.1799C25.5822 17.8195 25.9988 17.507 26.4631 17.2564C28.2192 16.3356 30.1011 14.5194 30.1734 14.449C32.255 12.4245 32.1407 9.08635 32.1248 8.94697C32.1248 8.93148 32.119 8.90755 32.1204 8.89065C31.9584 8.11913 32.7859 7.20681 32.8582 7.13642L33.2097 6.7943L33.282 6.86469C33.4324 7.01111 33.7029 6.99422 33.8751 6.82668L36.8564 3.92501C37.0271 3.75888 37.0531 3.50264 36.894 3.34777L35.2261 1.72447L33.5583 0.099762C33.4064 -0.046659 33.1359 -0.0297643 32.9652 0.136367L29.981 3.03944C29.8089 3.20558 29.7843 3.46181 29.9434 3.61668L30.023 3.69412L29.6715 4.03623C29.6078 4.09677 28.6705 4.90209 27.8691 4.75426C27.8518 4.75426 27.8272 4.74863 27.8112 4.75004C27.6594 4.743 24.2383 4.62333 22.1568 6.64928C22.0758 6.72813 20.2184 8.54994 19.2724 10.2605C19.0226 10.7109 18.703 11.1212 18.3249 11.477L13.8291 15.8527C13.2708 16.3961 12.6719 16.9016 12.0427 17.3591C10.0667 18.8022 5.13118 22.5557 1.917 26.4429C1.51921 26.8455 -0.228194 28.6687 0.0249478 29.8289L0.0538783 29.9091L0.227461 30.2526C0.337397 30.4835 0.40683 30.7257 0.398151 30.9805C0.398151 31.3677 0.584753 31.8985 1.46279 32.28C1.69279 32.3814 1.88229 32.5658 1.9792 32.7826C2.09493 33.0712 2.2714 33.3486 2.48549 33.5724C2.71693 33.7808 3.00913 33.9596 3.28831 34.0751C3.52602 34.1688 3.71728 34.3484 3.82208 34.5763C4.22276 35.4224 4.7681 35.6026 5.15577 35.6125C5.42627 35.6125 5.67652 35.6787 5.91375 35.7871L6.25803 35.9476C6.28262 35.9532 6.31589 35.9687 6.34048 35.9757C7.53097 36.2221 9.40711 34.5214 9.81937 34.1342C13.8291 31.0044 17.6943 26.2078 19.1683 24.293H19.1697ZM33.2053 0.985327L34.594 2.33691L35.9856 3.6913L33.6335 5.97913L33.5612 5.90873L32.2275 4.61065L32.1798 4.56419L30.9329 3.35059L30.8533 3.27315L33.2053 0.985327ZM22.7151 7.18992C24.4076 5.54268 27.344 5.55957 27.6478 5.55676C28.9005 5.77639 30.1647 4.63881 30.2081 4.59517L30.2183 4.58531L30.5799 4.23475L31.5491 5.17804L31.5954 5.2245L32.6513 6.25226L32.2911 6.60423L32.2825 6.61268C32.2289 6.66477 31.0688 7.88682 31.2945 9.10465C31.3003 9.40876 31.3191 12.2513 29.6165 13.9084C29.5977 13.9253 27.7707 15.6894 26.1362 16.5538C25.6029 16.8385 25.1135 17.195 24.6824 17.6126L24.0951 17.0395C24.0373 15.9512 22.6717 14.4983 22.3636 14.1801C22.0526 13.8943 20.5439 12.5484 19.4243 12.4949L18.9079 11.9922C19.3404 11.5699 19.7006 11.0968 19.9957 10.5773C20.8665 8.98639 22.6949 7.20822 22.7137 7.18992H22.7151ZM20.2155 21.9615L19.6991 21.4589C19.6539 21.4107 19.5952 21.3762 19.5303 21.3597C19.4653 21.3432 19.3969 21.3454 19.3332 21.366C19.3173 21.3674 18.202 21.4927 16.5631 19.8272C14.8591 18.2391 15.0529 17.2 15.0529 17.2C15.0773 17.1375 15.082 17.0694 15.0666 17.0042C15.0511 16.939 15.0162 16.8798 14.9661 16.834L14.4584 16.3412L18.296 12.6047L18.9238 13.2157C18.9633 13.2539 19.0111 13.283 19.0636 13.301C19.1162 13.3191 19.1722 13.3255 19.2276 13.3199C19.7989 13.2608 21.0328 14.1463 21.7416 14.801C22.4143 15.4909 23.3328 16.7016 23.2706 17.2718C23.2653 17.326 23.2722 17.3805 23.2906 17.4318C23.3091 17.4831 23.3388 17.5299 23.3776 17.5689L24.0691 18.2419L20.2315 21.977L20.2155 21.9615ZM9.34346 33.5485L9.3073 33.5823C8.55221 34.3031 7.2489 35.2619 6.67029 35.1901L6.36651 35.0535C6.02965 34.8942 5.66049 34.81 5.28596 34.8072C5.03282 34.8072 4.80282 34.5819 4.60899 34.1835C4.42759 33.7987 4.10292 33.4953 3.70057 33.3345C3.49218 33.2527 3.29986 33.1365 3.13208 32.991C2.97982 32.8255 2.85754 32.636 2.77045 32.4306C2.6042 32.0437 2.2921 31.7334 1.8982 31.5634C1.47871 31.3832 1.25015 31.1424 1.25015 30.896C1.244 30.5367 1.15711 30.183 0.995566 29.8598L0.855253 29.5642C0.78148 29.001 1.76656 27.7339 2.50574 26.9976L2.5419 26.9638C5.68375 23.1625 10.5499 19.447 12.4998 18.0293C12.9511 17.6984 13.3879 17.3507 13.8002 16.9804L14.2052 17.3746C14.1835 17.8449 14.3412 18.9275 15.8022 20.3495L15.9382 20.4818L16.1436 20.6818C17.6046 22.1037 18.7184 22.2586 19.2015 22.2375L19.6066 22.6317C19.2256 23.0356 18.8659 23.458 18.5289 23.8974C17.0665 25.753 13.2563 30.4821 9.34346 33.5471V33.5485Z" fill="#FB9B45"/>
</svg>
