<svg width="38" height="37" viewBox="0 0 38 37" fill="none" xmlns="http://www.w3.org/2000/svg">
<path d="M12.3044 34.9795C12.4299 34.8291 12.5174 34.652 12.5596 34.4626L12.5887 34.3518C12.5887 34.3348 12.5975 34.3262 12.6077 34.3177L26.6145 20.6749C26.7749 20.5187 26.963 20.3696 27.1657 20.2545C27.2532 20.2024 27.3339 20.1405 27.4064 20.0699L29.0061 18.5119C29.1288 18.3959 29.2124 18.2463 29.2457 18.0829C29.2791 17.9195 29.2606 17.7501 29.1928 17.5973C28.5161 16.1202 28.6051 14.4997 28.6896 13.8166C28.8815 13.7655 29.0492 13.6513 29.1644 13.4933C29.2795 13.3354 29.3349 13.1435 29.3211 12.9502C31.5727 11.6266 32.6358 9.80583 33.3999 8.47791C33.5355 8.24499 33.6624 8.02201 33.7893 7.8317C34.3157 6.98523 34.7999 6.84747 34.9311 6.81907C35.1476 6.78127 35.3411 6.66444 35.4721 6.49241L36.5075 5.20142C36.5163 5.19289 36.5338 5.17585 36.5513 5.17585L36.7715 5.09348L37.7646 4.07659C37.879 3.95899 37.9559 3.81157 37.9859 3.65224C38.0159 3.4929 37.9978 3.3285 37.9337 3.179C37.6333 2.52001 36.6825 1.57697 36.5542 1.45199C36.4258 1.32701 35.4153 0.358405 34.7386 0.0672559C34.5856 0.00301819 34.4164 -0.0157499 34.2525 0.0133079C34.0885 0.0423658 33.937 0.117954 33.817 0.230583L32.7539 1.19919L32.6708 1.41364C32.6708 1.43068 32.6533 1.44773 32.6445 1.45625L31.3277 2.4561C31.1533 2.58741 31.0366 2.77825 31.001 2.99011C30.9719 3.11793 30.8304 3.59087 29.9613 4.10215C29.7659 4.22571 29.5355 4.35069 29.2963 4.48278C27.9255 5.2355 26.056 6.27228 24.7042 8.45518C24.1792 8.44808 23.9021 8.75343 23.8161 9.07014C23.0884 9.144 21.4245 9.23063 19.9166 8.58016C19.759 8.51613 19.5854 8.49923 19.4179 8.5316C19.2504 8.56398 19.0966 8.64416 18.976 8.76195L17.3763 10.32C17.3038 10.3905 17.2402 10.4692 17.1867 10.5543C17.0684 10.751 16.9237 10.9316 16.7565 11.0911L2.73947 24.7425C2.73072 24.751 2.72197 24.7595 2.70447 24.7595L2.59802 24.7794C2.404 24.8207 2.22268 24.9058 2.06866 25.0279C1.54368 25.4398 0.312883 26.505 0.0387258 27.4395C-0.0101387 27.6063 -0.0128077 27.7827 0.0309898 27.9508C0.0747874 28.119 0.163491 28.2728 0.288093 28.3967L4.58857 32.5836L8.82781 36.7137L8.83656 36.7222C9.08447 36.9636 9.468 37.0574 9.81944 36.965C10.7877 36.6895 11.8815 35.4908 12.3044 34.9795ZM19.5579 9.36271C21.3078 10.1098 23.2007 9.9862 23.9386 9.9024C24.0984 9.87831 24.2476 9.80931 24.3678 9.70386C24.488 9.5984 24.574 9.46109 24.6152 9.30874H24.6502C24.8012 9.31537 24.9512 9.28153 25.0839 9.21092C25.2166 9.1403 25.3268 9.03561 25.4027 8.90824C26.6364 6.9057 28.3995 5.92432 29.6827 5.22414C29.9307 5.08212 30.1611 4.95856 30.374 4.83499C31.4823 4.17316 31.7593 3.48577 31.8366 3.12645L33.1637 2.11808C33.3119 2.00566 33.4217 1.85217 33.4787 1.67781L33.4874 1.66928L34.3726 0.841286C34.8392 1.05432 35.6894 1.82835 35.9286 2.06269C36.1677 2.29561 36.9202 3.07958 37.139 3.53548L36.3223 4.39614L36.315 4.40466C36.1354 4.46949 35.9761 4.57862 35.8527 4.72138L34.8174 6.01237C34.4586 6.07912 33.7528 6.34897 33.063 7.43687C32.9362 7.64423 32.8006 7.87714 32.6635 8.11006C31.9285 9.35987 30.9369 11.0784 28.8632 12.2785C28.7349 12.3547 28.6295 12.4627 28.5578 12.5914C28.4861 12.7201 28.4506 12.8649 28.4549 13.0113C28.4534 13.0283 28.4622 13.0369 28.4534 13.0454C28.2938 13.0844 28.1497 13.1689 28.0396 13.2881C27.9294 13.4072 27.8582 13.5556 27.8351 13.7143C27.7476 14.4315 27.6207 16.275 28.3805 17.9722L26.7983 19.5132C26.7793 19.5302 26.7618 19.5472 26.7355 19.5558C26.5264 19.6773 26.33 19.8185 26.1493 19.9776L21.8153 15.7566L17.49 11.5442C17.6504 11.3709 17.7963 11.1806 17.9217 10.9733C17.9406 10.9562 17.9494 10.9307 17.9669 10.9122L19.5579 9.36413V9.36271ZM12.4458 33.3235L8.11179 29.1026L8.10304 29.0941L3.78652 24.8902L16.8732 12.145L21.1984 16.3574L25.5325 20.5783L12.4458 33.3235ZM9.62695 36.1512C9.57445 36.1697 9.5132 36.1456 9.47091 36.103L5.22293 31.9658L5.21418 31.9573L0.931196 27.7889C0.888906 27.7463 0.872865 27.6951 0.891822 27.644C1.06098 27.0788 1.90096 26.2607 2.62281 25.6741C2.66305 25.6392 2.71171 25.6148 2.76426 25.6031L2.86926 25.5847C2.9594 25.5641 3.0459 25.5306 3.12592 25.4853L7.45994 29.7062L7.46869 29.7147L11.8363 33.9683C11.7898 34.0458 11.7554 34.1296 11.7342 34.2169L11.7152 34.3206C11.6997 34.375 11.6712 34.4251 11.6321 34.4668C11.0488 35.1684 10.2088 35.9865 9.62695 36.1527V36.1512Z" fill="#FB9B45"/>
</svg>
