<svg width="39" height="39" viewBox="0 0 39 39" fill="none" xmlns="http://www.w3.org/2000/svg">
<path d="M30.652 15.5136C30.6195 15.4226 30.6088 15.3252 30.6208 15.2292C30.6328 15.1333 30.6672 15.0415 30.7211 14.9612C31.1672 14.3066 31.1816 13.6808 30.747 13.2463C30.6333 13.1327 30.6304 13.0406 30.6318 12.973C30.6462 12.7183 30.9225 12.409 31.0204 12.3285L33.6311 9.71873C33.8182 9.5317 34.0197 9.37777 34.2529 9.25692C34.6962 9.02386 35.0991 8.71742 35.4474 8.35344L38.4223 5.37973C39.2484 4.55395 39.0152 3.78858 38.7763 3.49509L37.1658 1.86941L35.5467 0.248041L35.5223 0.223584C35.2301 -0.0152334 34.4644 -0.248296 33.6383 0.577494L30.6448 3.5699C30.2893 3.92525 29.9827 4.32951 29.7409 4.77981C29.6236 5.00708 29.4711 5.2144 29.289 5.39412L26.6941 7.98658L26.6769 8.00385C26.6049 8.07578 26.2955 8.36927 26.0422 8.38078C25.9731 8.38509 25.881 8.38078 25.7687 8.26856C25.3326 7.83265 24.708 7.84703 24.0517 8.29302C23.9733 8.35096 23.8812 8.38774 23.7844 8.39983C23.6877 8.41193 23.5894 8.39892 23.4991 8.36207C22.1059 7.82258 18.4187 7.04714 14.35 11.4523C9.64521 16.607 1.10924 25.8331 1.03727 25.9223C0.746311 26.2359 0.501139 26.589 0.309033 26.9711C-0.112657 27.8271 -0.101143 28.6213 0.333499 29.25C1.15961 30.4843 3.69118 33.494 4.60077 34.4219L4.63243 34.4536L4.66553 34.4852C5.59239 35.3945 8.52262 37.8445 9.75747 38.6717C10.4051 39.1033 11.1895 39.1076 12.0386 38.6947C12.6431 38.3955 13.0691 37.9855 13.0792 37.9754C13.167 37.8891 22.4053 29.3622 27.5605 24.6592C31.9746 20.6022 31.2017 16.9149 30.652 15.5136ZM27.0395 24.0679C21.8843 28.7723 12.6546 37.3036 12.5495 37.3942C12.4963 37.4474 11.2557 38.6228 10.2741 37.961C9.05513 37.1338 6.13353 34.6924 5.25417 33.8321C4.39352 32.9545 1.87058 29.952 1.04303 28.7335C0.389629 27.7609 1.55683 26.5122 1.61008 26.4604C1.69931 26.3712 10.2281 17.1379 14.9329 11.9832C18.6173 7.99378 21.8872 8.66995 23.1148 9.15046C23.3346 9.23228 23.571 9.2592 23.8035 9.22886C24.036 9.19852 24.2576 9.11185 24.449 8.97638C24.8951 8.67426 25.0477 8.8282 25.1124 8.89294C25.2257 9.00909 25.3633 9.09874 25.5153 9.15545C25.6674 9.21216 25.8301 9.23453 25.9918 9.22095C26.6193 9.17348 27.136 8.64261 27.2338 8.54478L29.8359 5.94225C30.0849 5.69336 30.2936 5.40563 30.4519 5.10207C30.6513 4.74115 30.9008 4.41032 31.1931 4.11947L34.178 1.13569C34.5954 0.718482 34.8516 0.833575 34.9264 0.87098L36.5196 2.46501L38.1157 4.06049C38.146 4.1094 38.2856 4.37267 37.8509 4.80859L34.8574 7.801C34.5691 8.08986 34.241 8.33597 33.883 8.53184C33.5704 8.69651 33.2842 8.90696 33.0339 9.15621L30.4476 11.74C30.3512 11.8379 29.8187 12.3544 29.7712 12.9816C29.7576 13.1413 29.7793 13.3021 29.8347 13.4525C29.8902 13.6029 29.9781 13.7393 30.0921 13.852C30.1554 13.9167 30.3166 14.0779 30.0086 14.5138C29.8709 14.7043 29.7827 14.9261 29.7521 15.1591C29.7214 15.3922 29.7493 15.6292 29.8331 15.8489C30.3454 17.1249 31.0305 20.3849 27.041 24.0679H27.0395ZM24.7368 21.3934L23.9812 20.7978C21.73 19.0241 19.7018 16.9846 17.9408 14.7238L17.5522 14.2289L17.5191 14.1958C17.109 13.7858 16.5347 13.5858 15.8986 13.6419C15.1777 13.7138 14.5113 14.0575 14.0348 14.603L7.86922 21.4754C6.96683 22.4739 6.89056 23.8881 7.68644 24.7009L7.71091 24.7254C8.66677 25.9699 9.70128 27.152 10.8081 28.2645C11.927 29.3867 13.1204 30.4321 14.3802 31.3936C15.2193 32.2136 16.6599 32.1086 17.6703 31.1634L24.3828 24.8405C24.9153 24.3412 25.252 23.6665 25.2938 22.9961C25.3413 22.353 25.1412 21.7963 24.7382 21.3934H24.7368ZM17.1334 30.5577C16.4685 31.1907 15.5273 31.2612 14.9962 30.7303L14.9631 30.6972C12.4987 28.8166 10.2939 26.6185 8.40605 24.16L8.37438 24.1111L8.34272 24.078C7.82604 23.5629 7.88793 22.648 8.47945 21.9775L14.645 15.1051C14.9657 14.7406 15.4104 14.5084 15.8928 14.4534C16.0727 14.4324 16.255 14.4503 16.4273 14.5059C16.5996 14.5615 16.758 14.6535 16.8917 14.7756L17.2658 15.2561C19.06 17.5674 21.1312 19.6499 23.4329 21.4567L24.1496 22.0135C24.3914 22.2552 24.5094 22.6034 24.4821 22.986C24.4384 23.4593 24.2216 23.8998 23.8733 24.2233L17.1334 30.5577Z" fill="#FB9B45"/>
</svg>
