<svg width="37" height="37" viewBox="0 0 37 37" fill="none" xmlns="http://www.w3.org/2000/svg">
<path d="M31.6535 10.7714C30.9659 9.23931 32.1321 7.85282 32.6381 7.34694C32.8114 7.4182 33.0017 7.43774 33.1859 7.40321C33.37 7.36869 33.5403 7.28156 33.676 7.15237L36.7019 4.12717C37.1242 3.70488 37.094 2.98281 36.6356 2.52449L35.6178 1.50552L35.589 1.47814L34.4703 0.359722C34.0119 -0.0985977 33.2983 -0.120217 32.876 0.302072L29.8429 3.33736C29.7137 3.47306 29.6265 3.64327 29.592 3.82742C29.5575 4.01157 29.577 4.20179 29.6483 4.37507C29.1495 4.87374 27.7642 6.05702 26.2231 5.36089C23.624 4.17906 21.8019 6.09305 20.4785 7.48963C20.3098 7.67699 20.1412 7.84562 19.9812 8.0056L0.691609 27.2882C-0.220901 28.2019 -0.0926016 28.9716 0.292296 29.3578L4.03604 33.0993L4.09082 33.1541L7.64139 36.7039C8.25549 37.3193 9.1435 36.8711 9.71003 36.3061L28.9909 17.0293C29.1495 16.8679 29.3283 16.7094 29.5142 16.5234C30.9125 15.1989 32.8342 13.3873 31.6535 10.7714ZM33.8793 0.950638L34.9979 2.0705L35.0268 2.09788L36.0532 3.12406C36.1541 3.22494 36.1699 3.39357 36.0676 3.49446L33.1556 6.40868L31.9346 5.18938L31.9072 5.16055L30.6055 3.8591L33.5189 0.946314C33.6198 0.845426 33.7784 0.851191 33.8793 0.952079V0.950638ZM25.9305 6.14637C28.1534 7.15381 29.9799 5.36377 30.4426 4.86365L31.322 5.74426L31.3508 5.77309L32.1494 6.5701C31.6405 7.0241 29.8674 8.85017 30.8736 11.0726C31.7948 13.1249 30.2538 14.5749 28.8987 15.8561C28.7026 16.032 28.5253 16.2092 28.3567 16.3779L27.3591 17.3752L23.4971 13.5126L19.6265 9.64287L20.6227 8.64696C20.7913 8.47689 20.9513 8.29961 21.1373 8.11369C22.4189 6.75891 23.8777 5.22685 25.9305 6.14637ZM19.0254 10.2424L22.8975 14.1136L26.7608 17.9762L12.5398 32.1913L8.79752 28.4498L8.7413 28.3951L4.80583 24.4604L19.0254 10.2424ZM8.22378 36.1217L4.67321 32.5718L4.61843 32.5171L0.876129 28.7741C0.802609 28.7021 0.995779 28.2697 1.32446 27.9396L4.20758 25.06L8.14305 28.9946L8.19639 29.0494L11.9401 32.7909L9.05844 35.6734C8.72977 36.002 8.2973 36.1952 8.22378 36.1202V36.1217Z" fill="#FB9B45"/>
</svg>
