<svg width="37" height="37" viewBox="0 0 37 37" fill="none" xmlns="http://www.w3.org/2000/svg">
<path d="M24.7798 18.1908C26.1991 13.4837 32.4786 7.88295 32.957 7.46627L33.4167 7.17459C33.8621 6.90159 34.2701 6.52227 34.5761 6.09265C34.8534 5.70758 35.2427 5.37998 35.6492 5.03514C36.0113 4.73341 36.3848 4.40724 36.6937 4.03654C37.6418 2.88707 36.1047 1.27781 35.9035 1.07665C35.7254 0.899922 34.125 -0.647552 32.9685 0.310819C32.5964 0.619739 32.2789 1.0005 31.9701 1.3554C31.6253 1.76202 31.2977 2.15141 30.9127 2.42872C30.4799 2.7403 30.1123 3.13376 29.8309 3.58681L29.5393 4.04803C29.114 4.53656 23.5227 10.8069 18.8077 12.2366C12.455 14.1605 4.04211 23.7011 0.469229 28.4944C0.127313 28.8507 -0.30942 29.7042 0.318384 30.5117L3.39707 33.5894L6.49011 36.6671L6.50592 36.6815C7.3133 37.3094 8.16665 36.8726 8.52294 36.5321C13.3241 32.9644 22.8619 24.5517 24.7798 18.1908ZM26.9922 7.7364L28.1127 8.85569L28.1199 8.86288L29.2692 10.0123L28.844 10.4836C28.311 11.0785 27.8096 11.6719 27.3542 12.2366L26.0655 10.9477L24.7697 9.6517C25.58 9.01087 26.3256 8.35855 26.9936 7.7364H26.9922ZM33.4368 0.921475C33.8348 0.585255 34.8304 1.25769 35.2685 1.69737C35.7081 2.13704 36.4279 3.1615 36.0917 3.55951C35.8374 3.86124 35.5171 4.13281 35.1809 4.42305C34.747 4.79663 34.2873 5.17739 33.9368 5.66879C33.7055 5.99208 33.411 6.27226 33.0719 6.47054L32.5418 6.80102L32.5145 6.82688C32.4614 6.88148 31.3365 7.85134 29.8984 9.35284L28.7635 8.21774L28.7563 8.21055L27.653 7.10706C28.5286 6.27414 29.3656 5.40154 30.1613 4.49202L30.1886 4.46328L30.5191 3.93309C30.7268 3.59563 30.9992 3.30264 31.3207 3.07098C31.8106 2.71752 32.1927 2.25773 32.5648 1.82381C32.855 1.48759 33.128 1.16861 33.4368 0.921475ZM9.11339 19.8504C12.9176 16.1836 16.3195 13.8157 18.9485 13.0225C20.6523 12.5053 22.4496 11.419 24.0744 10.1948L25.4478 11.567L26.8198 12.9406C25.4032 14.8214 24.4551 16.5413 23.9925 18.0687C23.1995 20.6981 20.8405 24.0891 17.1657 27.9039C16.8956 28.1898 16.6197 28.4671 16.341 28.7458L12.307 24.7069L8.27296 20.6722C8.55023 20.3949 8.8275 20.1176 9.11339 19.8475V19.8504ZM8.00144 35.9717C7.88018 36.0944 7.71772 36.1678 7.54548 36.1776C7.37324 36.1875 7.20349 36.133 7.06907 36.0249L4.01481 32.9701L0.98354 29.9384C0.872785 29.8048 0.8167 29.6343 0.826561 29.461C0.836422 29.2877 0.911498 29.1246 1.0367 29.0045L1.08985 28.9527C1.24644 28.7502 1.4763 28.4427 1.76075 28.0648L5.34082 31.6439L5.348 31.6526L8.94961 35.2547C8.6602 35.4863 8.36463 35.71 8.06322 35.9257L8.00144 35.9717ZM9.64637 34.6972L5.96718 31.0189L5.96 31.0103L2.31098 27.3607C3.98844 25.2546 5.76866 23.2324 7.64516 21.3016L11.672 25.329L15.6989 29.3551C13.7735 31.238 11.7534 33.0215 9.64637 34.6987V34.6972Z" fill="#FB9B45"/>
</svg>
