<svg width="37" height="37" viewBox="0 0 37 37" fill="none" xmlns="http://www.w3.org/2000/svg">
<path d="M21.704 22.002C21.3996 20.7003 22.2428 19.3532 22.6585 18.7017L22.8386 18.4103C23.1094 17.9198 26.4764 14.3002 32.8327 7.6438C33.2953 7.165 33.632 6.81212 33.7959 6.63348C34.053 6.56826 34.2852 6.42872 34.4635 6.23229L36.712 3.92027C37.0312 3.58642 37.0883 3.11933 36.8672 2.78988L35.5468 1.43254L34.2541 0.176235L34.2146 0.136701C33.894 -0.0931833 33.4182 -0.027293 33.0845 0.290445L30.7627 2.56586C30.5724 2.75621 30.4377 2.98463 30.3616 3.23501C30.0241 3.54833 29.6908 3.86609 29.3618 4.18822C22.7054 10.5474 19.0851 13.9151 18.5962 14.1845L18.3048 14.3646C17.6549 14.7643 16.2993 15.6165 15.0067 15.3193C12.2809 14.675 9.85663 15.5257 7.80862 17.8407C5.38878 20.5612 0.584229 26.6729 0.316334 27.0214C0.00452092 27.3787 -0.989474 29.0816 3.45788 33.5299C7.91256 37.9855 9.63997 36.9972 9.99863 36.6868C10.3456 36.4174 16.4545 31.6132 19.1759 29.1929C21.4815 27.1532 22.3321 24.727 21.7055 22.002H21.704ZM31.1697 3.35508C31.1938 3.26844 31.2402 3.18966 31.3044 3.12666L33.6334 0.858565C33.6412 0.852876 33.6503 0.849339 33.6598 0.848316L34.9217 2.07388L36.1558 3.34483C36.1631 3.35215 36.1543 3.36093 36.1455 3.36972L33.8764 5.70077C33.8137 5.76418 33.7355 5.81011 33.6495 5.83402C33.4889 5.86554 33.3435 5.9501 33.2367 6.07415C33.0918 6.21911 32.739 6.58809 32.2471 7.11082C30.2978 9.15007 28.3567 11.1971 26.4237 13.2518L25.0857 11.9135L25.0769 11.9062L23.755 10.5825C25.8093 8.64911 27.8558 6.70753 29.8946 4.75781C30.4084 4.25851 30.7876 3.91148 30.9311 3.76799C31.0545 3.66092 31.1386 3.51553 31.1697 3.35508ZM18.6679 28.613C15.8953 31.0715 9.5902 36.0235 9.51847 36.0806L9.51993 36.063L9.49212 36.0894C9.33548 36.1684 7.84522 36.6677 4.08297 32.9047C0.218251 29.0391 0.865299 27.6042 0.913608 27.509L0.932639 27.4914C0.97802 27.4285 5.93921 21.1132 8.39711 18.34C10.2241 16.2915 12.2955 15.558 14.7066 16.1232C16.3461 16.4965 17.9755 15.4818 18.6694 15.0543C18.7674 14.9898 18.8553 14.9327 18.9065 14.9122C19.2579 14.719 20.5754 13.5578 23.0977 11.1931L24.4357 12.5314L24.443 12.5387L25.8045 13.9005C23.449 16.4145 22.2881 17.7338 22.0964 18.0838C22.054 18.166 22.0061 18.2452 21.9529 18.321C21.5254 19.0165 20.5036 20.6535 20.8843 22.2861C21.4405 24.7226 20.7144 26.7857 18.6679 28.6116V28.613ZM14.9232 27.6188L12.1535 24.8485L9.38232 22.0767C9.3589 22.0533 8.66647 21.3592 7.74128 21.5935C7.08106 21.7663 6.51892 22.3432 6.0651 23.3023C5.50296 24.478 5.44148 25.8456 5.8909 27.2381C6.25688 28.3831 6.87757 29.2734 7.29625 29.6922L7.286 29.7009C7.70322 30.1182 8.60938 30.7537 9.75416 31.1212C11.1449 31.5708 12.5151 31.5093 13.6906 30.947C14.648 30.4931 15.2262 29.9308 15.3975 29.2705C15.6405 28.3348 14.9554 27.651 14.9232 27.6188ZM13.4315 30.1812C11.221 31.2281 8.72503 29.8357 7.93744 29.0494L7.94623 29.0406C7.16011 28.2528 5.78257 25.7724 6.82926 23.56C7.05471 23.0973 7.40019 22.5189 7.854 22.3944C8.32538 22.2685 8.76016 22.6844 8.76748 22.6917L11.5226 25.4474L14.3084 28.2338C14.3157 28.2426 14.7241 28.6687 14.5982 29.1416C14.4738 29.6131 13.9014 29.9645 13.4315 30.1812Z" fill="#FB9B45"/>
</svg>
