<svg width="31" height="30" viewBox="0 0 31 30" fill="none" xmlns="http://www.w3.org/2000/svg">
<path d="M19.1982 17.1888C22.7483 19.0345 24.5878 16.1908 24.7477 15.9352L31 7.10866L23.6519 0L14.5317 6.04953C14.2735 6.19718 11.3293 7.98606 13.2364 11.4218C14.9395 14.4786 12.7156 16.3767 12.6232 16.452L12.61 16.4662L5.49955 23.5649C4.91129 23.8915 4.15727 23.8148 3.65556 23.3661L3.64823 23.3605C1.78517 21.8002 1.03701 21.3728 0.535305 21.5915L0.516234 21.5971C0.363669 21.6681 0.0790751 21.7902 0.0130612 22.1367C-0.0544197 22.4816 0.137754 22.936 0.632125 23.5947C1.18077 24.3302 2.13137 25.3524 3.46632 26.6443C4.80127 27.9363 5.8575 28.8563 6.61886 29.3873C7.29953 29.8657 7.7675 30.0517 8.12544 29.9878C8.48192 29.9225 8.60954 29.6471 8.68142 29.5009L8.68876 29.481C8.92054 29.0011 8.47165 28.2714 6.85944 26.4683L6.85211 26.4612C6.62784 26.2226 6.48744 25.9214 6.45107 25.6007C6.4147 25.2801 6.48422 24.9566 6.64966 24.6766L13.9699 17.8079L13.9845 17.7951L13.9977 17.7823C14.0036 17.7766 14.4936 17.2258 15.3811 16.8651C16.5708 16.3782 17.8544 16.4917 19.1952 17.1888H19.1982ZM13.5034 17.3535L6.15529 24.2478L6.12889 24.2734L6.10981 24.306C5.86078 24.7047 5.75164 25.1707 5.79871 25.6343C5.84577 26.0979 6.0465 26.5344 6.37094 26.8786C7.81151 28.49 8.10197 29.0394 8.0873 29.2198L8.08143 29.2254C8.06676 29.2638 8.02862 29.3404 8.00808 29.3475C7.95527 29.3731 7.34794 29.4895 3.92549 26.1772C0.503031 22.865 0.629191 22.2815 0.648262 22.2247C0.6688 22.2048 0.740681 22.1736 0.774422 22.1537L0.781757 22.148C0.966596 22.1338 1.53432 22.4149 3.19933 23.8091C3.55582 24.1215 4.00654 24.3148 4.4851 24.3605C4.96366 24.4063 5.44475 24.3021 5.85749 24.0632L5.89124 24.0434L13.0413 16.9063C13.2599 16.7217 15.6686 14.4786 13.7938 11.0996C12.1244 8.08828 14.7312 6.63872 14.8442 6.58051L14.8574 6.56774L23.5712 0.817773L26.7692 3.91281L26.8235 3.96393L30.1536 7.18674L24.1918 15.5902L24.1786 15.6158C24.1199 15.7251 22.628 18.2537 19.5092 16.6309C16.0119 14.8108 13.7088 17.142 13.5034 17.355V17.3535Z" fill="#FB9B45"/>
</svg>
