<svg width="37" height="37" viewBox="0 0 37 37" fill="none" xmlns="http://www.w3.org/2000/svg">
<path d="M24.9223 24.987C27.0625 22.6565 29.6209 19.0904 29.675 15.3608C29.6991 13.6943 29.2114 12.5739 28.9397 12.0719L30.9022 10.1097C30.9642 10.0481 31.0084 9.97103 31.0302 9.88647L31.0573 9.86088L36.8566 4.06095C36.9351 3.97941 36.985 3.87464 36.9988 3.76236C37.0031 3.70977 36.9955 3.6569 36.9765 3.60767C36.9576 3.55844 36.9278 3.51411 36.8893 3.47798L35.1202 1.72762L33.5204 0.109496C33.4428 0.0383987 33.3412 -0.000715562 33.2359 9.91405e-06C33.1217 0.00670695 33.0145 0.0577216 32.9373 0.1422L27.1351 5.9407L27.1095 5.9663C27.0249 5.98814 26.9478 6.03234 26.8862 6.09427L24.9237 8.05649C24.4231 7.78633 23.3025 7.2972 21.6358 7.32137C17.897 7.36829 14.3375 9.9334 12.0081 12.0734C11.6568 12.3933 3.45263 19.8696 1.67641 23.6021C1.66788 23.6121 1.66788 23.6121 1.66646 23.6277L0.204529 27.0772C-0.156688 27.9119 -0.0315419 28.812 0.517393 29.4305L0.533037 29.4461L3.94042 32.8715L3.95606 32.8857L3.9717 32.9028L7.55543 36.4675L7.56965 36.4817C8.18969 37.032 9.08989 37.1571 9.92467 36.7945L13.3747 35.3342C13.3747 35.3342 13.3832 35.3257 13.4003 35.3242C17.1248 33.5398 24.6037 25.3368 24.9223 24.987ZM34.4803 2.31913L34.5045 2.3433L34.5201 2.35894L35.9963 3.81781L30.9278 8.88546L28.1121 6.0701L33.179 0.999605L34.4789 2.31771L34.4803 2.31913ZM13.1074 34.5749L9.67438 36.0352C9.13824 36.2556 8.55944 36.1873 8.16267 35.8432L4.57184 32.2714L1.15877 28.8219C0.813193 28.4238 0.729288 27.8465 0.966781 27.3104L2.42729 23.878C4.13667 20.3076 12.4461 12.7232 12.5328 12.6521C15.6785 9.75993 18.7844 8.20152 21.5063 8.14465C23.54 8.09915 24.6862 8.91105 24.6933 8.91816C24.8455 9.03476 25.0801 9.00632 25.238 8.84707L27.3071 6.77962L27.5233 6.76683L27.5731 6.76541L30.2481 9.43858L30.2452 9.48834L30.2339 9.70589L28.1576 11.7819C28.0837 11.8499 28.0361 11.9416 28.0228 12.041C28.0096 12.1405 28.0316 12.2415 28.085 12.3265C28.1163 12.3748 31.3317 16.8751 24.342 24.478C24.2638 24.5562 16.6797 32.8658 13.1074 34.5749ZM20.0458 16.9434C17.8842 14.7821 14.1697 14.9925 11.7663 17.3941C9.36293 19.7971 9.16099 23.5182 11.3141 25.6724C13.4757 27.8337 17.1902 27.6218 19.5936 25.2188C21.9956 22.8172 22.2075 19.1046 20.0458 16.9434ZM11.9313 25.0553C10.0768 23.2026 10.2503 20.0147 12.3195 17.9458C14.3873 15.8784 17.5756 15.7049 19.4301 17.559C21.2831 19.4118 21.1082 22.5997 19.0404 24.6685C16.9727 26.736 13.7843 26.9095 11.9298 25.0553H11.9313Z" fill="#FB9B45"/>
</svg>
