<svg width="41" height="41" viewBox="0 0 41 41" fill="none" xmlns="http://www.w3.org/2000/svg">
<path d="M22.483 31.8385C23.4074 30.0113 27.1409 26.8856 30.1263 24.3705C31.4104 23.2942 32.6258 22.2696 33.4671 21.4799C36.4324 18.7068 35.6412 16.3192 34.4875 13.8929C34.1622 13.228 34.0963 12.6862 34.2639 12.2936C34.3827 12.0383 34.5914 11.8358 34.8501 11.7246C35.5438 11.6558 35.657 11.0224 35.6957 10.7042C35.839 10.4391 36.7835 9.60073 37.6678 8.8899C38.1178 9.16936 38.972 9.5649 39.5324 9.00455C39.6218 8.91783 39.6913 8.81262 39.7358 8.69628C39.7804 8.57994 39.799 8.45527 39.7904 8.33098C39.7803 8.17444 39.7379 8.02169 39.6657 7.88242C40.0928 7.74914 40.4754 7.41952 40.7965 6.89069C41.235 6.15693 40.9656 5.17524 39.981 3.95279C39.5518 3.41322 39.0719 2.91604 38.5478 2.46807C38.5119 2.43368 37.8856 1.68845 37.063 1.01775C35.8491 0.0417922 34.8587 -0.236234 34.1249 0.200869C33.5961 0.521889 33.2564 0.895934 33.1245 1.32444C32.9854 1.25175 32.8326 1.20881 32.6759 1.19832C32.5488 1.18944 32.4213 1.20787 32.3019 1.25236C32.1825 1.29685 32.074 1.36639 31.9837 1.45629C31.4147 2.02524 31.8203 2.87221 32.0998 3.32221C31.3889 4.20645 30.5491 5.14945 30.2854 5.29276C29.9672 5.33145 29.3337 5.44467 29.2635 6.13974C29.2142 6.27083 29.1394 6.39087 29.0434 6.49295C28.9475 6.59502 28.8323 6.67711 28.7045 6.73448C28.3033 6.91076 27.7601 6.8262 27.0965 6.51951C25.9643 5.98209 24.7661 5.46187 23.5035 5.47333C22.0946 5.49053 20.7976 6.16267 19.5077 7.53847C18.7194 8.37971 17.6947 9.59643 16.6184 10.8805C14.1103 13.8743 10.9773 17.599 9.14136 18.5305C6.21333 20.0167 1.55256 23.9821 0.59948 25.5428C-0.274773 27.0619 -0.19738 28.5294 0.861755 29.59L6.02128 34.7492L6.08291 34.8094L11.4158 40.1435C12.4764 41.204 13.9454 41.2799 15.4632 40.3699C17.0326 39.4427 20.9968 34.7836 22.483 31.8385ZM32.2489 8.85121C32.2317 8.83401 30.7483 7.45248 30.2424 6.18416C30.2954 6.16697 30.3714 6.1598 30.4746 6.14404C30.6121 6.12827 30.9977 6.07238 32.5728 4.15056C33.0715 4.93735 33.7408 5.65677 34.1579 6.07381C34.3155 6.23146 34.4703 6.38623 34.5663 6.46506C34.6523 6.55104 34.8014 6.71729 34.9576 6.8735C35.3732 7.2891 36.0855 7.95121 36.881 8.45853C34.959 10.0335 34.9031 10.419 34.8888 10.5566C34.8795 10.6378 34.8627 10.7179 34.8386 10.796C33.5703 10.2743 32.2661 8.86841 32.2489 8.85121ZM34.5706 0.936062C35.356 0.463131 37.2464 2.11696 37.996 3.00119L37.9874 3.00979C38.8717 3.75788 40.55 5.65821 40.0784 6.44213C39.8592 6.8176 39.6055 7.03831 39.3647 7.08703C39.2963 7.0991 39.2263 7.09813 39.1583 7.08417L39.1669 7.05837C38.3744 6.8434 36.8021 5.37445 36.2389 4.8098L36.2217 4.7926L36.2045 4.7754C35.6312 4.21935 34.1693 2.65724 33.9544 1.84753L33.9286 1.85613C33.9195 1.78767 33.919 1.71834 33.9271 1.64976C33.9845 1.40183 34.2052 1.1625 34.5721 0.936062H34.5706ZM32.61 2.08113C32.6344 2.05533 32.6344 2.05533 32.653 2.05533C32.8322 2.0668 33.1704 2.35342 33.3266 2.56123C33.8368 3.56441 34.9934 4.76967 35.4191 5.19531L35.6197 5.39595L35.819 5.59658C36.2446 6.02079 37.4514 7.17732 38.4532 7.68608C38.6782 7.87812 38.9476 8.21633 38.9505 8.36968C38.9505 8.38688 38.9505 8.38688 38.9333 8.40407C38.8057 8.53305 38.2712 8.30232 37.9071 8.02286L37.5703 7.87382C36.5069 7.26904 35.4377 6.16553 35.1769 5.88894L35.1425 5.85311L35.1081 5.81872C34.8301 5.55789 33.7179 4.48018 33.1145 3.41823L33.1231 3.40963L32.9554 3.09005C32.7376 2.78623 32.4653 2.22587 32.61 2.08113ZM15.016 39.6519C14.3338 40.0561 13.0526 40.5906 12.0192 39.5573L6.67625 34.2175L6.61606 34.1559L1.45653 28.9966C0.421763 27.9634 0.95778 26.6807 1.36194 25.9985C2.36518 24.3361 7.2567 20.4681 9.56272 19.2915C11.5434 18.2855 14.6004 14.6539 17.2948 11.438C18.3626 10.1625 19.3701 8.96442 20.1512 8.13178C22.5518 5.57509 24.4049 6.17127 26.7525 7.2977C27.6597 7.72764 28.4337 7.80646 29.0743 7.52987C29.3206 7.4194 29.5409 7.25825 29.7207 7.05694C30.2295 7.9727 31.0034 8.79675 31.3775 9.17079L31.6469 9.44022L31.8461 9.64086C32.2188 10.0135 33.0443 10.7874 33.9687 11.2875C33.7668 11.4668 33.6055 11.6872 33.4957 11.9339C33.2191 12.5745 33.2965 13.3484 33.7279 14.2555C34.8458 16.6116 35.4506 18.456 32.8852 20.8651C32.0525 21.6461 30.8529 22.6536 29.5774 23.7213C26.3627 26.4156 22.731 29.4724 21.732 31.4458C20.5482 33.7575 16.6872 38.643 15.016 39.6534V39.6519Z" fill="#FB9B45"/>
</svg>
