<svg width="36" height="36" viewBox="0 0 36 36" fill="none" xmlns="http://www.w3.org/2000/svg">
<path d="M15.4106 28.7448C17.8538 26.1617 18.7077 24.3031 18.7754 24.1415C20.6259 20.2655 25.5483 14.2755 26.5146 13.1196C26.5552 13.0771 26.5996 13.0384 26.6473 13.0042L26.7252 12.9565C26.9325 12.8383 27.1219 12.6911 27.2877 12.5193L33.0654 6.31426C33.1805 6.20218 33.252 6.05285 33.2673 5.8929L34.711 4.44842C34.7747 4.382 34.8603 4.34098 34.9519 4.33298L35.1192 4.32144L35.7249 3.71536C36.0567 3.38635 36.097 2.87407 35.7985 2.57537L34.5928 1.36899L34.5841 1.36033L33.4245 0.200136C33.1361 -0.0884708 32.6241 -0.0653822 32.2851 0.272287L31.6794 0.879804L31.6693 1.0472C31.6593 1.13829 31.6186 1.22327 31.5539 1.28818L30.1189 2.724C29.9621 2.7512 29.8159 2.8211 29.6963 2.92602L23.4945 8.70826C23.3186 8.87425 23.1662 9.06361 23.0417 9.27104L22.9869 9.35762C22.9569 9.40903 22.9172 9.45413 22.87 9.49038C21.7162 10.4572 15.7193 15.3751 11.8555 17.2337C11.6925 17.303 9.82763 18.1659 7.25174 20.6003C6.74695 21.0765 6.271 21.5815 5.82967 22.101L0.464444 28.3465C0.291992 28.5467 0.161087 28.7792 0.0793592 29.0305C-0.085059 29.5254 0.00724592 30.0291 0.344736 30.3653L2.96245 32.9844L5.65083 35.6569C5.97967 35.9859 6.49023 36.0869 6.98492 35.9224C7.23299 35.8315 7.4652 35.7074 7.66856 35.5357L13.9092 30.169C14.4386 29.7174 14.9376 29.2354 15.4106 28.7462V28.7448ZM32.4798 1.17995L32.8173 0.842285L33.9625 1.98661L33.9697 1.99382L35.1769 3.20164L34.8379 3.54076C34.5859 3.59887 34.3551 3.72633 34.1716 3.90873L32.389 5.69232L32.4467 5.85538L31.2554 7.12525L30.0727 5.94196L28.8886 4.75868L30.1491 3.57539L30.3121 3.63167L32.0948 1.84808C32.2877 1.66947 32.422 1.43651 32.4798 1.17995ZM28.2482 5.36619L29.4554 6.57401L30.6626 7.78183L26.9358 11.7761L25.5498 10.3879L25.5339 10.3735L24.2561 9.09499L28.2482 5.36619ZM23.382 10.1109C23.4974 10.0099 23.6041 9.88721 23.6878 9.75734L24.9108 10.9796L24.9253 10.9955L26.2507 12.3202C26.1209 12.4039 26.0055 12.5034 25.906 12.6189C24.2546 14.6085 22.6767 16.658 21.1754 18.7633L19.1923 16.7806L19.1677 16.756L17.2567 14.844C19.3537 13.3391 21.3967 11.7604 23.382 10.1109ZM16.5226 15.3577L18.5519 17.3881L18.5764 17.4126L20.6763 19.5137C19.8196 20.7619 19.0033 22.0332 18.4062 23.1646L15.6082 20.3651L15.5779 20.3333L12.8665 17.6204C13.9972 17.023 15.2664 16.2236 16.5226 15.3577ZM13.4145 29.5673L7.17386 34.9339C7.06794 35.0266 6.94428 35.0968 6.81041 35.1403C6.72034 35.1755 6.62209 35.1841 6.52726 35.1652C6.43244 35.1463 6.34501 35.1006 6.27533 35.0335L3.59127 32.3668L0.982217 29.7549C0.916357 29.6862 0.871882 29.5998 0.854213 29.5063C0.836543 29.4128 0.846441 29.3162 0.882701 29.2282C0.92654 29.0941 0.997204 28.9704 1.09039 28.8645L6.45417 22.6191C6.8782 22.1169 7.33395 21.645 7.80413 21.1905C9.95311 19.1486 11.6045 18.2669 12.017 18.0562L14.9332 20.9726L14.9635 21.0043L17.9577 24.0001C17.737 24.4388 16.8572 26.0723 14.8265 28.2137C14.3866 28.6856 13.9165 29.1416 13.4131 29.5658L13.4145 29.5673Z" fill="#FB9B45"/>
</svg>
