<svg width="35" height="35" viewBox="0 0 35 35" fill="none" xmlns="http://www.w3.org/2000/svg">
<path d="M21.9203 20.0507C24.9492 17.2911 25.0702 14.9283 25.073 14.7022C25.1185 14.0478 25.8854 13.0151 26.187 12.668L32.8281 5.02063C33.2791 4.99929 33.733 4.54551 34.174 3.67352C34.3112 3.66491 34.4443 3.62329 34.5619 3.55221C34.6796 3.48113 34.7783 3.38269 34.8498 3.26526C35.379 2.3947 34.3646 1.25812 34.046 0.922411C33.7273 0.603771 32.6033 -0.379175 31.7412 0.157107C31.6248 0.229684 31.5271 0.328698 31.4562 0.446103C31.3852 0.563509 31.343 0.695994 31.3329 0.832793C30.4608 1.27377 30.0069 1.72897 29.9856 2.17848L22.3286 8.81159C22.0085 9.08613 20.9486 9.87846 20.2942 9.9254C20.0694 9.92682 17.7162 10.0392 14.9448 13.0762L0.931287 27.0281C0.359364 27.6455 -0.411737 28.8332 0.26262 29.5075L2.8377 32.0822L5.4953 34.738C6.16965 35.4137 7.36614 34.6328 7.9651 34.078L21.9217 20.0507H21.9203ZM9.30954 31.6811L6.30481 28.6754L6.2977 28.6682L3.3143 25.6853L14.3032 14.742L17.2482 17.688L17.2709 17.7107L20.2543 20.6923L9.30954 31.6811ZM30.7695 2.10735C30.8079 2.03907 31.0256 1.82001 31.6203 1.52413L32.5479 2.45017L33.484 3.38475C33.1852 3.97936 32.9675 4.19842 32.9007 4.23541C32.6501 4.2586 32.4184 4.37851 32.2548 4.5697L30.152 6.9979L29.0765 5.92249L28.008 4.8542L30.4366 2.75032C30.5324 2.6704 30.6113 2.57207 30.6685 2.46114C30.7257 2.35021 30.76 2.22894 30.7695 2.10451V2.10735ZM28.4647 6.53417L29.5773 7.64656L28.0977 9.35071L26.8727 8.12736L25.6492 6.90402L27.3507 5.42319L28.4647 6.53559V6.53417ZM33.4257 1.54404L33.4612 1.50848L33.4257 1.54404C33.871 1.98928 34.2224 2.60238 34.1925 2.86981L33.161 1.8385L32.1296 0.807188C32.38 0.778738 32.9789 1.11445 33.4257 1.54404ZM20.1647 10.722H20.1804C21.2531 10.6736 22.6246 9.50861 22.7796 9.38485L24.9834 7.4787L26.2524 8.74615L27.52 10.015L25.6136 12.2185C25.4813 12.365 24.3247 13.7448 24.2763 14.8159V14.833C24.2763 14.833 24.272 15.3707 23.9149 16.2029C23.5863 16.9767 22.892 18.1887 21.4352 19.513L21.4266 19.5216L20.8661 20.0806L17.8841 17.0976L17.8614 17.0763L14.9164 14.1317L15.467 13.5798L15.484 13.5627C18.0164 10.7775 20.1491 10.7234 20.1647 10.722ZM6.09852 34.1363L3.46369 31.5019L0.867266 28.9044C0.606913 28.6441 1.16034 27.8688 1.45057 27.5487L2.70254 26.2969L5.6774 29.2728L5.68594 29.2799L8.69067 32.2857L7.4387 33.536C7.23952 33.7366 6.38021 34.418 6.09852 34.1349V34.1363Z" fill="#FB9B45"/>
</svg>
