<svg width="36" height="36" viewBox="0 0 36 36" fill="none" xmlns="http://www.w3.org/2000/svg">
<path d="M8.59994 34.5027L25.6764 17.4326C27.5259 15.5839 28.2766 13.4133 28.1918 12.1972C28.0968 10.9164 28.7124 10.2566 28.7382 10.2307L34.0321 4.93935C34.2396 4.88255 34.4279 4.7708 34.5771 4.61592L35.2142 3.97911C35.3217 3.87343 35.3958 3.73845 35.4271 3.59099L35.801 3.0965C36.4151 2.27713 35.4414 1.17889 35.1222 0.861205C35.1078 0.84683 34.8202 0.559332 34.4376 0.317834C33.8264 -0.0616621 33.3072 -0.104787 32.8916 0.207148L32.3983 0.580894C32.2496 0.608747 32.1135 0.68327 32.01 0.793643L31.3715 1.43045C31.2229 1.58114 31.1171 1.7687 31.0652 1.97382L25.78 7.25515C25.7541 7.28246 25.094 7.8977 23.8126 7.80139C22.5787 7.71945 20.4157 8.47701 18.5648 10.3256L1.48833 27.3943C1.33013 27.5381 0.145104 28.6349 0.0113565 29.8625C-0.0490455 30.4404 0.13216 30.9406 0.539155 31.3474L0.63551 31.4423L2.58995 33.3786L4.55732 35.3623L4.65224 35.4586C5.06786 35.8726 5.5669 36.0538 6.13784 35.9862C7.36026 35.8453 8.46476 34.6508 8.59994 34.5013V34.5027ZM32.4645 1.37151C32.574 1.34721 32.677 1.29966 32.7665 1.23208L33.3029 0.82958C33.4252 0.737581 34.0076 0.983391 34.5023 1.47932C34.9913 1.96807 35.2674 2.579 35.1754 2.70119L34.7727 3.23593C34.7051 3.3254 34.6575 3.42835 34.6332 3.5378L34.0579 4.1128C34.0214 4.14846 33.9736 4.17031 33.9228 4.17461C33.8103 4.18748 33.706 4.23937 33.6279 4.32124L28.6807 9.26619L27.6596 8.24557L27.5992 8.18808L26.7407 7.3299L31.6893 2.3835C31.7712 2.30331 31.8208 2.19592 31.8288 2.08163C31.8327 2.03097 31.8541 1.98322 31.8892 1.94651L32.4645 1.37151ZM23.6113 8.60782C24.9099 8.70269 25.7613 8.19095 26.1151 7.92501L26.988 8.79757L27.047 8.85794L28.0681 9.87856C27.8035 10.2322 27.3001 11.0745 27.385 12.3798C27.4856 13.7885 26.3437 15.7291 25.1573 16.9136L24.0154 18.055L20.9752 15.0161L17.9407 11.983L19.0826 10.8417C20.2618 9.66581 22.1933 8.51726 23.6127 8.60782H23.6113ZM23.3955 18.6745L11.5596 30.5051L8.51941 27.4662L5.48493 24.4331L17.3208 12.6026L20.3553 15.6357L23.397 18.6745H23.3955ZM6.18674 35.1683C5.80419 35.2114 5.47774 35.0633 5.19298 34.7413L5.1786 34.727L3.21122 32.7432L1.25391 30.8084L1.23953 30.794C0.918824 30.5079 0.779324 30.1744 0.812402 29.8021C0.910195 28.8893 1.96148 27.9578 1.97011 27.9478L1.99599 27.9219L4.86509 25.0555L7.89957 28.0886L10.9398 31.1275L8.07071 33.9938L8.04482 34.0211C8.03619 34.0298 7.10427 35.0806 6.1853 35.1711L6.18674 35.1683Z" fill="#FB9B45"/>
</svg>
