<svg width="38" height="38" viewBox="0 0 38 38" fill="none" xmlns="http://www.w3.org/2000/svg">
<path d="M30.8214 20.5603C32.2067 19.2097 35.0811 16.4032 32.5808 13.1113C30.8186 10.7973 33.1499 8.79241 33.2452 8.71441L37.6768 4.27996C37.8751 4.08232 37.9869 3.81408 37.9878 3.53408C37.9886 3.25408 37.8783 2.9852 37.6811 2.78641L36.5833 1.69007L35.4884 0.593739C35.2915 0.396902 35.0246 0.285973 34.7462 0.285161C34.4677 0.284349 34.2002 0.393721 34.0021 0.589405L29.5966 4.99496L29.5691 5.02096C29.4824 5.12496 27.4862 7.44763 25.1636 5.69263C21.8803 3.20241 19.0738 6.07685 17.7146 7.45485C17.6106 7.55596 17.5167 7.65129 17.4213 7.74663L1.83433 23.3336C1.72166 23.4463 0.723552 24.4097 0.668664 25.6982C0.641219 26.445 0.940219 27.1397 1.53966 27.7565C2.26766 28.5018 3.00433 29.2385 3.66444 29.8986C4.78677 31.021 5.86577 32.0826 6.14889 32.3657C6.37133 32.5882 7.24666 33.478 8.36755 34.6017C9.01755 35.2517 9.75422 35.9884 10.5097 36.7251C11.1264 37.326 11.8212 37.625 12.568 37.5975C13.8564 37.56 14.8286 36.5532 14.9326 36.4318L30.5196 20.8448C30.6221 20.7582 30.7174 20.6643 30.8214 20.5603ZM34.8847 1.19607L35.9824 2.29385L37.0788 3.38874C37.1553 3.46674 37.164 3.59529 37.086 3.67329L32.8769 7.88096L31.73 6.73407L31.7127 6.71674L30.3924 5.39796L34.603 1.18885C34.681 1.11085 34.8096 1.11952 34.8861 1.19607H34.8847ZM30.2292 19.9522L29.9374 20.2454L14.349 35.8324L14.3317 35.8497C14.3244 35.8584 13.5314 36.702 12.5608 36.7309C12.0552 36.7395 11.5742 36.5344 11.1207 36.0982C9.67184 34.6857 8.24124 33.2546 6.82922 31.8053L6.76855 31.7461L6.71655 31.6941C5.18218 30.1962 3.66589 28.6799 2.168 27.1455C1.73177 26.692 1.518 26.2211 1.52811 25.7126C1.557 24.7434 2.40922 23.9417 2.41644 23.9331L18.0208 8.32874L18.314 8.03696C19.6732 6.64163 21.9468 4.31896 24.6464 6.36429C26.712 7.93007 28.7154 6.9724 29.7901 6.00029L31.1017 7.3104L31.119 7.32774L32.2572 8.46741C31.2851 9.54207 30.3188 11.5542 31.8932 13.6111C33.9472 16.3194 31.6159 18.6002 30.2292 19.9522ZM29.2716 14.9833L26.3754 12.0872L26.3581 12.0698L23.2916 9.00329C23.0281 8.74392 22.6731 8.5989 22.3034 8.59971C21.9337 8.60052 21.5793 8.7471 21.317 9.00763L5.80655 24.5181C5.57902 24.7457 5.45084 25.0541 5.45003 25.3759C5.44922 25.6977 5.57584 26.0068 5.80222 26.2355L9.01466 29.448L12.022 32.4553C12.1359 32.5691 12.2712 32.6593 12.4201 32.7206C12.569 32.782 12.7285 32.8134 12.8896 32.813C13.0506 32.8126 13.21 32.7804 13.3585 32.7183C13.5071 32.6562 13.642 32.5653 13.7553 32.451L29.2586 16.9492C29.3898 16.8217 29.4943 16.6694 29.5661 16.5011C29.6379 16.3328 29.6755 16.1519 29.6767 15.969C29.6779 15.786 29.6427 15.6046 29.5731 15.4354C29.5036 15.2662 29.4011 15.1125 29.2716 14.9833ZM13.1573 31.8688C13.0864 31.9391 12.9907 31.9786 12.8908 31.9786C12.791 31.9786 12.6952 31.9391 12.6243 31.8688L9.67766 28.9222L6.40455 25.6505C6.33479 25.5793 6.29584 25.4834 6.29611 25.3837C6.29638 25.284 6.33585 25.1884 6.406 25.1175L21.9164 9.60852C21.9669 9.55736 22.0269 9.51669 22.0931 9.48883C22.1593 9.46098 22.2304 9.44651 22.3022 9.44624C22.3741 9.44597 22.4452 9.45992 22.5116 9.48727C22.5781 9.51462 22.6384 9.55485 22.6892 9.60563L25.7558 12.6722L25.7731 12.6895L28.6692 15.5856C28.72 15.6364 28.7602 15.6968 28.7876 15.7632C28.8149 15.8296 28.8289 15.9008 28.8286 15.9726C28.8283 16.0444 28.8139 16.1155 28.786 16.1817C28.7582 16.2479 28.7175 16.308 28.6663 16.3584L13.1573 31.8688Z" fill="#FB9B45"/>
</svg>
