<svg width="35" height="35" viewBox="0 0 35 35" fill="none" xmlns="http://www.w3.org/2000/svg">
<path d="M31.3773 3.7966C31.3058 3.79369 31.2342 3.79321 31.1626 3.79523H28.4638V1.47593C28.4638 0.548205 27.5783 0 26.6505 0H24.1626C23.2349 0 22.5602 0.548205 22.5602 1.47593V3.79515H12.4397V1.47593C12.4397 0.548205 11.765 0 10.8373 0H8.34933C7.42169 0 6.5361 0.548205 6.5361 1.47593V3.79515H3.83737C2.11462 3.74712 0.679133 5.1048 0.631109 6.82747C0.629091 6.89898 0.629575 6.97065 0.632481 7.04217V31.4156C0.632481 33.271 1.98185 34.9999 3.83729 34.9999H31.1627C33.0181 34.9999 34.3675 33.271 34.3675 31.4156V7.04217C34.438 5.32023 33.0992 3.86714 31.3773 3.7966ZM24.1626 1.68675H26.7771V6.32527H24.1626V1.68675ZM8.34941 1.68675H10.7531V6.32527H8.34941V1.68675ZM32.6807 31.4156C32.6807 32.3433 32.0904 33.3132 31.1627 33.3132H3.83737C2.90965 33.3132 2.31931 32.3433 2.31931 31.4156V13.494H32.6807V31.4156ZM32.6807 7.04217V11.8072H2.31923V7.04217C2.2478 6.2536 2.82918 5.55639 3.61775 5.48496C3.69071 5.47834 3.76416 5.47737 3.83729 5.48197H6.5361V6.4097C6.5361 7.33742 7.42161 8.0121 8.34933 8.0121H10.8373C11.6987 8.03575 12.4161 7.35654 12.4397 6.49517C12.4405 6.46668 12.4405 6.43819 12.4397 6.4097V5.48189H22.5602V6.40961C22.5366 7.27099 23.2158 7.98837 24.0771 8.01202C24.1056 8.01283 24.1341 8.01283 24.1626 8.01202H26.6506C27.5783 8.01202 28.4638 7.33733 28.4638 6.40961V5.48189H31.1627C31.9529 5.43209 32.6339 6.03236 32.6837 6.82262C32.6883 6.89575 32.6873 6.9692 32.6807 7.04217Z" fill="#C33E6B"/>
</svg>
