<svg width="176" height="45" viewBox="0 0 176 45" fill="none" xmlns="http://www.w3.org/2000/svg">
<rect x="0.5" y="0.5" width="175" height="44" fill="#111111" stroke="white"/>
<path d="M67.9732 23.168H67.3252V29H65.9752V16.4H67.3252V22.268L67.9552 22.016L71.2312 16.4H72.7792L69.4852 21.836L68.8552 22.412L69.5932 23.132L73.2472 29H71.5372L67.9732 23.168ZM79.1722 24.986H76.0582V29H74.7622V20H76.0582V23.816H79.1722V20H80.4682V29H79.1722V24.986ZM82.1709 24.5C82.1709 22.88 82.4469 21.692 82.9989 20.936C83.5629 20.168 84.3609 19.784 85.3929 19.784C86.4969 19.784 87.3069 20.174 87.8229 20.954C88.3509 21.734 88.6149 22.916 88.6149 24.5C88.6149 26.132 88.3329 27.326 87.7689 28.082C87.2049 28.838 86.4129 29.216 85.3929 29.216C84.2889 29.216 83.4729 28.826 82.9449 28.046C82.4289 27.266 82.1709 26.084 82.1709 24.5ZM83.5209 24.5C83.5209 25.028 83.5509 25.508 83.6109 25.94C83.6829 26.372 83.7909 26.744 83.9349 27.056C84.0909 27.368 84.2889 27.614 84.5289 27.794C84.7689 27.962 85.0569 28.046 85.3929 28.046C86.0169 28.046 86.4849 27.77 86.7969 27.218C87.1089 26.654 87.2649 25.748 87.2649 24.5C87.2649 23.984 87.2289 23.51 87.1569 23.078C87.0969 22.634 86.9889 22.256 86.8329 21.944C86.6889 21.632 86.4969 21.392 86.2569 21.224C86.0169 21.044 85.7289 20.954 85.3929 20.954C84.7809 20.954 84.3129 21.236 83.9889 21.8C83.6769 22.364 83.5209 23.264 83.5209 24.5ZM94.6564 21.17H91.6324V29H90.3364V20H95.9524V29H94.6564V21.17ZM100.033 24.95H99.3668V29H98.0708V20H99.3668V24.068L99.9788 23.816L102.175 20H103.561L101.419 23.618L100.789 24.212L101.563 24.932L103.867 29H102.319L100.033 24.95ZM104.942 20.54C105.29 20.324 105.71 20.156 106.202 20.036C106.706 19.916 107.234 19.856 107.786 19.856C108.29 19.856 108.692 19.934 108.992 20.09C109.304 20.234 109.544 20.438 109.712 20.702C109.892 20.954 110.006 21.248 110.054 21.584C110.114 21.908 110.144 22.25 110.144 22.61C110.144 23.33 110.126 24.032 110.09 24.716C110.066 25.4 110.054 26.048 110.054 26.66C110.054 27.116 110.066 27.542 110.09 27.938C110.126 28.322 110.186 28.688 110.27 29.036H109.28L108.974 27.974H108.902C108.722 28.286 108.458 28.556 108.11 28.784C107.762 29.012 107.294 29.126 106.706 29.126C106.058 29.126 105.524 28.904 105.104 28.46C104.696 28.004 104.492 27.38 104.492 26.588C104.492 26.072 104.576 25.64 104.744 25.292C104.924 24.944 105.17 24.662 105.482 24.446C105.806 24.23 106.184 24.08 106.616 23.996C107.06 23.9 107.552 23.852 108.092 23.852C108.212 23.852 108.332 23.852 108.452 23.852C108.572 23.852 108.698 23.858 108.83 23.87C108.866 23.498 108.884 23.168 108.884 22.88C108.884 22.196 108.782 21.716 108.578 21.44C108.374 21.164 108.002 21.026 107.462 21.026C107.126 21.026 106.76 21.08 106.364 21.188C105.968 21.284 105.638 21.41 105.374 21.566L104.942 20.54ZM108.848 24.896C108.728 24.884 108.608 24.878 108.488 24.878C108.368 24.866 108.248 24.86 108.128 24.86C107.84 24.86 107.558 24.884 107.282 24.932C107.006 24.98 106.76 25.064 106.544 25.184C106.328 25.304 106.154 25.466 106.022 25.67C105.902 25.874 105.842 26.132 105.842 26.444C105.842 26.924 105.956 27.296 106.184 27.56C106.424 27.824 106.73 27.956 107.102 27.956C107.606 27.956 107.996 27.836 108.272 27.596C108.548 27.356 108.74 27.092 108.848 26.804V24.896Z" fill="white"/>
</svg>
