<svg width="177" height="35" viewBox="0 0 177 35" fill="none" xmlns="http://www.w3.org/2000/svg">
<line x1="177" y1="34" x2="8.74228e-08" y2="34" stroke="#A1A1A1" stroke-width="2"/>
<path d="M26.74 17.514C26.44 17.766 26.062 17.946 25.606 18.054C25.15 18.162 24.67 18.216 24.166 18.216C23.53 18.216 22.942 18.096 22.402 17.856C21.862 17.616 21.394 17.238 20.998 16.722C20.614 16.194 20.314 15.516 20.098 14.688C19.882 13.86 19.774 12.864 19.774 11.7C19.774 10.5 19.894 9.486 20.134 8.658C20.386 7.83 20.716 7.158 21.124 6.642C21.532 6.126 22 5.754 22.528 5.526C23.068 5.298 23.62 5.184 24.184 5.184C24.76 5.184 25.234 5.226 25.606 5.31C25.99 5.394 26.32 5.496 26.596 5.616L26.272 6.84C26.032 6.708 25.75 6.606 25.426 6.534C25.102 6.462 24.73 6.426 24.31 6.426C23.89 6.426 23.494 6.522 23.122 6.714C22.75 6.894 22.42 7.194 22.132 7.614C21.844 8.022 21.616 8.562 21.448 9.234C21.28 9.906 21.196 10.728 21.196 11.7C21.196 13.452 21.496 14.772 22.096 15.66C22.696 16.536 23.494 16.974 24.49 16.974C24.898 16.974 25.264 16.92 25.588 16.812C25.912 16.692 26.188 16.554 26.416 16.398L26.74 17.514ZM33.1784 17.388C32.8904 17.652 32.5244 17.856 32.0804 18C31.6364 18.144 31.1684 18.216 30.6764 18.216C30.1124 18.216 29.6204 18.108 29.2004 17.892C28.7924 17.664 28.4504 17.346 28.1744 16.938C27.9104 16.518 27.7124 16.02 27.5804 15.444C27.4604 14.868 27.4004 14.22 27.4004 13.5C27.4004 11.964 27.6824 10.794 28.2464 9.99C28.8104 9.186 29.6084 8.784 30.6404 8.784C30.9764 8.784 31.3064 8.826 31.6304 8.91C31.9664 8.994 32.2664 9.162 32.5304 9.414C32.7944 9.666 33.0044 10.02 33.1604 10.476C33.3284 10.932 33.4124 11.526 33.4124 12.258C33.4124 12.462 33.4004 12.684 33.3764 12.924C33.3644 13.152 33.3464 13.392 33.3224 13.644H28.7504C28.7504 14.16 28.7924 14.628 28.8764 15.048C28.9604 15.468 29.0924 15.828 29.2724 16.128C29.4524 16.416 29.6804 16.644 29.9564 16.812C30.2444 16.968 30.5984 17.046 31.0184 17.046C31.3424 17.046 31.6604 16.986 31.9724 16.866C32.2964 16.746 32.5424 16.602 32.7104 16.434L33.1784 17.388ZM32.1704 12.564C32.1944 11.664 32.0684 11.004 31.7924 10.584C31.5164 10.164 31.1384 9.954 30.6584 9.954C30.1064 9.954 29.6684 10.164 29.3444 10.584C29.0204 11.004 28.8284 11.664 28.7684 12.564H32.1704ZM38.8567 10.17H36.8947C36.8587 11.19 36.8107 12.18 36.7507 13.14C36.6907 14.088 36.5827 14.928 36.4267 15.66C36.2827 16.392 36.0727 16.98 35.7967 17.424C35.5207 17.856 35.1547 18.072 34.6987 18.072C34.4947 18.072 34.3207 18.06 34.1767 18.036C34.0327 18.012 33.9007 17.97 33.7807 17.91L33.9787 16.776C34.2307 16.848 34.4527 16.836 34.6447 16.74C34.8487 16.632 35.0227 16.32 35.1667 15.804C35.3107 15.276 35.4247 14.478 35.5087 13.41C35.6047 12.33 35.6707 10.86 35.7067 9H40.1527V18H38.8567V10.17ZM47.6628 17.388C47.3748 17.652 47.0088 17.856 46.5648 18C46.1208 18.144 45.6528 18.216 45.1608 18.216C44.5968 18.216 44.1048 18.108 43.6848 17.892C43.2768 17.664 42.9348 17.346 42.6588 16.938C42.3948 16.518 42.1968 16.02 42.0648 15.444C41.9448 14.868 41.8848 14.22 41.8848 13.5C41.8848 11.964 42.1668 10.794 42.7308 9.99C43.2948 9.186 44.0928 8.784 45.1248 8.784C45.4608 8.784 45.7908 8.826 46.1148 8.91C46.4508 8.994 46.7508 9.162 47.0148 9.414C47.2788 9.666 47.4888 10.02 47.6448 10.476C47.8128 10.932 47.8968 11.526 47.8968 12.258C47.8968 12.462 47.8848 12.684 47.8608 12.924C47.8488 13.152 47.8308 13.392 47.8068 13.644H43.2348C43.2348 14.16 43.2768 14.628 43.3608 15.048C43.4448 15.468 43.5768 15.828 43.7568 16.128C43.9368 16.416 44.1648 16.644 44.4408 16.812C44.7288 16.968 45.0828 17.046 45.5028 17.046C45.8268 17.046 46.1448 16.986 46.4568 16.866C46.7808 16.746 47.0268 16.602 47.1948 16.434L47.6628 17.388ZM46.6548 12.564C46.6788 11.664 46.5528 11.004 46.2768 10.584C46.0008 10.164 45.6228 9.954 45.1428 9.954C44.5908 9.954 44.1528 10.164 43.8288 10.584C43.5048 11.004 43.3128 11.664 43.2528 12.564H46.6548ZM51.6783 13.95H51.0123V18H49.7163V9H51.0123V13.068L51.6243 12.816L53.8203 9H55.2063L53.0643 12.618L52.4343 13.212L53.2083 13.932L55.5123 18H53.9643L51.6783 13.95ZM61.3572 10.17H59.1432V18H57.8472V10.17H55.6332V9H61.3572V10.17Z" fill="white"/>
<path d="M160.773 6L165.392 12.2222H156.155L160.773 6Z" fill="white"/>
<path d="M160.773 22L156.155 15.7778L165.392 15.7778L160.773 22Z" fill="white"/>
</svg>
