<svg xmlns="http://www.w3.org/2000/svg" width="29.091" height="28.182" viewBox="0 0 29.091 28.182">
  <g id="github" transform="translate(0 0)">
    <path id="Shape" d="M27.14,7.194a14.432,14.432,0,0,0-5.293-5.257A14.3,14.3,0,0,0,14.545,0a14.305,14.305,0,0,0-7.3,1.937A14.431,14.431,0,0,0,1.951,7.194,14.053,14.053,0,0,0,0,14.444a13.972,13.972,0,0,0,2.775,8.491,14.24,14.24,0,0,0,7.168,5.219.852.852,0,0,0,.757-.131.733.733,0,0,0,.246-.564q0-.056-.01-1.016t-.01-1.674l-.436.075a5.6,5.6,0,0,1-1.051.066,8.063,8.063,0,0,1-1.316-.132,2.951,2.951,0,0,1-1.269-.564,2.387,2.387,0,0,1-.833-1.156l-.189-.433a4.694,4.694,0,0,0-.6-.959,2.281,2.281,0,0,0-.824-.715l-.133-.094a1.387,1.387,0,0,1-.246-.226,1.031,1.031,0,0,1-.17-.263q-.057-.132.095-.217a1.236,1.236,0,0,1,.549-.084l.379.056a2.773,2.773,0,0,1,.938.451,3.044,3.044,0,0,1,.918.978,3.323,3.323,0,0,0,1.051,1.176,2.24,2.24,0,0,0,1.24.4,5.422,5.422,0,0,0,1.08-.094,3.785,3.785,0,0,0,.852-.282,3.039,3.039,0,0,1,.928-1.937,13.051,13.051,0,0,1-1.941-.339,7.76,7.76,0,0,1-1.78-.734,5.09,5.09,0,0,1-1.525-1.26,6.04,6.04,0,0,1-.994-1.975,9.33,9.33,0,0,1-.388-2.821,5.464,5.464,0,0,1,1.5-3.874A5.023,5.023,0,0,1,6.894,5.98a2.671,2.671,0,0,1,1.629.254,11.424,11.424,0,0,1,1.581.724q.5.3.8.508a13.77,13.77,0,0,1,7.273,0l.72-.451a10.224,10.224,0,0,1,1.742-.828,2.5,2.5,0,0,1,1.535-.207,4.975,4.975,0,0,1,.151,3.836,5.465,5.465,0,0,1,1.5,3.874,9.434,9.434,0,0,1-.388,2.83,5.805,5.805,0,0,1-1,1.975A5.287,5.287,0,0,1,20.9,19.747a7.774,7.774,0,0,1-1.78.734,13.037,13.037,0,0,1-1.941.339,3.337,3.337,0,0,1,.985,2.67v3.968a.747.747,0,0,0,.237.564.827.827,0,0,0,.748.131,14.238,14.238,0,0,0,7.169-5.219,13.975,13.975,0,0,0,2.774-8.491A14.065,14.065,0,0,0,27.14,7.194Z" fill="#E5E5E5"/>
  </g>
</svg>
