<svg xmlns="http://www.w3.org/2000/svg" width="29.091" height="29.091" viewBox="0 0 29.091 29.091">
  <g id="instagram" transform="translate(0)">
    <path id="Path" d="M2.911,5.824A2.907,2.907,0,1,0,0,2.911,2.917,2.917,0,0,0,2.911,5.824Z" transform="translate(11.634 11.634)" fill="#E5E5E5"/>
    <path id="Path-2" data-name="Path" d="M2.8,2.8V0H2.44L0,.009l.009,2.8Z" transform="translate(18.099 8.179)" fill="#E5E5E5"/>
    <path id="Shape" d="M14.546,29.091A14.545,14.545,0,1,1,29.091,14.546,14.562,14.562,0,0,1,14.546,29.091ZM9.471,6.274a3.2,3.2,0,0,0-3.2,3.2v10.15a3.2,3.2,0,0,0,3.2,3.2h10.15a3.2,3.2,0,0,0,3.2-3.2V9.471a3.2,3.2,0,0,0-3.2-3.2Z" fill="#E5E5E5"/>
    <path id="Path-3" data-name="Path" d="M11.186,1.7A4.525,4.525,0,1,1,2.47,0H0V6.773A1.585,1.585,0,0,0,1.585,8.357H11.735A1.586,1.586,0,0,0,13.32,6.773V0H10.85A4.463,4.463,0,0,1,11.186,1.7Z" transform="translate(7.884 12.848)" fill="#E5E5E5"/>
  </g>
</svg>
