<svg width="156" height="137" viewBox="0 0 156 137" fill="none" xmlns="http://www.w3.org/2000/svg">
<path d="M35 105.573V81C35 49.5198 60.5198 24 92 24H132.259" stroke="white" stroke-opacity="0.4" stroke-dasharray="2 5"/>
<rect x="93.5" y="82.5" width="42" height="44" rx="16.5" fill="black" stroke="#717171"/>
<path d="M107.201 104.209C107.201 105.478 106.984 106.422 106.551 107.039C106.117 107.656 105.439 107.964 104.518 107.964C103.607 107.964 102.934 107.664 102.496 107.062C102.059 106.457 101.832 105.554 101.816 104.355V102.908C101.816 101.654 102.033 100.722 102.467 100.113C102.9 99.5035 103.58 99.1989 104.506 99.1989C105.424 99.1989 106.1 99.4938 106.533 100.084C106.967 100.67 107.189 101.576 107.201 102.802V104.209ZM106.117 102.726C106.117 101.808 105.988 101.14 105.73 100.722C105.473 100.3 105.064 100.089 104.506 100.089C103.951 100.089 103.547 100.298 103.293 100.716C103.039 101.134 102.908 101.777 102.9 102.644V104.379C102.9 105.3 103.033 105.982 103.299 106.423C103.568 106.861 103.975 107.08 104.518 107.08C105.053 107.08 105.449 106.873 105.707 106.459C105.969 106.045 106.105 105.392 106.117 104.502V102.726ZM108.725 107.279C108.725 107.091 108.779 106.935 108.889 106.81C109.002 106.685 109.17 106.623 109.393 106.623C109.615 106.623 109.783 106.685 109.896 106.81C110.014 106.935 110.072 107.091 110.072 107.279C110.072 107.459 110.014 107.609 109.896 107.73C109.783 107.851 109.615 107.912 109.393 107.912C109.17 107.912 109.002 107.851 108.889 107.73C108.779 107.609 108.725 107.459 108.725 107.279ZM117.262 99.9254L113.729 107.847H112.592L116.113 100.207H111.496V99.316H117.262V99.9254ZM118.99 103.57L119.424 99.316H123.795V100.318H120.344L120.086 102.644C120.504 102.398 120.979 102.275 121.51 102.275C122.287 102.275 122.904 102.533 123.361 103.048C123.818 103.56 124.047 104.254 124.047 105.129C124.047 106.007 123.809 106.701 123.332 107.209C122.859 107.713 122.197 107.964 121.346 107.964C120.592 107.964 119.977 107.755 119.5 107.338C119.023 106.92 118.752 106.341 118.686 105.603H119.711C119.777 106.091 119.951 106.461 120.232 106.711C120.514 106.957 120.885 107.08 121.346 107.08C121.85 107.08 122.244 106.908 122.529 106.564C122.818 106.22 122.963 105.746 122.963 105.14C122.963 104.57 122.807 104.113 122.494 103.769C122.186 103.422 121.773 103.248 121.258 103.248C120.785 103.248 120.414 103.351 120.145 103.558L119.857 103.793L118.99 103.57Z" fill="white"/>
</svg>
