<svg width="156" height="137" viewBox="0 0 156 137" fill="none" xmlns="http://www.w3.org/2000/svg">
<path d="M117.652 106V85C117.652 53.5198 92.1318 28 60.6516 28H16" stroke="white" stroke-opacity="0.4" stroke-dasharray="2 5"/>
<rect x="16.5" y="86.5" width="42.2774" height="42" rx="16.5" fill="black" stroke="#717171"/>
<path d="M33.5899 112H32.5V104.775L30.3145 105.578V104.594L33.42 103.428H33.5899V112ZM36.9004 111.432C36.9004 111.244 36.9551 111.088 37.0645 110.963C37.1778 110.838 37.3457 110.775 37.5684 110.775C37.7911 110.775 37.959 110.838 38.0723 110.963C38.1895 111.088 38.2481 111.244 38.2481 111.432C38.2481 111.611 38.1895 111.762 38.0723 111.883C37.959 112.004 37.7911 112.064 37.5684 112.064C37.3457 112.064 37.1778 112.004 37.0645 111.883C36.9551 111.762 36.9004 111.611 36.9004 111.432ZM40.4278 107.723L40.8614 103.469H45.2325V104.471H41.7813L41.5235 106.797C41.9414 106.551 42.4161 106.428 42.9473 106.428C43.7246 106.428 44.3418 106.686 44.7989 107.201C45.2559 107.713 45.4844 108.406 45.4844 109.281C45.4844 110.16 45.2461 110.854 44.7696 111.361C44.2969 111.865 43.6348 112.117 42.7832 112.117C42.0293 112.117 41.4141 111.908 40.9375 111.49C40.461 111.072 40.1895 110.494 40.1231 109.756H41.1485C41.2149 110.244 41.3887 110.613 41.67 110.863C41.9512 111.109 42.3223 111.232 42.7832 111.232C43.2871 111.232 43.6817 111.061 43.9668 110.717C44.2559 110.373 44.4004 109.898 44.4004 109.293C44.4004 108.723 44.2442 108.266 43.9317 107.922C43.6231 107.574 43.211 107.4 42.6953 107.4C42.2227 107.4 41.8516 107.504 41.5821 107.711L41.295 107.945L40.4278 107.723Z" fill="white"/>
</svg>
