<svg width="156" height="137" viewBox="0 0 156 137" fill="none" xmlns="http://www.w3.org/2000/svg">
<path d="M117 29.9999V50.9999C117 82.4801 91.4802 108 60 108H16" stroke="white" stroke-opacity="0.4" stroke-dasharray="2 5"/>
<rect x="16.5" y="7.5" width="42" height="42" rx="16.5" fill="black" stroke="#717171"/>
<path d="M28.2949 33H27.2051V25.7754L25.0195 26.5781V25.5938L28.125 24.4277H28.2949V33ZM35.625 29.25C35.3984 29.5195 35.127 29.7363 34.8105 29.9004C34.498 30.0645 34.1543 30.1465 33.7793 30.1465C33.2871 30.1465 32.8574 30.0254 32.4902 29.7832C32.127 29.541 31.8457 29.2012 31.6465 28.7637C31.4473 28.3223 31.3477 27.8359 31.3477 27.3047C31.3477 26.7344 31.4551 26.2207 31.6699 25.7637C31.8887 25.3066 32.1973 24.957 32.5957 24.7148C32.9941 24.4727 33.459 24.3516 33.9902 24.3516C34.834 24.3516 35.498 24.668 35.9824 25.3008C36.4707 25.9297 36.7148 26.7891 36.7148 27.8789V28.1953C36.7148 29.8555 36.3867 31.0684 35.7305 31.834C35.0742 32.5957 34.084 32.9863 32.7598 33.0059H32.5488V32.0918H32.7773C33.6719 32.0762 34.3594 31.8438 34.8398 31.3945C35.3203 30.9414 35.582 30.2266 35.625 29.25ZM33.9551 29.25C34.3184 29.25 34.6523 29.1387 34.957 28.916C35.2656 28.6934 35.4902 28.418 35.6309 28.0898V27.6562C35.6309 26.9453 35.4766 26.3672 35.168 25.9219C34.8594 25.4766 34.4688 25.2539 33.9961 25.2539C33.5195 25.2539 33.1367 25.4375 32.8477 25.8047C32.5586 26.168 32.4141 26.6484 32.4141 27.2461C32.4141 27.8281 32.5527 28.3086 32.8301 28.6875C33.1113 29.0625 33.4863 29.25 33.9551 29.25ZM43.3828 26.6953C43.3828 27.1211 43.2695 27.5 43.043 27.832C42.8203 28.1641 42.5176 28.4238 42.1348 28.6113C42.5801 28.8027 42.9316 29.082 43.1895 29.4492C43.4512 29.8164 43.582 30.2324 43.582 30.6973C43.582 31.4355 43.332 32.0234 42.832 32.4609C42.3359 32.8984 41.6816 33.1172 40.8691 33.1172C40.0488 33.1172 39.3906 32.8984 38.8945 32.4609C38.4023 32.0195 38.1562 31.4316 38.1562 30.6973C38.1562 30.2363 38.2812 29.8203 38.5312 29.4492C38.7852 29.0781 39.1348 28.7969 39.5801 28.6055C39.2012 28.418 38.9023 28.1582 38.6836 27.8262C38.4648 27.4941 38.3555 27.1172 38.3555 26.6953C38.3555 25.9766 38.5859 25.4062 39.0469 24.9844C39.5078 24.5625 40.1152 24.3516 40.8691 24.3516C41.6191 24.3516 42.2246 24.5625 42.6855 24.9844C43.1504 25.4062 43.3828 25.9766 43.3828 26.6953ZM42.498 30.6738C42.498 30.1973 42.3457 29.8086 42.041 29.5078C41.7402 29.207 41.3457 29.0566 40.8574 29.0566C40.3691 29.0566 39.9766 29.2051 39.6797 29.502C39.3867 29.7988 39.2402 30.1895 39.2402 30.6738C39.2402 31.1582 39.3828 31.5391 39.668 31.8164C39.957 32.0938 40.3574 32.2324 40.8691 32.2324C41.377 32.2324 41.7754 32.0938 42.0645 31.8164C42.3535 31.5352 42.498 31.1543 42.498 30.6738ZM40.8691 25.2422C40.4434 25.2422 40.0977 25.375 39.832 25.6406C39.5703 25.9023 39.4395 26.2598 39.4395 26.7129C39.4395 27.1465 39.5684 27.498 39.8262 27.7676C40.0879 28.0332 40.4355 28.166 40.8691 28.166C41.3027 28.166 41.6484 28.0332 41.9062 27.7676C42.168 27.498 42.2988 27.1465 42.2988 26.7129C42.2988 26.2793 42.1641 25.9258 41.8945 25.6523C41.625 25.3789 41.2832 25.2422 40.8691 25.2422ZM50.4551 25.0781L46.9219 33H45.7852L49.3066 25.3594H44.6895V24.4688H50.4551V25.0781Z" fill="white"/>
</svg>
