<svg width="123" height="87" viewBox="0 0 123 87" fill="none" xmlns="http://www.w3.org/2000/svg">
    <path id="img-test-class1" d="M22 7.99988V28.9999C22 60.4801 47.5198 85.9999 79 85.9999H123" stroke="white" stroke-opacity="0.4"
          stroke-dasharray="2 5"/>
    <rect id="img-test-class2" x="0.5" y="0.5" width="42" height="42" rx="16.5" fill="black" stroke="#717171"/>
    <path id="img-test-class3"
            d="M12.2949 26H11.2051V18.7754L9.01953 19.5781V18.5938L12.125 17.4277H12.2949V26ZM19.625 22.25C19.3984 22.5195 19.127 22.7363 18.8105 22.9004C18.498 23.0645 18.1543 23.1465 17.7793 23.1465C17.2871 23.1465 16.8574 23.0254 16.4902 22.7832C16.127 22.541 15.8457 22.2012 15.6465 21.7637C15.4473 21.3223 15.3477 20.8359 15.3477 20.3047C15.3477 19.7344 15.4551 19.2207 15.6699 18.7637C15.8887 18.3066 16.1973 17.957 16.5957 17.7148C16.9941 17.4727 17.459 17.3516 17.9902 17.3516C18.834 17.3516 19.498 17.668 19.9824 18.3008C20.4707 18.9297 20.7148 19.7891 20.7148 20.8789V21.1953C20.7148 22.8555 20.3867 24.0684 19.7305 24.834C19.0742 25.5957 18.084 25.9863 16.7598 26.0059H16.5488V25.0918H16.7773C17.6719 25.0762 18.3594 24.8438 18.8398 24.3945C19.3203 23.9414 19.582 23.2266 19.625 22.25ZM17.9551 22.25C18.3184 22.25 18.6523 22.1387 18.957 21.916C19.2656 21.6934 19.4902 21.418 19.6309 21.0898V20.6562C19.6309 19.9453 19.4766 19.3672 19.168 18.9219C18.8594 18.4766 18.4688 18.2539 17.9961 18.2539C17.5195 18.2539 17.1367 18.4375 16.8477 18.8047C16.5586 19.168 16.4141 19.6484 16.4141 20.2461C16.4141 20.8281 16.5527 21.3086 16.8301 21.6875C17.1113 22.0625 17.4863 22.25 17.9551 22.25ZM27.3828 19.6953C27.3828 20.1211 27.2695 20.5 27.043 20.832C26.8203 21.1641 26.5176 21.4238 26.1348 21.6113C26.5801 21.8027 26.9316 22.082 27.1895 22.4492C27.4512 22.8164 27.582 23.2324 27.582 23.6973C27.582 24.4355 27.332 25.0234 26.832 25.4609C26.3359 25.8984 25.6816 26.1172 24.8691 26.1172C24.0488 26.1172 23.3906 25.8984 22.8945 25.4609C22.4023 25.0195 22.1562 24.4316 22.1562 23.6973C22.1562 23.2363 22.2812 22.8203 22.5312 22.4492C22.7852 22.0781 23.1348 21.7969 23.5801 21.6055C23.2012 21.418 22.9023 21.1582 22.6836 20.8262C22.4648 20.4941 22.3555 20.1172 22.3555 19.6953C22.3555 18.9766 22.5859 18.4062 23.0469 17.9844C23.5078 17.5625 24.1152 17.3516 24.8691 17.3516C25.6191 17.3516 26.2246 17.5625 26.6855 17.9844C27.1504 18.4062 27.3828 18.9766 27.3828 19.6953ZM26.498 23.6738C26.498 23.1973 26.3457 22.8086 26.041 22.5078C25.7402 22.207 25.3457 22.0566 24.8574 22.0566C24.3691 22.0566 23.9766 22.2051 23.6797 22.502C23.3867 22.7988 23.2402 23.1895 23.2402 23.6738C23.2402 24.1582 23.3828 24.5391 23.668 24.8164C23.957 25.0938 24.3574 25.2324 24.8691 25.2324C25.377 25.2324 25.7754 25.0938 26.0645 24.8164C26.3535 24.5352 26.498 24.1543 26.498 23.6738ZM24.8691 18.2422C24.4434 18.2422 24.0977 18.375 23.832 18.6406C23.5703 18.9023 23.4395 19.2598 23.4395 19.7129C23.4395 20.1465 23.5684 20.498 23.8262 20.7676C24.0879 21.0332 24.4355 21.166 24.8691 21.166C25.3027 21.166 25.6484 21.0332 25.9062 20.7676C26.168 20.498 26.2988 20.1465 26.2988 19.7129C26.2988 19.2793 26.1641 18.9258 25.8945 18.6523C25.625 18.3789 25.2832 18.2422 24.8691 18.2422ZM33.2012 17.4629V18.3828H33.002C32.1582 18.3984 31.4863 18.6484 30.9863 19.1328C30.4863 19.6172 30.1973 20.2988 30.1191 21.1777C30.5684 20.6621 31.1816 20.4043 31.959 20.4043C32.7012 20.4043 33.293 20.666 33.7344 21.1895C34.1797 21.7129 34.4023 22.3887 34.4023 23.2168C34.4023 24.0957 34.1621 24.7988 33.6816 25.3262C33.2051 25.8535 32.5645 26.1172 31.7598 26.1172C30.9434 26.1172 30.2812 25.8047 29.7734 25.1797C29.2656 24.5508 29.0117 23.7422 29.0117 22.7539V22.3379C29.0117 20.7676 29.3457 19.5684 30.0137 18.7402C30.6855 17.9082 31.6836 17.4824 33.0078 17.4629H33.2012ZM31.7773 21.3066C31.4062 21.3066 31.0645 21.418 30.752 21.6406C30.4395 21.8633 30.2227 22.1426 30.1016 22.4785V22.877C30.1016 23.5801 30.2598 24.1465 30.5762 24.5762C30.8926 25.0059 31.2871 25.2207 31.7598 25.2207C32.248 25.2207 32.6309 25.041 32.9082 24.6816C33.1895 24.3223 33.3301 23.8516 33.3301 23.2695C33.3301 22.6836 33.1875 22.2109 32.9023 21.8516C32.6211 21.4883 32.2461 21.3066 31.7773 21.3066Z"
          fill="white"/>
</svg>
