<svg width="156" height="137" viewBox="0 0 156 137" fill="none" xmlns="http://www.w3.org/2000/svg">
<path d="M35 29.9999V50.9999C35 82.4801 60.5198 108 92 108H136" stroke="white" stroke-opacity="0.4" stroke-dasharray="2 5"/>
<rect x="93.5" y="7.5" width="42" height="42" rx="16.5" fill="black" stroke="#717171"/>
<path d="M105.295 33H104.205V25.7754L102.02 26.5781V25.5938L105.125 24.4277H105.295V33ZM112.625 29.25C112.398 29.5195 112.127 29.7363 111.811 29.9004C111.498 30.0645 111.154 30.1465 110.779 30.1465C110.287 30.1465 109.857 30.0254 109.49 29.7832C109.127 29.541 108.846 29.2012 108.646 28.7637C108.447 28.3223 108.348 27.8359 108.348 27.3047C108.348 26.7344 108.455 26.2207 108.67 25.7637C108.889 25.3066 109.197 24.957 109.596 24.7148C109.994 24.4727 110.459 24.3516 110.99 24.3516C111.834 24.3516 112.498 24.668 112.982 25.3008C113.471 25.9297 113.715 26.7891 113.715 27.8789V28.1953C113.715 29.8555 113.387 31.0684 112.73 31.834C112.074 32.5957 111.084 32.9863 109.76 33.0059H109.549V32.0918H109.777C110.672 32.0762 111.359 31.8438 111.84 31.3945C112.32 30.9414 112.582 30.2266 112.625 29.25ZM110.955 29.25C111.318 29.25 111.652 29.1387 111.957 28.916C112.266 28.6934 112.49 28.418 112.631 28.0898V27.6562C112.631 26.9453 112.477 26.3672 112.168 25.9219C111.859 25.4766 111.469 25.2539 110.996 25.2539C110.52 25.2539 110.137 25.4375 109.848 25.8047C109.559 26.168 109.414 26.6484 109.414 27.2461C109.414 27.8281 109.553 28.3086 109.83 28.6875C110.111 29.0625 110.486 29.25 110.955 29.25ZM120.383 26.6953C120.383 27.1211 120.27 27.5 120.043 27.832C119.82 28.1641 119.518 28.4238 119.135 28.6113C119.58 28.8027 119.932 29.082 120.189 29.4492C120.451 29.8164 120.582 30.2324 120.582 30.6973C120.582 31.4355 120.332 32.0234 119.832 32.4609C119.336 32.8984 118.682 33.1172 117.869 33.1172C117.049 33.1172 116.391 32.8984 115.895 32.4609C115.402 32.0195 115.156 31.4316 115.156 30.6973C115.156 30.2363 115.281 29.8203 115.531 29.4492C115.785 29.0781 116.135 28.7969 116.58 28.6055C116.201 28.418 115.902 28.1582 115.684 27.8262C115.465 27.4941 115.355 27.1172 115.355 26.6953C115.355 25.9766 115.586 25.4062 116.047 24.9844C116.508 24.5625 117.115 24.3516 117.869 24.3516C118.619 24.3516 119.225 24.5625 119.686 24.9844C120.15 25.4062 120.383 25.9766 120.383 26.6953ZM119.498 30.6738C119.498 30.1973 119.346 29.8086 119.041 29.5078C118.74 29.207 118.346 29.0566 117.857 29.0566C117.369 29.0566 116.977 29.2051 116.68 29.502C116.387 29.7988 116.24 30.1895 116.24 30.6738C116.24 31.1582 116.383 31.5391 116.668 31.8164C116.957 32.0938 117.357 32.2324 117.869 32.2324C118.377 32.2324 118.775 32.0938 119.064 31.8164C119.354 31.5352 119.498 31.1543 119.498 30.6738ZM117.869 25.2422C117.443 25.2422 117.098 25.375 116.832 25.6406C116.57 25.9023 116.439 26.2598 116.439 26.7129C116.439 27.1465 116.568 27.498 116.826 27.7676C117.088 28.0332 117.436 28.166 117.869 28.166C118.303 28.166 118.648 28.0332 118.906 27.7676C119.168 27.498 119.299 27.1465 119.299 26.7129C119.299 26.2793 119.164 25.9258 118.895 25.6523C118.625 25.3789 118.283 25.2422 117.869 25.2422ZM126.201 24.4629V25.3828H126.002C125.158 25.3984 124.486 25.6484 123.986 26.1328C123.486 26.6172 123.197 27.2988 123.119 28.1777C123.568 27.6621 124.182 27.4043 124.959 27.4043C125.701 27.4043 126.293 27.666 126.734 28.1895C127.18 28.7129 127.402 29.3887 127.402 30.2168C127.402 31.0957 127.162 31.7988 126.682 32.3262C126.205 32.8535 125.564 33.1172 124.76 33.1172C123.943 33.1172 123.281 32.8047 122.773 32.1797C122.266 31.5508 122.012 30.7422 122.012 29.7539V29.3379C122.012 27.7676 122.346 26.5684 123.014 25.7402C123.686 24.9082 124.684 24.4824 126.008 24.4629H126.201ZM124.777 28.3066C124.406 28.3066 124.064 28.418 123.752 28.6406C123.439 28.8633 123.223 29.1426 123.102 29.4785V29.877C123.102 30.5801 123.26 31.1465 123.576 31.5762C123.893 32.0059 124.287 32.2207 124.76 32.2207C125.248 32.2207 125.631 32.041 125.908 31.6816C126.189 31.3223 126.33 30.8516 126.33 30.2695C126.33 29.6836 126.188 29.2109 125.902 28.8516C125.621 28.4883 125.246 28.3066 124.777 28.3066Z" fill="white"/>
</svg>
