<svg xmlns="http://www.w3.org/2000/svg" width="28.182" height="28.182" viewBox="0 0 28.182 28.182">
  <g id="linkedin" transform="translate(0 0)">
    <path id="Shape" d="M14.091,28.182A14.09,14.09,0,0,1,4.127,4.127,14.09,14.09,0,1,1,24.054,24.054,14,14,0,0,1,14.091,28.182Zm2.992-14.039A1.636,1.636,0,0,1,18.3,14.6a3.435,3.435,0,0,1,.6,2.413c0,.068,0,.128,0,.179v4.663a.513.513,0,0,0,.512.512h2.545a.513.513,0,0,0,.512-.512V17.007a9.8,9.8,0,0,0-.506-3.719,3.488,3.488,0,0,0-3.546-2.144,3.488,3.488,0,0,0-3.285,1.546v-.867a.513.513,0,0,0-.512-.513H12.16a.513.513,0,0,0-.512.513v10.03a.513.513,0,0,0,.512.512h2.462a.513.513,0,0,0,.512-.512V16.475C15.2,15.774,15.51,14.143,17.084,14.143ZM7.15,11.31a.558.558,0,0,0-.557.557v9.94a.558.558,0,0,0,.557.557H9.521a.557.557,0,0,0,.556-.557v-9.94a.557.557,0,0,0-.556-.557ZM8.335,5.868a2.253,2.253,0,1,0,2.253,2.253A2.255,2.255,0,0,0,8.335,5.868Z" fill="#E5E5E5"/>
  </g>
</svg>
