<svg width="36" height="36" viewBox="0 0 36 36" fill="none" xmlns="http://www.w3.org/2000/svg">
<path d="M15.4221 26.1025C14.8395 26.1025 14.3674 26.5747 14.3674 27.1572C14.3674 27.7398 14.8395 28.2119 15.4221 28.2119H22.8974V29.2669C22.8974 29.8491 23.3696 30.3216 23.9521 30.3216C24.5344 30.3216 25.0068 29.8491 25.0068 29.2669V12.2004C25.0068 11.6182 24.5344 11.1458 23.9521 11.1458C23.3696 11.1458 22.8974 11.6182 22.8974 12.2004V13.2554H15.4221C14.8395 13.2554 14.3674 13.7275 14.3674 14.3101C14.3674 14.8926 14.8395 15.3648 15.4221 15.3648H22.8974V17.5379H19.6872C19.1047 17.5379 18.6325 18.01 18.6325 18.5926C18.6325 19.1748 19.1047 19.6472 19.6872 19.6472H22.8974V21.8201H19.6872C19.1047 21.8201 18.6325 22.2925 18.6325 22.8748C18.6325 23.4573 19.1047 23.9294 19.6872 23.9294H22.8974V26.1025H15.4221Z" fill="#C33E6B"/>
<path d="M31.0147 0C29.284 0 27.819 1.15823 27.3474 2.74219H2.3203C1.89925 2.74219 1.51884 2.9924 1.35213 3.37885C1.18513 3.76556 1.26424 4.21408 1.5529 4.52032L6.98564 10.2827V30.6631C6.98564 33.6058 9.37187 36 12.3052 36H23.9771C26.9104 36 29.2967 33.6058 29.2967 30.6631V3.83835C29.2967 2.88501 30.0674 2.10938 31.0147 2.10938C31.962 2.10938 32.7324 2.88501 32.7324 3.83835V17.9102C32.7324 18.4927 33.2048 18.9649 33.7871 18.9649C34.3696 18.9649 34.8418 18.4927 34.8418 17.9102V3.83835C34.8418 1.72183 33.1249 0 31.0147 0V0ZM27.1876 30.6631C27.1876 32.4429 25.7475 33.8906 23.9771 33.8906H12.3052C10.535 33.8906 9.09502 32.4429 9.09502 30.6631V9.86407C9.09502 9.59518 8.99229 9.33618 8.80772 9.14035L4.76421 4.85156H27.1876V30.6631Z" fill="#C33E6B"/>
</svg>
