<svg xmlns="http://www.w3.org/2000/svg" width="16.962" height="16.967" viewBox="0 0 16.962 16.967">
  <g id="pen" transform="translate(-0.015 -0.016)">
    <path id="Combined_Shape" data-name="Combined Shape" d="M.16,16.837a.5.5,0,0,1-.126-.488l1.325-4.642L5.29,15.638.649,16.963a.462.462,0,0,1-.137.02A.5.5,0,0,1,.16,16.837Zm1.76-5.98,8.646-8.646,4.221,4.221L6.141,15.08Zm9.347-9.35L12.323.452a1.5,1.5,0,0,1,2.115,0l2.108,2.109a1.5,1.5,0,0,1,0,2.109L15.487,5.728Z" transform="translate(0)" fill="#7f7f7f"/>
  </g>
</svg>
