<svg xmlns="http://www.w3.org/2000/svg" width="16.974" height="16.963" viewBox="0 0 16.974 16.963">
  <g id="phone-receiver" transform="translate(17) rotate(180)">
    <path id="Path" d="M-16.966,13.387a.82.82,0,0,0,.252.719l2.39,2.372a1.345,1.345,0,0,0,.422.305,1.745,1.745,0,0,0,.512.162q.018,0,.108.009t.234.009a8.284,8.284,0,0,0,1.105-.117,8.393,8.393,0,0,0,1.869-.575A15.686,15.686,0,0,0-7.568,14.9a18.689,18.689,0,0,0,2.983-2.516A19.69,19.69,0,0,0-2.5,10.009a16.9,16.9,0,0,0,1.33-2.093A11.275,11.275,0,0,0-.416,6.172,9.247,9.247,0,0,0-.075,4.825,4.451,4.451,0,0,0,0,3.935q-.018-.323-.018-.359a1.747,1.747,0,0,0-.162-.512,1.347,1.347,0,0,0-.305-.422L-2.878.252A.791.791,0,0,0-3.453,0a.67.67,0,0,0-.413.135,1.249,1.249,0,0,0-.305.332L-6.094,4.115a.874.874,0,0,0-.09.629,1.12,1.12,0,0,0,.305.575L-5,6.2a.3.3,0,0,1,.063.117.443.443,0,0,1,.027.135,3.245,3.245,0,0,1-.323.863A7.918,7.918,0,0,1-5.9,8.365,11.671,11.671,0,0,1-7.173,9.793,11.9,11.9,0,0,1-8.61,11.078a8.3,8.3,0,0,1-1.051.674,2.794,2.794,0,0,1-.647.26l-.225.045a.428.428,0,0,1-.117-.027.3.3,0,0,1-.117-.063l-1.024-1.042a1.1,1.1,0,0,0-.755-.287.939.939,0,0,0-.485.108h-.018l-3.468,2.048A.9.9,0,0,0-16.966,13.387Z" transform="translate(0.026 0) rotate(-180)" fill="#7f7f7f"/>
  </g>
</svg>
