<svg width="160" height="49" viewBox="0 0 160 49" fill="none" xmlns="http://www.w3.org/2000/svg">
<path d="M137.504 14.928H139.312V7.136L139.456 6.192L138.912 6.96L137.568 8.048L136.96 7.328L139.872 4.608H140.464V14.928H142.208V16H137.504V14.928ZM144.131 13.408C144.131 12.6933 144.275 12.0853 144.563 11.584C144.862 11.0827 145.299 10.6293 145.875 10.224C145.662 10.064 145.459 9.89867 145.267 9.728C145.086 9.54667 144.926 9.344 144.787 9.12C144.648 8.896 144.536 8.64533 144.451 8.368C144.376 8.09067 144.339 7.77067 144.339 7.408C144.339 6.544 144.563 5.86133 145.011 5.36C145.47 4.85867 146.094 4.608 146.883 4.608C147.619 4.608 148.2 4.83733 148.627 5.296C149.064 5.744 149.283 6.36267 149.283 7.152C149.283 7.76 149.166 8.29867 148.931 8.768C148.696 9.23733 148.328 9.696 147.827 10.144C148.051 10.304 148.264 10.48 148.467 10.672C148.67 10.864 148.846 11.0827 148.995 11.328C149.155 11.5627 149.278 11.8347 149.363 12.144C149.448 12.4427 149.491 12.7893 149.491 13.184C149.491 14.0907 149.246 14.8213 148.755 15.376C148.275 15.92 147.603 16.192 146.739 16.192C146.323 16.192 145.955 16.1227 145.635 15.984C145.315 15.8453 145.043 15.6533 144.819 15.408C144.595 15.1627 144.424 14.8693 144.307 14.528C144.19 14.1867 144.131 13.8133 144.131 13.408ZM146.627 10.672C146.136 11.0347 145.779 11.44 145.555 11.888C145.342 12.336 145.235 12.784 145.235 13.232C145.235 13.776 145.368 14.2347 145.635 14.608C145.902 14.9707 146.291 15.152 146.803 15.152C147.219 15.152 147.576 15.0027 147.875 14.704C148.184 14.3947 148.339 13.9093 148.339 13.248C148.339 12.9173 148.291 12.624 148.195 12.368C148.099 12.112 147.971 11.888 147.811 11.696C147.651 11.4933 147.47 11.312 147.267 11.152C147.064 10.9813 146.851 10.8213 146.627 10.672ZM147.059 9.728C147.422 9.36533 147.699 9.00267 147.891 8.64C148.083 8.26667 148.179 7.856 148.179 7.408C148.179 6.82133 148.046 6.384 147.779 6.096C147.523 5.79733 147.219 5.648 146.867 5.648C146.643 5.648 146.44 5.696 146.259 5.792C146.088 5.87733 145.944 6 145.827 6.16C145.71 6.32 145.619 6.50667 145.555 6.72C145.491 6.92267 145.459 7.14133 145.459 7.376C145.459 7.664 145.502 7.92533 145.587 8.16C145.672 8.384 145.79 8.592 145.939 8.784C146.088 8.96533 146.259 9.136 146.451 9.296C146.643 9.44533 146.846 9.58933 147.059 9.728ZM150.966 10.032H153.174V7.536H154.262V10.032H156.47V11.104H154.262V13.6H153.174V11.104H150.966V10.032Z" fill="white"/>
<path d="M38.0333 38.9303V24.8572C38.0333 20.3125 40.9973 17.2341 45.5168 17.2341C50.0362 17.2341 53.0002 20.3125 53.0002 24.8572V38.857C53.0002 39.4435 52.7035 39.7367 52.1107 39.7367H47.7389C47.1468 39.7367 46.85 39.4435 46.85 38.857V24.4906C46.85 23.5375 46.3318 23.0244 45.5168 23.0244C44.7017 23.0244 44.1828 23.6108 44.1828 24.4906V38.9303C44.1828 39.5168 43.886 39.81 43.2939 39.81H38.9221C38.3293 39.81 38.0333 39.4435 38.0333 38.9303ZM55.7413 32.7002V24.6372C55.8897 20.1666 58.8537 17.3074 63.2993 17.3074C67.5966 17.2341 70.9304 20.1659 70.9304 24.6372C70.9304 28.8153 67.8926 31.6005 63.447 31.6005H61.9653V33.14C61.9653 34.0924 62.4097 34.6063 63.2248 34.6063C63.8183 34.6063 64.2627 34.2397 64.4842 33.6525C64.6326 33.0667 64.8548 32.8468 65.4476 32.8468H69.8194C70.4122 32.8468 70.7082 33.14 70.6344 33.7258C70.2638 37.758 67.3744 40.3958 63.1509 40.3958C58.7053 40.3232 55.7413 37.2448 55.7413 32.7002ZM63.447 26.2494C64.2627 26.2494 64.7064 25.7369 64.7064 24.7831C64.7064 23.5375 64.1882 23.0244 63.2993 23.0244C62.4098 23.0244 61.8915 23.6108 61.8915 24.4906V26.2494H63.4477H63.447Z" fill="#FF6C4D"/>
<path d="M72.7834 30.9407C72.7834 30.3542 73.0801 29.9876 73.5984 29.9876H78.3401C78.859 29.9876 79.1551 30.2809 79.2289 30.8674C79.3035 33.2134 79.9701 34.239 81.1557 34.239C82.1929 34.239 82.7119 33.5059 82.7119 32.4062C82.7119 26.8359 73.0056 23.9774 73.0056 15.8412C73.0056 11.1506 76.1911 8.43805 80.7113 8.43805C85.6013 8.43805 88.6392 11.7371 88.7875 17.3807C88.7875 17.9672 88.4908 18.3338 87.9725 18.3338H83.2301C82.7119 18.3338 82.3413 18.0405 82.3413 17.3807C82.2667 15.328 81.7478 14.4482 80.8589 14.4482C80.0439 14.4482 79.4518 14.8888 79.4518 15.8412C79.4518 20.6791 89.232 23.6109 89.232 32.4069C89.232 37.3181 85.8974 40.2499 80.9335 40.2499C75.9689 40.3232 72.931 36.805 72.7834 30.9407ZM91.8254 38.9303V9.9043C91.8254 9.3178 92.1221 9.02455 92.7142 9.02455H97.086C97.6788 9.02455 97.9749 9.3178 97.9749 9.9043V17.7473C98.716 17.4541 99.3827 17.3074 100.049 17.3074C104.051 17.3074 106.866 20.3125 106.866 24.9305V38.9303C106.866 39.5168 106.569 39.8101 105.977 39.8101H101.605C101.013 39.8101 100.717 39.5168 100.717 38.9303V24.4906C100.717 23.5375 100.198 23.0244 99.3827 23.0244C98.5677 23.0244 98.0487 23.6109 98.0487 24.4906V38.9303C98.0487 39.5168 97.7519 39.8101 97.1598 39.8101H92.788C92.1221 39.8101 91.8254 39.4435 91.8254 38.9303ZM134.207 24.8572V32.7002C134.207 37.2448 131.169 40.3232 127.687 40.3232C126.872 40.3232 125.982 40.1766 125.168 39.7367V47.7264C125.168 48.3129 124.871 48.6054 124.277 48.6054H119.906C119.313 48.6054 119.017 48.3129 119.017 47.7264V24.8572C119.017 20.3125 122.055 17.2341 126.649 17.2341C131.169 17.2341 134.207 20.3125 134.207 24.8572ZM128.057 24.4906C128.057 23.5375 127.538 23.0244 126.649 23.0244C125.76 23.0244 125.241 23.6109 125.241 24.4906V33.14C125.241 34.0924 125.76 34.6063 126.649 34.6063C127.538 34.6063 128.057 34.0191 128.057 33.14V24.4906Z" fill="#333333"/>
<path d="M24.8107 9.08565H20.1509C19.5588 9.08565 19.2627 9.38034 19.2627 9.96827V30.342C19.2627 31.4452 18.819 32.1072 18.0055 32.1812H17.5618C16.7482 32.1072 16.3038 31.4452 16.3038 30.2694V9.96756C16.3038 9.37962 16.0085 9.08493 15.4164 9.08493H10.8304C10.239 9.08493 9.94297 9.37962 9.94297 9.96756V30.3412C9.94297 31.4445 9.49927 32.1065 8.68499 32.2538H8.24129C7.42773 32.1805 6.98404 31.4445 6.98404 30.342V9.96756C6.98404 9.37962 6.688 9.08493 6.09665 9.08493H1.43604C0.844683 9.08493 0.548645 9.37962 0.548645 9.96756V31.9599C0.548645 37.1083 3.72906 40.4914 8.4635 40.4914C10.3128 40.4914 11.8654 39.9035 13.0496 38.9468C14.3068 39.9028 15.8601 40.4921 17.7833 40.4921C22.517 40.4921 25.6981 37.1083 25.6981 31.9599V9.96827C25.6981 9.38034 25.4021 9.08565 24.8107 9.08565ZM33.0209 19.9711V18.5006C33.0213 18.4136 33.0043 18.3274 32.971 18.2469C32.9377 18.1665 32.8887 18.0934 32.8268 18.0319C32.7649 17.9703 32.6913 17.9216 32.6103 17.8884C32.5294 17.8552 32.4426 17.8383 32.355 17.8386H31.3938C31.3157 17.8376 31.2383 17.8522 31.166 17.8814C31.0937 17.9107 31.0281 17.9541 30.973 18.0089C30.9178 18.0638 30.8743 18.1291 30.845 18.2009C30.8158 18.2728 30.8013 18.3497 30.8024 18.4272V19.8978H33.0209V19.9711ZM33.8352 24.5316L33.317 24.0903C33.0955 23.9429 33.0209 23.7223 33.0209 23.429V22.325H30.7279V23.5757C30.7279 23.7963 30.5802 24.0903 30.4326 24.2369L29.8405 24.6789C29.323 25.0462 29.0269 25.6349 29.0269 26.2968V39.3889C29.0269 39.7569 29.323 39.9775 29.6183 39.9775H34.0567C34.4266 39.9775 34.6488 39.6828 34.6488 39.3889V26.2968C34.7226 25.7082 34.2789 24.8996 33.8352 24.5316Z" fill="#FF6C4D"/>
<path d="M113.944 19.9711V18.5006C113.944 18.4136 113.927 18.3274 113.894 18.2469C113.86 18.1665 113.811 18.0934 113.749 18.0319C113.688 17.9703 113.614 17.9216 113.533 17.8884C113.452 17.8552 113.365 17.8383 113.278 17.8386H112.316C112.238 17.8375 112.161 17.852 112.088 17.8812C112.016 17.9105 111.95 17.9538 111.895 18.0087C111.84 18.0636 111.796 18.1289 111.767 18.2008C111.738 18.2727 111.723 18.3497 111.724 18.4272V19.8978H113.944V19.9711ZM114.757 24.5316L114.24 24.0903C114.017 23.9429 113.944 23.7223 113.944 23.429V22.325H111.651V23.5756C111.651 23.7963 111.503 24.0903 111.354 24.2369L110.763 24.6789C110.245 25.0462 109.95 25.6349 109.95 26.2968V39.3889C109.95 39.7569 110.245 39.9775 110.541 39.9775H114.979C115.348 39.9775 115.571 39.6828 115.571 39.3889V26.2968C115.571 25.7082 115.202 24.8996 114.757 24.5316Z" fill="#333333"/>
</svg>
